<svg xmlns="http://www.w3.org/2000/svg" width="768" viewBox="0 0 768 768" height="768" version="1.0"><defs><clipPath id="a"><path d="M 115.199219 154.296875 L 652.949219 154.296875 L 652.949219 614 L 115.199219 614 Z M 115.199219 154.296875"/></clipPath></defs><path fill="#FFF" d="M-76.8 -76.8H844.8000000000001V844.8000000000001H-76.8z"/><path fill="#FFF" d="M-76.8 -76.8H844.8000000000001V844.8000000000001H-76.8z"/><path d="M-76.8 -76.8H844.8000000000001V844.8000000000001H-76.8z"/><path fill="#FF914D" d="M 579.609375 597.75 L 187.441406 597.75 C 157.941406 597.75 133.949219 573.855469 133.949219 544.34375 L 133.949219 225.4375 C 133.949219 195.921875 157.832031 171.917969 187.441406 171.917969 L 579.609375 171.917969 C 609.105469 171.917969 633.101562 195.8125 633.101562 225.4375 L 633.101562 544.230469 C 632.992188 573.855469 609.105469 597.75 579.609375 597.75 Z M 579.609375 597.75"/><g clip-path="url(#a)"><path fill="#1C1817" d="M 586.652344 608.320312 C 582.910156 608.320312 579.167969 608.320312 575.316406 608.320312 C 565.078125 608.320312 554.84375 608.320312 544.71875 608.320312 C 529.636719 608.320312 514.558594 608.320312 499.480469 608.320312 C 481.320312 608.320312 463.046875 608.320312 444.886719 608.320312 C 424.964844 608.320312 405.042969 608.320312 385.121094 608.320312 C 365.199219 608.320312 345.167969 608.320312 325.246094 608.320312 C 306.863281 608.320312 288.480469 608.320312 270.101562 608.320312 C 254.910156 608.320312 239.722656 608.320312 224.535156 608.320312 C 214.1875 608.320312 203.839844 608.320312 193.496094 608.320312 C 189.53125 608.320312 185.460938 608.320312 181.496094 608.320312 C 154.972656 608.210938 130.757812 590.484375 123.273438 564.824219 C 120.742188 556.234375 120.742188 547.644531 120.742188 538.835938 C 120.742188 528.15625 120.742188 517.363281 120.742188 506.679688 C 120.742188 490.492188 120.742188 474.195312 120.742188 458.007812 C 120.742188 438.628906 120.742188 419.246094 120.742188 399.753906 C 120.742188 379.714844 120.742188 359.671875 120.742188 339.628906 C 120.742188 321.460938 120.742188 303.179688 120.742188 285.011719 C 120.742188 271.136719 120.742188 257.148438 120.742188 243.273438 C 120.742188 236.117188 120.742188 229.070312 120.742188 221.910156 C 120.742188 202.421875 129.105469 183.921875 144.84375 172.027344 C 155.410156 164.097656 168.289062 159.914062 181.496094 159.804688 C 182.488281 159.804688 183.589844 159.804688 184.578125 159.804688 C 191.84375 159.804688 199.21875 159.804688 206.480469 159.804688 C 219.359375 159.804688 232.347656 159.804688 245.226562 159.804688 C 262.175781 159.804688 279.125 159.804688 296.078125 159.804688 C 315.339844 159.804688 334.601562 159.804688 353.863281 159.804688 C 374.003906 159.804688 394.144531 159.804688 414.289062 159.804688 C 433.660156 159.804688 452.921875 159.804688 472.292969 159.804688 C 489.242188 159.804688 506.195312 159.804688 523.035156 159.804688 C 535.910156 159.804688 548.789062 159.804688 561.558594 159.804688 C 568.820312 159.804688 576.195312 159.804688 583.460938 159.804688 C 584.453125 159.804688 585.550781 159.804688 586.542969 159.804688 C 599.75 159.914062 612.628906 164.097656 623.195312 172.136719 C 638.933594 184.03125 647.300781 202.53125 647.300781 222.023438 C 647.300781 229.179688 647.300781 236.335938 647.300781 243.496094 C 647.300781 257.371094 647.300781 271.355469 647.300781 285.230469 C 647.300781 303.398438 647.300781 321.460938 647.300781 339.628906 C 647.300781 359.671875 647.300781 379.714844 647.300781 399.753906 C 647.300781 419.136719 647.300781 438.515625 647.300781 458.007812 C 647.300781 474.304688 647.300781 490.605469 647.300781 506.902344 C 647.300781 517.582031 647.300781 528.265625 647.300781 538.945312 C 647.300781 547.757812 647.300781 556.34375 644.769531 564.933594 C 637.394531 590.484375 613.289062 608.210938 586.652344 608.320312 C 583.128906 608.320312 583.128906 613.828125 586.652344 613.828125 C 614.5 613.71875 639.703125 595.988281 649.0625 569.667969 C 652.582031 559.980469 652.914062 550.070312 652.914062 539.828125 C 652.914062 529.257812 652.914062 518.683594 652.914062 508.222656 C 652.914062 491.925781 652.914062 475.628906 652.914062 459.328125 C 652.914062 439.839844 652.914062 420.238281 652.914062 400.746094 C 652.914062 380.484375 652.914062 360.332031 652.914062 340.070312 C 652.914062 321.679688 652.914062 303.289062 652.914062 284.898438 C 652.914062 270.914062 652.914062 256.929688 652.914062 242.945312 C 652.914062 235.898438 652.914062 228.738281 652.914062 221.691406 C 652.914062 201.320312 644.328125 181.828125 628.367188 169.054688 C 615.601562 158.8125 600.410156 154.296875 584.230469 154.296875 C 577.1875 154.296875 570.253906 154.296875 563.207031 154.296875 C 550.441406 154.296875 537.5625 154.296875 524.796875 154.296875 C 507.84375 154.296875 490.894531 154.296875 473.945312 154.296875 C 454.460938 154.296875 434.980469 154.296875 415.609375 154.296875 C 395.246094 154.296875 374.996094 154.296875 354.632812 154.296875 C 335.039062 154.296875 315.449219 154.296875 295.855469 154.296875 C 278.796875 154.296875 261.734375 154.296875 244.675781 154.296875 C 231.6875 154.296875 218.808594 154.296875 205.820312 154.296875 C 198.667969 154.296875 191.402344 154.296875 184.25 154.296875 C 168.949219 154.296875 154.199219 158.152344 141.761719 167.511719 C 124.8125 180.398438 115.238281 200.328125 115.238281 221.472656 C 115.238281 228.296875 115.238281 235.125 115.238281 241.953125 C 115.238281 255.828125 115.238281 269.59375 115.238281 283.46875 C 115.238281 301.75 115.238281 320.027344 115.238281 338.308594 C 115.238281 358.460938 115.238281 378.722656 115.238281 398.875 C 115.238281 418.476562 115.238281 438.078125 115.238281 457.679688 C 115.238281 474.085938 115.238281 490.492188 115.238281 507.011719 C 115.238281 517.695312 115.238281 528.484375 115.238281 539.167969 C 115.238281 548.746094 115.347656 557.996094 118.207031 567.359375 C 126.464844 593.785156 151.117188 612.617188 178.855469 613.828125 C 183.367188 614.046875 187.769531 613.828125 192.285156 613.828125 C 202.519531 613.828125 212.644531 613.828125 222.882812 613.828125 C 238.070312 613.828125 253.152344 613.828125 268.339844 613.828125 C 286.832031 613.828125 305.210938 613.828125 323.703125 613.828125 C 343.957031 613.828125 364.097656 613.828125 384.351562 613.828125 C 404.492188 613.828125 424.523438 613.828125 444.667969 613.828125 C 463.15625 613.828125 481.539062 613.828125 500.03125 613.828125 C 515.21875 613.828125 530.296875 613.828125 545.488281 613.828125 C 555.613281 613.828125 565.851562 613.828125 575.976562 613.828125 C 579.5 613.828125 583.128906 613.828125 586.652344 613.828125 C 590.285156 613.828125 590.285156 608.320312 586.652344 608.320312 Z M 586.652344 608.320312"/></g><path fill="#1C1817" d="M 383.578125 338.859375 C 380.058594 338.859375 380.058594 333.351562 383.578125 333.351562 C 387.101562 333.351562 387.101562 338.859375 383.578125 338.859375 Z M 469.761719 295.582031 L 432.117188 295.582031 C 428.597656 295.582031 428.597656 301.085938 432.117188 301.085938 L 469.761719 301.085938 C 473.285156 301.085938 473.394531 295.582031 469.761719 295.582031 Z M 469.761719 366.058594 L 432.117188 366.058594 C 428.597656 366.058594 428.597656 371.566406 432.117188 371.566406 L 469.761719 371.566406 C 473.285156 371.566406 473.394531 366.058594 469.761719 366.058594 Z M 421.882812 375.199219 L 421.882812 433.339844 C 421.882812 436.867188 427.386719 436.867188 427.386719 433.339844 L 427.386719 375.199219 C 427.386719 371.675781 421.882812 371.675781 421.882812 375.199219 Z M 476.144531 305.824219 L 476.144531 363.964844 C 476.144531 367.488281 481.648438 367.488281 481.648438 363.964844 L 481.648438 305.824219 C 481.648438 302.300781 476.144531 302.300781 476.144531 305.824219 Z M 469.761719 438.078125 L 432.117188 438.078125 C 428.597656 438.078125 428.597656 443.582031 432.117188 443.582031 L 469.761719 443.582031 C 473.285156 443.582031 473.394531 438.078125 469.761719 438.078125 Z M 512.578125 375.199219 L 512.578125 433.339844 C 512.578125 436.867188 518.082031 436.867188 518.082031 433.339844 L 518.082031 375.199219 C 518.082031 371.675781 512.578125 371.675781 512.578125 375.199219 Z M 512.578125 305.824219 L 512.578125 363.964844 C 512.578125 367.488281 518.082031 367.488281 518.082031 363.964844 L 518.082031 305.824219 C 518.082031 302.300781 512.578125 302.300781 512.578125 305.824219 Z M 566.949219 305.824219 L 566.949219 363.964844 C 566.949219 367.488281 572.453125 367.488281 572.453125 363.964844 L 572.453125 305.824219 C 572.453125 302.300781 566.949219 302.300781 566.949219 305.824219 Z M 566.949219 375.199219 L 566.949219 433.339844 C 566.949219 436.867188 572.453125 436.867188 572.453125 433.339844 L 572.453125 375.199219 C 572.453125 371.675781 566.949219 371.675781 566.949219 375.199219 Z M 560.566406 438.078125 L 522.925781 438.078125 C 519.402344 438.078125 519.402344 443.582031 522.925781 443.582031 L 560.566406 443.582031 C 564.089844 443.582031 564.089844 438.078125 560.566406 438.078125 Z M 560.566406 295.582031 L 522.925781 295.582031 C 519.402344 295.582031 519.402344 301.085938 522.925781 301.085938 L 560.566406 301.085938 C 564.089844 301.085938 564.089844 295.582031 560.566406 295.582031 Z M 251.167969 438.078125 L 213.527344 438.078125 C 210.003906 438.078125 210.003906 443.582031 213.527344 443.582031 L 251.167969 443.582031 C 254.691406 443.582031 254.691406 438.078125 251.167969 438.078125 Z M 257.554688 375.199219 L 257.554688 433.339844 C 257.554688 436.867188 263.054688 436.867188 263.054688 433.339844 L 263.054688 375.199219 C 263.054688 371.675781 257.554688 371.675781 257.554688 375.199219 Z M 251.167969 295.582031 L 213.527344 295.582031 C 210.003906 295.582031 210.003906 301.085938 213.527344 301.085938 L 251.167969 301.085938 C 254.691406 301.085938 254.691406 295.582031 251.167969 295.582031 Z M 203.179688 305.824219 L 203.179688 363.964844 C 203.179688 367.488281 208.683594 367.488281 208.683594 363.964844 L 208.683594 305.824219 C 208.683594 302.300781 203.179688 302.300781 203.179688 305.824219 Z M 203.179688 375.199219 L 203.179688 433.339844 C 203.179688 436.867188 208.683594 436.867188 208.683594 433.339844 L 208.683594 375.199219 C 208.683594 371.675781 203.179688 371.675781 203.179688 375.199219 Z M 257.554688 305.824219 L 257.554688 363.964844 C 257.554688 367.488281 263.054688 367.488281 263.054688 363.964844 L 263.054688 305.824219 C 263.054688 302.300781 257.554688 302.300781 257.554688 305.824219 Z M 343.625 371.015625 L 343.625 429.15625 C 343.625 432.679688 349.128906 432.679688 349.128906 429.15625 L 349.128906 371.015625 C 349.128906 367.378906 343.625 367.378906 343.625 371.015625 Z M 337.242188 291.289062 L 299.597656 291.289062 C 296.078125 291.289062 296.078125 296.792969 299.597656 296.792969 L 337.242188 296.792969 C 340.765625 296.792969 340.765625 291.289062 337.242188 291.289062 Z M 289.253906 301.527344 L 289.253906 359.671875 C 289.253906 363.195312 294.753906 363.195312 294.753906 359.671875 L 294.753906 301.527344 C 294.753906 298.003906 289.253906 298.003906 289.253906 301.527344 Z M 337.242188 362.753906 L 299.597656 362.753906 C 296.078125 362.753906 296.078125 368.261719 299.597656 368.261719 L 337.242188 368.261719 C 340.765625 368.261719 340.765625 362.753906 337.242188 362.753906 Z M 337.242188 433.890625 L 299.597656 433.890625 C 296.078125 433.890625 296.078125 439.398438 299.597656 439.398438 L 337.242188 439.398438 C 340.765625 439.398438 340.765625 433.890625 337.242188 433.890625 Z M 369.050781 479.152344 L 356.832031 479.152344 C 355.734375 479.152344 355.734375 480.914062 356.832031 480.914062 L 369.050781 480.914062 C 370.152344 481.023438 370.152344 479.152344 369.050781 479.152344 Z M 369.050781 488.402344 L 356.832031 488.402344 C 355.734375 488.402344 355.734375 490.164062 356.832031 490.164062 L 369.050781 490.164062 C 370.152344 490.273438 370.152344 488.402344 369.050781 488.402344 Z M 371.140625 482.566406 L 371.140625 501.394531 C 371.140625 502.496094 372.902344 502.496094 372.902344 501.394531 L 372.902344 482.566406 C 372.902344 481.355469 371.140625 481.355469 371.140625 482.566406 Z M 353.53125 482.566406 L 353.53125 501.394531 C 353.53125 502.496094 355.292969 502.496094 355.292969 501.394531 L 355.292969 482.566406 C 355.292969 481.355469 353.53125 481.355469 353.53125 482.566406 Z M 419.019531 502.054688 L 419.019531 483.226562 C 419.019531 482.125 417.261719 482.125 417.261719 483.226562 L 417.261719 502.054688 C 417.148438 503.269531 419.019531 503.269531 419.019531 502.054688 Z M 403.390625 481.683594 L 415.609375 481.683594 C 416.710938 481.683594 416.710938 479.921875 415.609375 479.921875 L 403.390625 479.921875 C 402.289062 479.921875 402.289062 481.683594 403.390625 481.683594 Z M 400.308594 502.054688 L 400.308594 483.226562 C 400.308594 482.125 398.546875 482.125 398.546875 483.226562 L 398.546875 502.054688 C 398.4375 503.269531 400.308594 503.269531 400.308594 502.054688 Z M 382.699219 502.054688 L 382.699219 483.226562 C 382.699219 482.125 380.9375 482.125 380.9375 483.226562 L 380.9375 502.054688 C 380.828125 503.269531 382.699219 503.269531 382.699219 502.054688 Z M 384.679688 481.683594 L 396.898438 481.683594 C 398 481.683594 398 479.921875 396.898438 479.921875 L 384.679688 479.921875 C 383.578125 479.921875 383.578125 481.683594 384.679688 481.683594 Z M 383.578125 393.589844 C 380.058594 393.589844 380.058594 399.09375 383.578125 399.09375 C 387.101562 399.09375 387.101562 393.589844 383.578125 393.589844 Z M 383.578125 393.589844"/></svg>