<svg xmlns="http://www.w3.org/2000/svg" width="768" viewBox="0 0 768 768" height="768" version="1.0"><defs><clipPath id="a"><path d="M 109.949219 109.949219 L 658.195312 109.949219 L 658.195312 658.195312 L 109.949219 658.195312 Z M 109.949219 109.949219"/></clipPath></defs><g clip-path="url(#a)"><path fill="#2E6A87" d="M 658.171875 384.074219 C 658.171875 535.453125 535.453125 658.171875 384.074219 658.171875 C 232.691406 658.171875 109.972656 535.453125 109.972656 384.074219 C 109.972656 232.695312 232.691406 109.980469 384.074219 109.980469 C 535.453125 109.980469 658.171875 232.695312 658.171875 384.074219"/></g><path fill="#214B62" d="M 632.316406 384.074219 C 632.316406 521.175781 521.167969 632.316406 384.074219 632.316406 C 246.972656 632.316406 135.828125 521.175781 135.828125 384.074219 C 135.828125 246.972656 246.972656 135.832031 384.074219 135.832031 C 521.167969 135.832031 632.316406 246.972656 632.316406 384.074219"/><path fill="#FFF" d="M 600.609375 384.066406 C 600.609375 503.660156 503.660156 600.605469 384.074219 600.605469 C 264.480469 600.605469 167.539062 503.660156 167.539062 384.066406 C 167.539062 264.480469 264.480469 167.53125 384.074219 167.53125 C 503.660156 167.53125 600.609375 264.480469 600.609375 384.066406"/><path fill="#231F20" d="M 551.566406 317.105469 L 551.566406 324.078125 L 529.097656 324.078125 L 529.105469 318.242188 C 535.765625 307.355469 539.726562 300.621094 540.980469 298.039062 C 542.226562 295.453125 542.851562 293.429688 542.851562 291.988281 C 542.851562 290.875 542.671875 290.042969 542.285156 289.5 C 541.910156 288.949219 541.324219 288.679688 540.546875 288.679688 C 539.777344 288.679688 539.207031 288.976562 538.816406 289.582031 C 538.445312 290.191406 538.253906 291.398438 538.253906 293.203125 L 538.253906 297.089844 L 529.097656 297.089844 L 529.097656 295.597656 C 529.097656 293.308594 529.222656 291.492188 529.457031 290.183594 C 529.6875 288.851562 530.273438 287.550781 531.207031 286.277344 C 532.128906 284.988281 533.332031 284.027344 534.816406 283.371094 C 536.296875 282.714844 538.066406 282.382812 540.136719 282.382812 C 544.210938 282.382812 547.277344 283.382812 549.359375 285.402344 C 551.4375 287.410156 552.484375 289.964844 552.484375 293.042969 C 552.484375 295.386719 551.898438 297.867188 550.726562 300.480469 C 549.558594 303.089844 546.09375 308.628906 540.375 317.105469 L 551.566406 317.105469"/><path fill="#BF1B2C" d="M 389.601562 394.152344 L 380.769531 394.152344 L 380.769531 254.007812 L 389.601562 254.007812 L 389.601562 394.152344"/><path fill="#BF1B2C" d="M 371.203125 258.132812 L 399.160156 258.132812 L 385.175781 244.292969 Z M 371.203125 258.132812"/><path fill="#231F20" d="M 379.875 394.320312 L 379.875 387.976562 L 480.539062 387.976562 L 480.539062 394.320312 L 379.875 394.320312"/><path fill="#231F20" d="M 477.566406 381.109375 L 477.566406 401.199219 L 487.507812 391.152344 Z M 477.566406 381.109375"/><path fill="#183651" d="M 409.921875 390.980469 C 409.921875 404.640625 398.863281 415.714844 385.175781 415.714844 C 371.523438 415.714844 360.429688 404.640625 360.429688 390.980469 C 360.429688 377.308594 371.523438 366.226562 385.175781 366.226562 C 398.863281 366.226562 409.921875 377.308594 409.921875 390.980469"/><path fill="#ED1C24" d="M 398.609375 390.980469 C 398.609375 398.398438 392.605469 404.410156 385.175781 404.410156 C 377.757812 404.410156 371.753906 398.398438 371.753906 390.980469 C 371.753906 383.558594 377.757812 377.554688 385.175781 377.554688 C 392.605469 377.554688 398.609375 383.558594 398.609375 390.980469"/><path fill="#231F20" d="M 484.230469 213.09375 L 484.230469 254.007812 L 474.011719 254.007812 L 474.011719 232.074219 C 474.011719 228.902344 473.9375 227.003906 473.78125 226.359375 C 473.625 225.722656 473.214844 225.238281 472.53125 224.914062 C 471.84375 224.574219 470.335938 224.410156 467.96875 224.410156 L 466.964844 224.410156 L 466.964844 219.640625 C 471.886719 218.578125 475.648438 216.394531 478.203125 213.09375 L 484.230469 213.09375"/><path fill="#231F20" d="M 551.566406 317.105469 L 551.566406 324.078125 L 529.097656 324.078125 L 529.105469 318.242188 C 535.765625 307.355469 539.726562 300.621094 540.980469 298.039062 C 542.226562 295.453125 542.851562 293.429688 542.851562 291.988281 C 542.851562 290.875 542.671875 290.042969 542.285156 289.5 C 541.910156 288.949219 541.324219 288.679688 540.546875 288.679688 C 539.777344 288.679688 539.207031 288.976562 538.816406 289.582031 C 538.445312 290.191406 538.253906 291.398438 538.253906 293.203125 L 538.253906 297.089844 L 529.097656 297.089844 L 529.097656 295.597656 C 529.097656 293.308594 529.222656 291.492188 529.457031 290.183594 C 529.6875 288.851562 530.273438 287.550781 531.207031 286.277344 C 532.128906 284.988281 533.332031 284.027344 534.816406 283.371094 C 536.296875 282.714844 538.066406 282.382812 540.136719 282.382812 C 544.210938 282.382812 547.277344 283.382812 549.359375 285.402344 C 551.4375 287.410156 552.484375 289.964844 552.484375 293.042969 C 552.484375 295.386719 551.898438 297.867188 550.726562 300.480469 C 549.558594 303.089844 546.09375 308.628906 540.375 317.105469 L 551.566406 317.105469"/><path fill="#231F20" d="M 567.523438 384.054688 C 569.078125 384.574219 570.21875 385.433594 570.972656 386.617188 C 571.738281 387.808594 572.113281 390.589844 572.113281 394.976562 C 572.113281 398.226562 571.75 400.753906 571 402.550781 C 570.265625 404.34375 568.992188 405.710938 567.160156 406.640625 C 565.339844 407.574219 563.007812 408.046875 560.160156 408.046875 C 556.914062 408.046875 554.386719 407.5 552.542969 406.417969 C 550.707031 405.332031 549.476562 403.992188 548.90625 402.433594 C 548.316406 400.851562 548.03125 398.125 548.03125 394.226562 L 548.03125 390.988281 L 558.242188 390.988281 L 558.242188 397.636719 C 558.242188 399.40625 558.335938 400.527344 558.554688 401.011719 C 558.773438 401.492188 559.230469 401.722656 559.972656 401.722656 C 560.75 401.722656 561.269531 401.425781 561.511719 400.820312 C 561.785156 400.214844 561.90625 398.632812 561.90625 396.070312 L 561.90625 393.238281 C 561.90625 391.671875 561.726562 390.523438 561.375 389.800781 C 561.023438 389.078125 560.503906 388.605469 559.808594 388.378906 C 559.117188 388.140625 557.777344 388.023438 555.792969 387.976562 L 555.792969 382.042969 C 558.214844 382.042969 559.707031 381.953125 560.292969 381.765625 C 560.855469 381.582031 561.269531 381.175781 561.511719 380.550781 C 561.785156 379.929688 561.90625 378.945312 561.90625 377.621094 L 561.90625 375.351562 C 561.90625 373.910156 561.753906 372.96875 561.46875 372.511719 C 561.167969 372.058594 560.703125 371.835938 560.085938 371.835938 C 559.378906 371.835938 558.894531 372.066406 558.632812 372.558594 C 558.382812 373.035156 558.242188 374.058594 558.242188 375.628906 L 558.242188 378.984375 L 548.03125 378.984375 L 548.03125 375.496094 C 548.03125 371.589844 548.929688 368.941406 550.71875 367.582031 C 552.503906 366.203125 555.335938 365.511719 559.21875 365.511719 C 564.09375 365.511719 567.398438 366.460938 569.128906 368.371094 C 570.875 370.273438 571.738281 372.914062 571.738281 376.292969 C 571.738281 378.582031 571.425781 380.246094 570.800781 381.253906 C 570.179688 382.277344 569.082031 383.210938 567.523438 384.054688"/><path fill="#231F20" d="M 540.171875 481.476562 L 540.171875 464.066406 L 535.671875 481.476562 Z M 550.386719 454.738281 L 550.386719 481.476562 L 553.28125 481.476562 L 553.28125 488.453125 L 550.386719 488.453125 L 550.386719 495.660156 L 540.171875 495.660156 L 540.171875 488.453125 L 528.042969 488.453125 L 528.042969 481.476562 L 536.851562 454.738281 L 550.386719 454.738281"/><path fill="#231F20" d="M 490.769531 514.144531 L 490.769531 520.683594 L 478.105469 520.683594 L 478.105469 527.636719 C 479.691406 525.765625 481.726562 524.832031 484.230469 524.832031 C 487.042969 524.832031 489.164062 525.621094 490.609375 527.191406 C 492.042969 528.773438 492.765625 531.796875 492.765625 536.28125 L 492.765625 542.113281 C 492.765625 545.007812 492.628906 547.144531 492.34375 548.496094 C 492.078125 549.855469 491.480469 551.105469 490.558594 552.265625 C 489.65625 553.417969 488.394531 554.300781 486.761719 554.910156 C 485.144531 555.535156 483.152344 555.839844 480.8125 555.839844 C 478.183594 555.839844 475.863281 555.382812 473.859375 554.460938 C 471.863281 553.539062 470.4375 552.171875 469.59375 550.359375 C 468.742188 548.535156 468.324219 545.722656 468.324219 541.914062 L 468.324219 539.699219 L 478.535156 539.699219 L 478.535156 542.246094 C 478.535156 544.894531 478.621094 546.773438 478.816406 547.886719 C 479 548.988281 479.632812 549.542969 480.730469 549.542969 C 481.238281 549.542969 481.65625 549.390625 481.964844 549.058594 C 482.277344 548.75 482.445312 548.398438 482.464844 548.027344 C 482.484375 547.660156 482.515625 546.054688 482.550781 543.207031 L 482.550781 535.09375 C 482.550781 533.5625 482.390625 532.515625 482.074219 531.957031 C 481.761719 531.40625 481.214844 531.121094 480.488281 531.121094 C 480.015625 531.121094 479.609375 531.265625 479.292969 531.558594 C 478.972656 531.84375 478.769531 532.144531 478.675781 532.480469 C 478.582031 532.804688 478.535156 533.5625 478.535156 534.769531 L 468.433594 534.769531 L 468.855469 514.144531 L 490.769531 514.144531"/><path fill="#231F20" d="M 396.011719 565.804688 C 396.011719 564.351562 395.851562 563.363281 395.53125 562.828125 C 395.207031 562.28125 394.683594 562.003906 393.960938 562.003906 C 393.257812 562.003906 392.726562 562.269531 392.402344 562.789062 C 392.074219 563.304688 391.910156 564.304688 391.910156 565.804688 L 391.910156 573.210938 C 391.910156 575.015625 392.074219 576.1875 392.382812 576.746094 C 392.6875 577.304688 393.210938 577.582031 393.933594 577.582031 C 394.363281 577.582031 394.835938 577.371094 395.292969 576.9375 C 395.777344 576.507812 396.011719 575.347656 396.011719 573.460938 Z M 406.214844 553.042969 L 396.011719 553.042969 C 396.011719 551.144531 395.992188 549.9375 395.945312 549.4375 C 395.898438 548.949219 395.707031 548.53125 395.332031 548.191406 C 394.976562 547.859375 394.484375 547.6875 393.855469 547.6875 C 393.335938 547.6875 392.910156 547.847656 392.558594 548.164062 C 392.234375 548.484375 392.042969 548.894531 391.988281 549.40625 C 391.9375 549.917969 391.910156 550.929688 391.910156 552.457031 L 391.910156 558.984375 C 392.425781 557.890625 393.199219 557.066406 394.210938 556.519531 C 395.214844 555.972656 396.46875 555.695312 397.953125 555.695312 C 399.820312 555.695312 401.476562 556.199219 402.910156 557.207031 C 404.328125 558.230469 405.253906 559.4375 405.628906 560.851562 C 406.023438 562.269531 406.214844 564.179688 406.214844 566.589844 L 406.214844 569.851562 C 406.214844 572.710938 406.109375 574.847656 405.882812 576.242188 C 405.664062 577.640625 405.09375 578.933594 404.132812 580.117188 C 403.175781 581.3125 401.867188 582.234375 400.214844 582.890625 C 398.558594 583.546875 396.621094 583.871094 394.417969 583.871094 C 391.664062 583.871094 389.429688 583.492188 387.671875 582.738281 C 385.914062 581.980469 384.566406 580.894531 383.605469 579.464844 C 382.660156 578.046875 382.105469 576.546875 381.945312 574.980469 C 381.785156 573.414062 381.707031 570.363281 381.707031 565.859375 L 381.707031 560.199219 C 381.707031 555.328125 381.78125 552.078125 381.910156 550.425781 C 382.066406 548.78125 382.640625 547.230469 383.675781 545.769531 C 384.699219 544.296875 386.097656 543.203125 387.882812 542.464844 C 389.660156 541.730469 391.710938 541.363281 394.039062 541.363281 C 396.898438 541.363281 399.246094 541.828125 401.085938 542.75 C 402.921875 543.6875 404.238281 544.992188 405.03125 546.671875 C 405.824219 548.363281 406.214844 550.488281 406.214844 553.042969"/><path fill="#231F20" d="M 309.269531 514.144531 L 309.269531 523.058594 L 302.757812 555.058594 L 292.578125 555.058594 L 299.855469 521.5 L 289.765625 521.5 L 289.765625 514.144531 L 309.269531 514.144531"/><path fill="#231F20" d="M 242.128906 463.667969 C 242.128906 462.28125 242.019531 461.367188 241.757812 460.914062 C 241.515625 460.46875 241.054688 460.246094 240.359375 460.246094 C 239.683594 460.246094 239.21875 460.492188 238.992188 460.96875 C 238.761719 461.445312 238.640625 462.347656 238.640625 463.667969 L 238.640625 466.765625 C 238.640625 468 238.773438 468.855469 239.046875 469.328125 C 239.3125 469.792969 239.777344 470.03125 240.414062 470.03125 C 241.082031 470.03125 241.546875 469.796875 241.777344 469.335938 C 242.019531 468.871094 242.128906 467.921875 242.128906 466.46875 Z M 242.335938 480.664062 C 242.335938 479.105469 242.175781 478.066406 241.851562 477.546875 C 241.527344 477.035156 241.03125 476.785156 240.332031 476.785156 C 239.664062 476.785156 239.164062 477.023438 238.878906 477.519531 C 238.582031 478.019531 238.441406 479.066406 238.441406 480.664062 L 238.441406 485.972656 C 238.441406 487.746094 238.601562 488.886719 238.941406 489.390625 C 239.257812 489.894531 239.777344 490.148438 240.492188 490.148438 C 241.207031 490.148438 241.6875 489.886719 241.945312 489.378906 C 242.203125 488.867188 242.335938 487.707031 242.335938 485.902344 Z M 247.855469 472.445312 C 249.363281 473.054688 250.515625 473.964844 251.324219 475.160156 C 252.128906 476.359375 252.546875 479.238281 252.546875 483.769531 C 252.546875 487.074219 252.222656 489.507812 251.578125 491.082031 C 250.949219 492.648438 249.695312 493.929688 247.84375 494.929688 C 245.984375 495.945312 243.503906 496.4375 240.386719 496.4375 C 237.355469 496.4375 234.953125 495.957031 233.179688 494.996094 C 231.417969 494.046875 230.148438 492.765625 229.371094 491.175781 C 228.617188 489.597656 228.238281 486.957031 228.238281 483.265625 C 228.238281 480.792969 228.417969 478.636719 228.800781 476.824219 C 229.171875 475 230.367188 473.539062 232.371094 472.445312 C 231.109375 471.84375 230.164062 470.867188 229.523438 469.554688 C 228.902344 468.234375 228.582031 466.546875 228.582031 464.519531 C 228.582031 460.996094 229.558594 458.355469 231.507812 456.601562 C 233.472656 454.839844 236.386719 453.957031 240.28125 453.957031 C 244.785156 453.957031 247.890625 454.898438 249.609375 456.753906 C 251.324219 458.621094 252.1875 461.292969 252.1875 464.769531 C 252.1875 466.972656 251.890625 468.566406 251.339844 469.539062 C 250.777344 470.507812 249.621094 471.484375 247.855469 472.445312"/><path fill="#231F20" d="M 206.246094 377.566406 C 206.246094 379.277344 206.464844 380.347656 206.910156 380.757812 C 207.367188 381.15625 207.824219 381.355469 208.296875 381.355469 C 209 381.355469 209.515625 381.101562 209.847656 380.585938 C 210.171875 380.066406 210.339844 379.066406 210.339844 377.566406 L 210.339844 370.164062 C 210.339844 368.363281 210.171875 367.175781 209.867188 366.621094 C 209.570312 366.0625 209.042969 365.777344 208.316406 365.777344 C 207.878906 365.777344 207.425781 366.003906 206.953125 366.425781 C 206.476562 366.859375 206.246094 368.011719 206.246094 369.910156 Z M 196.027344 390.332031 L 206.246094 390.332031 C 206.246094 392.234375 206.273438 393.429688 206.316406 393.933594 C 206.378906 394.425781 206.578125 394.84375 206.949219 395.179688 C 207.300781 395.519531 207.789062 395.683594 208.414062 395.683594 C 208.945312 395.683594 209.371094 395.519531 209.703125 395.207031 C 210.039062 394.890625 210.226562 394.472656 210.273438 393.96875 C 210.324219 393.460938 210.339844 392.441406 210.339844 390.914062 L 210.339844 384.386719 C 209.835938 385.488281 209.085938 386.304688 208.070312 386.855469 C 207.0625 387.390625 205.800781 387.675781 204.300781 387.675781 C 202.429688 387.675781 200.777344 387.167969 199.351562 386.15625 C 197.914062 385.144531 197.011719 383.9375 196.617188 382.515625 C 196.242188 381.109375 196.027344 379.179688 196.027344 376.789062 L 196.027344 373.519531 C 196.027344 370.660156 196.148438 368.523438 196.378906 367.125 C 196.605469 365.738281 197.1875 364.4375 198.132812 363.25 C 199.078125 362.0625 200.378906 361.132812 202.050781 360.484375 C 203.71875 359.824219 205.65625 359.5 207.863281 359.5 C 210.597656 359.5 212.832031 359.871094 214.578125 360.636719 C 216.328125 361.386719 217.691406 362.480469 218.652344 363.90625 C 219.621094 365.324219 220.171875 366.832031 220.324219 368.390625 C 220.46875 369.964844 220.550781 372.988281 220.550781 377.488281 L 220.550781 383.171875 C 220.550781 388.042969 220.484375 391.300781 220.34375 392.945312 C 220.210938 394.582031 219.625 396.144531 218.585938 397.609375 C 217.558594 399.074219 216.148438 400.171875 214.386719 400.898438 C 212.609375 401.644531 210.5625 402 208.242188 402 C 205.355469 402 203 401.535156 201.175781 400.613281 C 199.351562 399.691406 198.042969 398.386719 197.234375 396.699219 C 196.4375 395.007812 196.027344 392.890625 196.027344 390.332031"/><path fill="#231F20" d="M 234.429688 283.164062 L 234.429688 324.078125 L 224.21875 324.078125 L 224.21875 302.140625 C 224.21875 298.976562 224.136719 297.070312 223.984375 296.425781 C 223.832031 295.789062 223.421875 295.3125 222.738281 294.980469 C 222.042969 294.640625 220.523438 294.484375 218.171875 294.484375 L 217.160156 294.484375 L 217.160156 289.71875 C 222.09375 288.660156 225.855469 286.46875 228.417969 283.164062 L 234.429688 283.164062"/><path fill="#231F20" d="M 252.269531 293.582031 C 252.269531 291.398438 252.167969 290.042969 251.957031 289.5 C 251.742188 288.949219 251.246094 288.679688 250.46875 288.679688 C 249.714844 288.679688 249.210938 288.96875 248.964844 289.546875 C 248.730469 290.125 248.597656 291.464844 248.597656 293.582031 L 248.597656 313.542969 C 248.597656 315.917969 248.710938 317.351562 248.945312 317.835938 C 249.175781 318.335938 249.660156 318.574219 250.425781 318.574219 C 251.171875 318.574219 251.683594 318.289062 251.917969 317.710938 C 252.15625 317.140625 252.269531 315.847656 252.269531 313.847656 Z M 262.464844 297.019531 L 262.464844 310.664062 C 262.464844 313.761719 262.3125 316.019531 261.972656 317.433594 C 261.628906 318.84375 260.933594 320.171875 259.882812 321.398438 C 258.808594 322.632812 257.535156 323.515625 256.035156 324.058594 C 254.53125 324.597656 252.859375 324.863281 251.007812 324.863281 C 248.554688 324.863281 246.53125 324.582031 244.917969 324.011719 C 243.285156 323.457031 242.019531 322.574219 241.050781 321.378906 C 240.082031 320.179688 239.402344 318.917969 238.992188 317.597656 C 238.59375 316.269531 238.390625 314.175781 238.390625 311.296875 L 238.390625 297.019531 C 238.390625 293.257812 238.71875 290.441406 239.363281 288.570312 C 240.015625 286.707031 241.300781 285.203125 243.230469 284.066406 C 245.167969 282.945312 247.503906 282.382812 250.25 282.382812 C 252.488281 282.382812 254.492188 282.78125 256.261719 283.554688 C 258.035156 284.339844 259.347656 285.292969 260.234375 286.421875 C 261.105469 287.550781 261.703125 288.832031 262.007812 290.238281 C 262.320312 291.65625 262.464844 293.914062 262.464844 297.019531"/><path fill="#231F20" d="M 292.660156 213.09375 L 292.660156 254.007812 L 282.449219 254.007812 L 282.449219 232.074219 C 282.449219 228.902344 282.363281 227.003906 282.214844 226.359375 C 282.0625 225.722656 281.644531 225.238281 280.96875 224.914062 C 280.277344 224.574219 278.757812 224.410156 276.398438 224.410156 L 275.382812 224.410156 L 275.382812 219.640625 C 280.324219 218.578125 284.074219 216.394531 286.632812 213.09375 L 292.660156 213.09375"/><path fill="#231F20" d="M 312.371094 213.09375 L 312.371094 254.007812 L 302.152344 254.007812 L 302.152344 232.074219 C 302.152344 228.902344 302.074219 227.003906 301.921875 226.359375 C 301.769531 225.722656 301.371094 225.238281 300.667969 224.914062 C 299.988281 224.574219 298.484375 224.410156 296.109375 224.410156 L 295.101562 224.410156 L 295.101562 219.640625 C 300.035156 218.578125 303.792969 216.394531 306.339844 213.09375 L 312.371094 213.09375"/><path fill="#231F20" d="M 383.230469 185.0625 L 383.230469 225.96875 L 373.027344 225.96875 L 373.027344 204.035156 C 373.027344 200.871094 372.941406 198.96875 372.789062 198.324219 C 372.636719 197.679688 372.230469 197.195312 371.535156 196.871094 C 370.859375 196.546875 369.339844 196.378906 366.976562 196.378906 L 365.96875 196.378906 L 365.96875 191.601562 C 370.898438 190.546875 374.648438 188.359375 377.207031 185.0625 L 383.230469 185.0625"/><path fill="#231F20" d="M 409.199219 219.003906 L 409.199219 225.96875 L 386.75 225.96875 L 386.75 220.132812 C 393.402344 209.25 397.355469 202.515625 398.609375 199.929688 C 399.871094 197.339844 400.5 195.316406 400.5 193.878906 C 400.5 192.769531 400.308594 191.941406 399.925781 191.390625 C 399.546875 190.832031 398.96875 190.5625 398.191406 190.5625 C 397.417969 190.5625 396.839844 190.871094 396.460938 191.46875 C 396.078125 192.082031 395.890625 193.289062 395.890625 195.085938 L 395.890625 198.980469 L 386.75 198.980469 L 386.75 197.488281 C 386.75 195.199219 386.855469 193.386719 387.09375 192.066406 C 387.332031 190.753906 387.902344 189.445312 388.84375 188.167969 C 389.773438 186.886719 390.976562 185.910156 392.453125 185.253906 C 393.933594 184.601562 395.710938 184.273438 397.789062 184.273438 C 401.847656 184.273438 404.914062 185.28125 406.996094 187.289062 C 409.082031 189.3125 410.121094 191.855469 410.121094 194.941406 C 410.121094 197.28125 409.53125 199.75 408.363281 202.355469 C 407.195312 204.984375 403.738281 210.519531 398.007812 219.003906 L 409.199219 219.003906"/></svg>