<svg xmlns="http://www.w3.org/2000/svg" width="768" viewBox="0 0 768 768" height="768" version="1.0"><defs><clipPath id="a"><path d="M 70.660156 110.613281 L 697.660156 110.613281 L 697.660156 657.363281 L 70.660156 657.363281 Z M 70.660156 110.613281"/></clipPath></defs><path fill="#FFF" d="M-76.8 -76.8H844.8000000000001V844.8000000000001H-76.8z"/><path fill="#FFF" d="M-76.8 -76.8H844.8000000000001V844.8000000000001H-76.8z"/><path d="M-76.8 -76.8H844.8000000000001V844.8000000000001H-76.8z"/><path fill="#20BAB6" d="M 645.101562 288.597656 L 322.1875 286.773438 L 322.1875 150.121094 C 322.1875 131.035156 306.726562 115.582031 287.628906 115.582031 L 110.378906 115.582031 C 91.28125 115.582031 75.816406 131.035156 75.816406 150.121094 L 75.816406 474.289062 C 75.816406 493.394531 91.28125 508.851562 110.378906 508.851562 L 253.710938 508.851562 L 253.164062 602.589844 C 253.011719 628.839844 273.3125 652.234375 299.617188 652.390625 L 643.023438 652.390625 C 669.328125 652.546875 690.8125 631.363281 690.96875 605.113281 L 692.503906 336.417969 C 692.660156 310.1875 671.464844 288.789062 645.101562 288.597656"/><path fill="#20BAB6" d="M 645.101562 288.597656 C 671.464844 288.789062 692.660156 310.1875 692.503906 336.417969 L 690.96875 605.113281 C 690.8125 631.363281 669.328125 652.546875 643.023438 652.390625 L 299.617188 652.390625 C 273.3125 652.234375 253.011719 628.839844 253.164062 602.589844 L 253.710938 508.851562 L 287.628906 508.851562 C 306.726562 508.851562 322.1875 493.394531 322.1875 474.289062 L 322.1875 286.773438 L 645.101562 288.597656"/><path fill="#655F68" d="M 322.1875 286.773438 L 322.1875 474.289062 C 322.1875 493.394531 306.726562 508.851562 287.628906 508.851562 L 110.378906 508.851562 C 91.28125 508.851562 75.816406 493.394531 75.816406 474.289062 L 75.816406 150.121094 C 75.816406 131.035156 91.28125 115.582031 110.378906 115.582031 L 287.628906 115.582031 C 306.726562 115.582031 322.1875 131.035156 322.1875 150.121094 L 322.1875 286.773438"/><path fill="#E7F2F1" d="M 577.769531 361.96875 C 587.617188 374.839844 593.195312 389.753906 593.195312 405.597656 L 499.535156 405.597656 C 499.535156 395.519531 493.476562 386.878906 484.773438 383.09375 L 474.921875 351.523438 L 474.921875 317.136719 C 498.546875 317.136719 520.519531 322.300781 538.972656 331.253906 C 554.980469 338.960938 568.367188 349.542969 577.769531 361.96875"/><path fill="#E7F2F1" d="M 410.757812 331.3125 C 429.210938 322.300781 451.242188 317.136719 474.921875 317.136719 L 474.921875 351.523438 L 465.074219 383.09375 C 456.371094 386.878906 450.308594 395.519531 450.308594 405.597656 L 356.652344 405.597656 C 356.652344 389.753906 362.226562 374.839844 372.019531 361.96875 C 381.480469 349.542969 394.808594 339 410.757812 331.3125"/><path fill="#604533" d="M 499.535156 405.597656 L 450.308594 405.597656 C 450.308594 395.519531 456.371094 386.878906 465.074219 383.09375 C 468.066406 381.792969 471.445312 381.054688 474.921875 381.054688 C 478.402344 381.054688 481.78125 381.792969 484.773438 383.09375 C 493.476562 386.878906 499.535156 395.519531 499.535156 405.597656"/><path fill="#E15C63" d="M 474.921875 351.523438 L 484.773438 383.09375 C 481.78125 381.792969 478.402344 381.054688 474.921875 381.054688 C 471.445312 381.054688 468.066406 381.792969 465.074219 383.09375 L 474.921875 351.523438"/><path fill="#71CC75" d="M 292.601562 140.183594 L 292.601562 228.660156 L 105.367188 228.660156 L 105.367188 140.183594 L 292.601562 140.183594"/><path fill="#E15C63" d="M 287.667969 385.988281 L 287.667969 464.601562 L 248.289062 464.601562 L 248.289062 385.988281 L 287.667969 385.988281"/><path fill="#FFC05A" d="M 287.667969 317.136719 L 287.667969 385.988281 L 248.289062 385.988281 L 248.289062 317.136719 L 287.667969 317.136719"/><path fill="#AD6A6A" d="M 287.667969 267.976562 L 287.667969 317.136719 L 248.289062 317.136719 L 248.289062 267.976562 L 287.667969 267.976562"/><path fill="#B8D3CF" d="M 248.289062 415.460938 L 248.289062 464.601562 L 199.003906 464.601562 L 199.003906 415.460938 L 248.289062 415.460938"/><path fill="#E7F2F1" d="M 248.289062 385.988281 L 248.289062 415.460938 L 199.003906 415.460938 L 199.003906 366.296875 L 248.289062 366.296875 L 248.289062 385.988281"/><path fill="#B8D3CF" d="M 248.289062 317.136719 L 248.289062 366.296875 L 199.003906 366.296875 L 199.003906 317.136719 L 248.289062 317.136719"/><path fill="#E7F2F1" d="M 248.289062 267.976562 L 248.289062 317.136719 L 199.003906 317.136719 L 199.003906 267.976562 L 248.289062 267.976562"/><path fill="#E7F2F1" d="M 199.003906 415.460938 L 199.003906 464.601562 L 149.71875 464.601562 L 149.71875 415.460938 L 199.003906 415.460938"/><path fill="#B8D3CF" d="M 199.003906 366.296875 L 199.003906 415.460938 L 149.71875 415.460938 L 149.71875 366.296875 L 199.003906 366.296875"/><path fill="#E7F2F1" d="M 199.003906 317.136719 L 199.003906 366.296875 L 149.71875 366.296875 L 149.71875 317.136719 L 199.003906 317.136719"/><path fill="#B8D3CF" d="M 199.003906 267.976562 L 199.003906 317.136719 L 149.71875 317.136719 L 149.71875 267.976562 L 199.003906 267.976562"/><path fill="#B8D3CF" d="M 149.71875 415.460938 L 149.71875 464.601562 L 100.433594 464.601562 L 100.433594 415.460938 L 149.71875 415.460938"/><path fill="#E7F2F1" d="M 149.71875 366.296875 L 149.71875 415.460938 L 100.433594 415.460938 L 100.433594 366.296875 L 149.71875 366.296875"/><path fill="#B8D3CF" d="M 149.71875 317.136719 L 149.71875 366.296875 L 100.433594 366.296875 L 100.433594 317.136719 L 149.71875 317.136719"/><path fill="#E7F2F1" d="M 149.71875 267.976562 L 149.71875 317.136719 L 100.433594 317.136719 L 100.433594 267.976562 L 149.71875 267.976562"/><path fill="#1BABA6" d="M 643.296875 652.390625 C 669.484375 652.390625 690.8125 631.265625 690.96875 605.113281 C 690.8125 631.265625 669.484375 652.390625 643.296875 652.390625 M 643.082031 652.390625 C 643.082031 652.390625 643.0625 652.390625 643.0625 652.390625 C 643.0625 652.390625 643.082031 652.390625 643.082031 652.390625 M 643.042969 652.390625 C 643.042969 652.390625 643.023438 652.390625 643.023438 652.390625 C 643.023438 652.390625 643.042969 652.390625 643.042969 652.390625"/><path fill="#1BABA6" d="M 643.296875 652.390625 C 643.238281 652.390625 643.160156 652.390625 643.101562 652.390625 C 643.101562 652.390625 643.082031 652.390625 643.082031 652.390625 C 643.082031 652.390625 643.0625 652.390625 643.0625 652.390625 C 643.0625 652.390625 643.0625 652.390625 643.042969 652.390625 C 643.042969 652.390625 643.023438 652.390625 643.023438 652.390625 L 299.617188 652.390625 C 273.410156 652.234375 253.164062 629.015625 253.164062 602.898438 C 253.164062 602.804688 253.164062 602.6875 253.164062 602.589844 L 253.710938 508.851562 L 287.628906 508.851562 C 306.726562 508.851562 322.1875 493.394531 322.1875 474.289062 L 322.1875 286.773438 C 322.1875 286.773438 340.898438 290.539062 340.898438 330.691406 C 340.898438 370.84375 340.898438 513.375 340.898438 513.375 C 340.898438 513.375 345.308594 533.234375 322.1875 533.234375 L 322.1875 557.953125 C 322.1875 557.953125 330.890625 558.75 345.460938 558.75 C 419.554688 558.75 645.101562 538.246094 645.101562 288.597656 C 671.367188 288.789062 692.484375 310.011719 692.503906 336.105469 C 692.503906 336.222656 692.503906 336.320312 692.503906 336.417969 L 690.96875 605.113281 C 690.8125 631.265625 669.484375 652.390625 643.296875 652.390625"/><path fill="#C2DEDB" d="M 593.195312 405.597656 L 499.535156 405.597656 C 499.535156 395.519531 493.476562 386.878906 484.773438 383.09375 L 474.921875 351.523438 L 474.921875 317.136719 C 498.546875 317.136719 520.519531 322.300781 538.972656 331.253906 C 554.980469 338.960938 568.367188 349.542969 577.769531 361.96875 C 587.617188 374.839844 593.195312 389.753906 593.195312 405.597656"/><path fill="#C2DEDB" d="M 450.308594 405.597656 L 356.652344 405.597656 C 356.652344 389.753906 362.226562 374.839844 372.019531 361.96875 C 381.480469 349.542969 394.808594 339 410.757812 331.3125 C 429.210938 322.300781 451.242188 317.136719 474.921875 317.136719 L 474.921875 351.523438 L 465.074219 383.09375 C 456.371094 386.878906 450.308594 395.519531 450.308594 405.597656"/><path fill="#513F2E" d="M 499.535156 405.597656 L 450.308594 405.597656 C 450.308594 395.519531 456.371094 386.878906 465.074219 383.09375 C 468.066406 381.792969 471.445312 381.054688 474.921875 381.054688 C 478.402344 381.054688 481.78125 381.792969 484.773438 383.09375 C 493.476562 386.878906 499.535156 395.519531 499.535156 405.597656"/><path fill="#BD545A" d="M 484.773438 383.09375 C 481.78125 381.792969 478.402344 381.054688 474.921875 381.054688 C 471.445312 381.054688 468.066406 381.792969 465.074219 383.09375 L 474.921875 351.523438 L 484.773438 383.09375"/><path fill="#3A322B" d="M 110.359375 145.132812 L 287.648438 145.132812 L 287.648438 223.671875 L 110.359375 223.671875 Z M 105.386719 233.609375 L 292.621094 233.609375 C 295.359375 233.609375 297.59375 231.398438 297.59375 228.640625 L 297.59375 140.164062 C 297.59375 137.425781 295.359375 135.191406 292.621094 135.191406 L 105.386719 135.191406 C 102.628906 135.191406 100.414062 137.425781 100.414062 140.164062 L 100.414062 228.640625 C 100.414062 231.398438 102.628906 233.609375 105.386719 233.609375"/><path fill="#3A322B" d="M 253.242188 459.628906 L 253.242188 390.917969 L 282.714844 390.917969 L 282.714844 459.628906 Z M 105.425781 420.410156 L 144.746094 420.410156 L 144.746094 459.628906 L 105.425781 459.628906 Z M 144.746094 272.949219 L 144.746094 312.148438 L 105.425781 312.148438 L 105.425781 272.949219 Z M 282.714844 312.148438 L 253.242188 312.148438 L 253.242188 272.949219 L 282.714844 272.949219 Z M 253.242188 322.089844 L 282.714844 322.089844 L 282.714844 380.976562 L 253.242188 380.976562 Z M 203.976562 420.410156 L 243.296875 420.410156 L 243.296875 459.628906 L 203.976562 459.628906 Z M 194.03125 420.410156 L 194.03125 459.628906 L 154.691406 459.628906 L 154.691406 420.410156 Z M 154.691406 371.269531 L 194.03125 371.269531 L 194.03125 410.46875 L 154.691406 410.46875 Z M 105.425781 371.269531 L 144.746094 371.269531 L 144.746094 410.46875 L 105.425781 410.46875 Z M 144.746094 361.328125 L 105.425781 361.328125 L 105.425781 322.089844 L 144.746094 322.089844 Z M 194.03125 322.089844 L 194.03125 361.328125 L 154.691406 361.328125 L 154.691406 322.089844 Z M 194.03125 312.148438 L 154.691406 312.148438 L 154.691406 272.949219 L 194.03125 272.949219 Z M 203.976562 312.148438 L 203.976562 272.949219 L 243.296875 272.949219 L 243.296875 312.148438 Z M 243.296875 361.328125 L 203.976562 361.328125 L 203.976562 322.089844 L 243.296875 322.089844 Z M 243.296875 410.46875 L 203.976562 410.46875 L 203.976562 371.269531 L 243.296875 371.269531 Z M 292.660156 464.601562 L 292.660156 267.976562 C 292.660156 265.21875 290.445312 263.007812 287.6875 263.007812 L 100.453125 263.007812 C 97.710938 263.007812 95.476562 265.21875 95.476562 267.976562 L 95.476562 464.601562 C 95.476562 467.359375 97.710938 469.570312 100.453125 469.570312 L 287.6875 469.570312 C 290.445312 469.570312 292.660156 467.359375 292.660156 464.601562"/><g clip-path="url(#a)"><path fill="#3A322B" d="M 685.976562 605.09375 C 685.839844 628.488281 666.703125 647.421875 643.277344 647.421875 L 299.652344 647.421875 C 288.484375 647.363281 278.011719 642.566406 270.144531 633.945312 C 262.453125 625.5 258.0625 614.082031 258.121094 602.628906 L 258.644531 513.820312 L 287.609375 513.820312 C 309.40625 513.820312 327.144531 496.074219 327.144531 474.289062 L 327.144531 291.761719 L 645.101562 293.605469 C 668.628906 293.742188 687.667969 312.945312 687.53125 336.398438 Z M 80.792969 474.289062 L 80.792969 150.140625 C 80.792969 133.832031 94.058594 120.550781 110.398438 120.550781 L 287.609375 120.550781 C 303.929688 120.550781 317.195312 133.832031 317.195312 150.140625 L 317.195312 474.289062 C 317.195312 490.597656 303.929688 503.878906 287.609375 503.878906 L 110.398438 503.878906 C 94.058594 503.878906 80.792969 490.597656 80.792969 474.289062 Z M 645.160156 283.664062 L 327.144531 281.820312 L 327.144531 150.140625 C 327.144531 128.339844 309.40625 110.613281 287.609375 110.613281 L 110.398438 110.613281 C 88.582031 110.613281 70.84375 128.339844 70.84375 150.140625 L 70.84375 474.289062 C 70.84375 496.074219 88.582031 513.820312 110.398438 513.820312 L 248.699219 513.820312 L 248.171875 602.570312 C 248.113281 616.492188 253.4375 630.375 262.78125 640.644531 C 272.554688 651.34375 285.628906 657.285156 299.617188 657.363281 L 643.296875 657.363281 C 672.164062 657.363281 695.746094 634.003906 695.921875 605.152344 L 697.476562 336.476562 C 697.632812 307.507812 674.164062 283.820312 645.160156 283.664062"/></g><path fill="#3A322B" d="M 504.082031 400.644531 C 502.527344 391.519531 496.796875 383.8125 488.890625 379.578125 L 479.683594 350.046875 C 479.023438 347.988281 477.097656 346.570312 474.921875 346.570312 C 472.746094 346.570312 470.824219 347.988281 470.183594 350.046875 L 460.957031 379.558594 C 453.066406 383.8125 447.335938 391.519531 445.761719 400.644531 L 361.839844 400.644531 C 362.734375 389.597656 366.558594 379.132812 372.71875 369.65625 L 387.65625 384.550781 C 388.628906 385.519531 389.890625 386.003906 391.15625 386.003906 C 392.4375 386.003906 393.71875 385.519531 394.691406 384.550781 C 396.632812 382.609375 396.632812 379.460938 394.671875 377.519531 L 378.761719 361.640625 C 386.707031 352.222656 397.117188 344.105469 409.320312 337.679688 L 421.636719 354.472656 C 422.605469 355.8125 424.121094 356.511719 425.65625 356.511719 C 426.667969 356.511719 427.714844 356.203125 428.589844 355.542969 C 430.804688 353.929688 431.289062 350.804688 429.660156 348.589844 L 418.46875 333.332031 C 433.757812 326.808594 451.261719 322.886719 469.949219 322.28125 L 469.949219 336.785156 C 469.949219 339.542969 472.183594 341.757812 474.921875 341.757812 C 477.679688 341.757812 479.894531 339.542969 479.894531 336.785156 L 479.894531 322.28125 C 498.566406 322.886719 516.050781 326.808594 531.320312 333.3125 L 520.089844 348.589844 C 518.476562 350.804688 518.945312 353.929688 521.160156 355.542969 C 522.050781 356.203125 523.082031 356.511719 524.09375 356.511719 C 525.628906 356.511719 527.140625 355.8125 528.113281 354.472656 L 540.46875 337.640625 C 552.707031 344.066406 563.121094 352.203125 571.085938 361.621094 L 555.15625 377.519531 C 553.214844 379.460938 553.214844 382.609375 555.15625 384.550781 C 556.128906 385.519531 557.390625 386.003906 558.671875 386.003906 C 559.933594 386.003906 561.21875 385.519531 562.167969 384.550781 L 577.128906 369.636719 C 583.285156 379.132812 587.132812 389.597656 588.007812 400.644531 Z M 472.4375 376.179688 L 474.921875 368.222656 L 477.429688 376.179688 C 476.59375 376.125 475.757812 376.066406 474.921875 376.066406 C 474.085938 376.066406 473.253906 376.125 472.4375 376.179688 Z M 474.921875 386.003906 C 484.035156 386.003906 491.648438 392.238281 493.863281 400.644531 L 455.980469 400.644531 C 458.214844 392.238281 465.8125 386.003906 474.921875 386.003906 Z M 581.304688 358.453125 L 581.167969 358.359375 C 559.742188 330.75 520.148438 312.148438 474.921875 312.148438 C 450.679688 312.148438 428.066406 317.527344 408.96875 326.730469 L 407.84375 327.253906 L 407.785156 327.3125 C 391.816406 335.214844 378.390625 345.855469 368.695312 358.339844 L 368.523438 358.453125 L 367.9375 359.328125 C 357.625 372.996094 351.699219 388.78125 351.699219 405.617188 C 351.699219 408.371094 353.914062 410.585938 356.671875 410.585938 L 593.175781 410.585938 C 595.933594 410.585938 598.148438 408.371094 598.148438 405.617188 C 598.148438 388.703125 592.164062 372.84375 581.769531 359.132812 L 581.304688 358.453125"/></svg>