<svg xmlns="http://www.w3.org/2000/svg" width="768" viewBox="0 0 768 768" height="768" version="1.0"><defs><clipPath id="a"><path d="M 115.59375 82.421875 L 652.59375 82.421875 L 652.59375 685.417969 L 115.59375 685.417969 Z M 115.59375 82.421875"/></clipPath></defs><path fill="#FFF" d="M-76.8 -76.8H844.8000000000001V844.8000000000001H-76.8z"/><path fill="#FFF" d="M-76.8 -76.8H844.8000000000001V844.8000000000001H-76.8z"/><path d="M-76.8 -76.8H844.8000000000001V844.8000000000001H-76.8z"/><path fill="#FBB03B" d="M 590.6875 417.308594 C 590.6875 417.308594 590.6875 417.324219 590.6875 417.34375 C 590.6875 454.941406 580.617188 490.171875 563.0625 520.542969 C 544.933594 551.871094 518.792969 577.996094 487.460938 596.136719 C 457.074219 613.714844 421.804688 623.796875 384.167969 623.816406 L 384.09375 623.816406 C 346.457031 623.816406 311.1875 613.75 280.796875 596.171875 C 249.449219 578.050781 223.308594 551.925781 205.160156 520.613281 C 187.570312 490.242188 177.5 454.976562 177.5 417.378906 C 177.5 417.363281 177.5 417.34375 177.5 417.34375 C 177.5 379.746094 187.550781 344.5 205.125 314.128906 C 223.253906 282.800781 249.394531 256.675781 280.726562 238.535156 L 384.09375 417.34375 L 384.09375 210.875 C 421.734375 210.875 457 220.917969 487.390625 238.496094 C 518.738281 256.621094 544.878906 282.746094 563.027344 314.074219 C 580.601562 344.425781 590.6875 379.691406 590.6875 417.308594"/><path fill="#FFF" d="M 399.242188 424.972656 C 405.023438 421.199219 405.976562 412.433594 401.371094 405.390625 C 396.769531 398.351562 302.957031 273.640625 301.164062 274.886719 C 299.375 276.132812 375.839844 412.019531 380.441406 419.058594 C 385.046875 426.097656 393.460938 428.75 399.242188 424.972656"/><path fill="#FFF" d="M 289.824219 246.007812 C 285.808594 248.328125 284.433594 253.464844 286.757812 257.476562 C 289.078125 261.488281 294.214844 262.859375 298.230469 260.539062 C 302.242188 258.21875 303.617188 253.085938 301.296875 249.074219 C 298.976562 245.0625 293.835938 243.6875 289.824219 246.007812 Z M 220.941406 314.9375 C 218.625 318.953125 220.003906 324.082031 224.019531 326.398438 C 228.039062 328.714844 233.171875 327.335938 235.488281 323.320312 C 237.804688 319.304688 236.425781 314.175781 232.410156 311.859375 C 228.390625 309.542969 223.257812 310.921875 220.941406 314.9375 Z M 195.765625 409.046875 C 195.769531 413.683594 199.53125 417.441406 204.167969 417.4375 C 208.804688 417.433594 212.5625 413.675781 212.5625 409.039062 C 212.558594 404.40625 208.796875 400.648438 204.160156 400.652344 C 199.519531 400.652344 195.761719 404.414062 195.765625 409.046875 Z M 221.042969 503.132812 C 223.363281 507.144531 228.5 508.519531 232.515625 506.199219 C 236.53125 503.878906 237.90625 498.746094 235.582031 494.734375 C 233.261719 490.71875 228.125 489.347656 224.109375 491.667969 C 220.09375 493.984375 218.71875 499.117188 221.042969 503.132812 Z M 289.996094 571.984375 C 294.015625 574.300781 299.152344 572.921875 301.46875 568.910156 C 303.785156 564.894531 302.40625 559.761719 298.390625 557.445312 C 294.371094 555.128906 289.234375 556.507812 286.917969 560.519531 C 284.601562 564.539062 285.980469 569.667969 289.996094 571.984375 Z M 384.160156 597.164062 C 388.800781 597.160156 392.558594 593.402344 392.554688 588.765625 C 392.554688 584.128906 388.792969 580.375 384.15625 580.375 C 379.515625 580.378906 375.761719 584.136719 375.761719 588.773438 C 375.761719 593.40625 379.523438 597.164062 384.160156 597.164062 Z M 478.304688 571.917969 C 482.324219 569.597656 483.699219 564.464844 481.375 560.453125 C 479.058594 556.4375 473.921875 555.0625 469.90625 557.382812 C 465.886719 559.703125 464.511719 564.835938 466.835938 568.851562 C 469.152344 572.863281 474.289062 574.234375 478.304688 571.917969 Z M 547.214844 503.015625 C 549.53125 499 548.152344 493.867188 544.136719 491.550781 C 540.121094 489.234375 534.984375 490.609375 532.664062 494.625 C 530.347656 498.640625 531.722656 503.773438 535.742188 506.089844 C 539.757812 508.40625 544.894531 507.027344 547.214844 503.015625 Z M 572.421875 408.910156 C 572.421875 404.277344 568.660156 400.519531 564.023438 400.519531 C 559.386719 400.519531 555.625 404.28125 555.625 408.917969 C 555.628906 413.550781 559.386719 417.308594 564.027344 417.304688 C 568.664062 417.304688 572.421875 413.550781 572.421875 408.910156 Z M 547.179688 314.820312 C 544.859375 310.804688 539.722656 309.429688 535.707031 311.75 C 531.691406 314.066406 530.316406 319.199219 532.632812 323.214844 C 534.953125 327.226562 540.089844 328.605469 544.109375 326.285156 C 548.125 323.964844 549.5 318.832031 547.179688 314.820312 Z M 478.25 245.941406 C 474.230469 243.625 469.09375 245 466.777344 249.015625 C 464.457031 253.027344 465.835938 258.160156 469.851562 260.480469 C 473.867188 262.796875 479.003906 261.421875 481.324219 257.40625 C 483.640625 253.390625 482.265625 248.257812 478.25 245.941406 Z M 384.09375 220.730469 C 379.457031 220.730469 375.695312 224.488281 375.695312 229.125 C 375.695312 233.761719 379.457031 237.519531 384.09375 237.519531 C 388.730469 237.519531 392.492188 233.761719 392.492188 229.125 C 392.492188 224.488281 388.730469 220.730469 384.09375 220.730469 Z M 384.15625 417.4375 Z M 384.15625 417.4375 Z M 384.15625 417.4375 Z M 384.15625 417.4375 Z M 384.15625 417.4375 Z M 384.15625 417.4375 Z M 384.15625 417.4375 Z M 384.15625 417.4375 Z M 384.15625 417.4375 Z M 384.15625 417.4375 Z M 384.15625 417.4375 L 384.15625 417.554688 Z M 384.15625 417.4375 Z M 384.15625 417.4375 Z M 384.15625 417.4375 Z M 384.15625 417.4375"/><g clip-path="url(#a)"><path fill="#FFF" d="M 552.660156 585.804688 C 507.632812 630.804688 447.773438 655.589844 384.09375 655.589844 C 320.414062 655.589844 260.546875 630.804688 215.527344 585.804688 C 170.496094 540.808594 145.703125 480.980469 145.703125 417.339844 C 145.703125 353.703125 170.496094 293.875 215.527344 248.871094 C 260.546875 203.878906 320.414062 179.09375 384.09375 179.09375 C 447.773438 179.09375 507.632812 203.878906 552.660156 248.871094 C 597.691406 293.875 622.484375 353.703125 622.484375 417.339844 C 622.484375 480.980469 597.691406 540.808594 552.660156 585.804688 Z M 631.25 312.988281 C 619.046875 284.148438 602.070312 257.984375 580.753906 235.050781 C 580.863281 235.167969 580.976562 235.285156 581.085938 235.402344 C 581.167969 235.324219 581.257812 235.257812 581.339844 235.175781 L 594.175781 222.34375 L 604.027344 232.191406 C 605.074219 233.234375 606.769531 233.234375 607.8125 232.191406 L 614.675781 225.332031 C 619.128906 220.882812 619.128906 213.664062 614.675781 209.214844 L 592.34375 186.898438 C 587.890625 182.445312 580.667969 182.445312 576.21875 186.898438 L 569.355469 193.753906 C 568.308594 194.800781 568.308594 196.492188 569.355469 197.535156 L 579.207031 207.382812 L 566.367188 220.210938 C 566.289062 220.292969 566.21875 220.382812 566.140625 220.46875 C 566.25 220.566406 566.359375 220.675781 566.46875 220.777344 C 543.527344 199.480469 517.351562 182.523438 488.511719 170.332031 C 460.734375 158.589844 431.511719 151.707031 401.421875 149.804688 L 401.421875 121.324219 L 424.222656 121.324219 C 426.644531 121.324219 428.605469 119.367188 428.605469 116.949219 L 428.605469 101.074219 C 428.605469 90.773438 420.25 82.421875 409.941406 82.421875 L 358.246094 82.421875 C 347.9375 82.421875 339.582031 90.773438 339.582031 101.074219 L 339.582031 116.949219 C 339.582031 119.367188 341.542969 121.324219 343.964844 121.324219 L 366.765625 121.324219 L 366.765625 149.804688 C 336.675781 151.707031 307.453125 158.589844 279.675781 170.332031 C 247.734375 183.832031 219.050781 203.164062 194.421875 227.777344 C 169.785156 252.394531 150.449219 281.0625 136.9375 312.988281 C 122.945312 346.046875 115.847656 381.160156 115.847656 417.339844 C 115.847656 453.523438 122.945312 488.628906 136.9375 521.695312 C 150.449219 553.617188 169.785156 582.285156 194.421875 606.902344 C 219.050781 631.515625 247.734375 650.84375 279.675781 664.34375 C 312.757812 678.328125 347.886719 685.417969 384.09375 685.417969 C 420.300781 685.417969 455.429688 678.328125 488.511719 664.34375 C 520.453125 650.84375 549.136719 631.515625 573.765625 606.902344 C 598.394531 582.285156 617.738281 553.617188 631.25 521.695312 C 645.242188 488.628906 652.335938 453.523438 652.335938 417.339844 C 652.335938 381.160156 645.242188 346.046875 631.25 312.988281"/></g></svg>