<svg xmlns="http://www.w3.org/2000/svg" width="768" viewBox="0 0 768 768" height="768" version="1.0"><defs><clipPath id="a"><path d="M 87.484375 87.484375 L 228 87.484375 L 228 680.734375 L 87.484375 680.734375 Z M 87.484375 87.484375"/></clipPath><clipPath id="b"><path d="M 87.484375 541 L 680.734375 541 L 680.734375 680.734375 L 87.484375 680.734375 Z M 87.484375 541"/></clipPath><clipPath id="c"><path d="M 575 437 L 680.734375 437 L 680.734375 473 L 575 473 Z M 575 437"/></clipPath><clipPath id="d"><path d="M 627 437 L 680.734375 437 L 680.734375 473 L 627 473 Z M 627 437"/></clipPath><clipPath id="e"><path d="M 575 124 L 680.734375 124 L 680.734375 160 L 575 160 Z M 575 124"/></clipPath><clipPath id="f"><path d="M 627 124 L 680.734375 124 L 680.734375 160 L 627 160 Z M 627 124"/></clipPath></defs><path fill="#FFF" d="M-76.8 -76.8H844.8000000000001V844.8000000000001H-76.8z"/><path fill="#FFF" d="M-76.8 -76.8H844.8000000000001V844.8000000000001H-76.8z"/><path d="M-76.8 -76.8H844.8000000000001V844.8000000000001H-76.8z"/><path fill="#4BB9EC" d="M 575.292969 200.722656 L 575.292969 396.007812 L 418.867188 474.21875 L 262.445312 396.007812 L 262.445312 200.722656 Z M 575.292969 200.722656"/><path fill="#0095FF" d="M 575.292969 200.722656 L 575.292969 396.007812 L 418.867188 474.21875 L 418.867188 200.722656 Z M 575.292969 200.722656"/><path fill="#465A61" d="M 610.050781 454.789062 L 644.8125 454.789062 L 644.8125 141.941406 L 610.050781 141.941406 Z M 610.050781 454.789062"/><path fill="#3B4A51" d="M 627.433594 454.789062 L 644.8125 454.789062 L 644.8125 141.941406 L 627.433594 141.941406 Z M 627.433594 454.789062"/><g clip-path="url(#a)"><path fill="#FFDA2D" d="M 227.683594 194.269531 L 158.164062 210.304688 L 227.683594 228.4375 L 227.683594 263.792969 L 158.164062 279.824219 L 227.683594 297.960938 L 227.683594 333.335938 L 158.164062 350.507812 L 227.683594 367.507812 L 227.683594 402.859375 L 158.164062 420.027344 L 227.683594 437.027344 L 227.683594 472.378906 L 158.164062 489.550781 L 227.683594 506.550781 L 227.683594 541.691406 L 175.542969 617.585938 L 87.484375 680.734375 L 87.484375 87.484375 L 227.683594 87.484375 Z M 227.683594 194.269531"/></g><g clip-path="url(#b)"><path fill="#FDBF00" d="M 680.734375 541.691406 L 680.734375 680.734375 L 87.484375 680.734375 L 227.683594 541.691406 L 262.445312 541.691406 L 278.667969 611.210938 L 297.207031 541.691406 L 331.96875 541.691406 L 349.347656 611.210938 L 366.726562 541.691406 L 401.488281 541.691406 L 418.867188 611.210938 L 436.25 541.691406 L 471.007812 541.691406 L 488.390625 611.210938 L 505.769531 541.691406 Z M 680.734375 541.691406"/></g><path fill="#76E2F8" d="M 575.292969 200.722656 L 418.867188 280.984375 L 262.445312 200.722656 L 418.867188 122.507812 Z M 575.292969 200.722656"/><path fill="#FF9100" d="M 262.445312 611.210938 L 297.207031 611.210938 L 297.207031 541.691406 L 262.445312 541.691406 Z M 262.445312 611.210938"/><path fill="#FF9100" d="M 331.96875 611.210938 L 366.726562 611.210938 L 366.726562 541.691406 L 331.96875 541.691406 Z M 331.96875 611.210938"/><path fill="#FF9100" d="M 401.488281 611.210938 L 436.25 611.210938 L 436.25 541.691406 L 401.488281 541.691406 Z M 401.488281 611.210938"/><path fill="#FF9100" d="M 471.007812 611.210938 L 505.769531 611.210938 L 505.769531 541.691406 L 471.007812 541.691406 Z M 471.007812 611.210938"/><path fill="#FF9100" d="M 540.53125 611.210938 L 575.292969 611.210938 L 575.292969 541.691406 L 540.53125 541.691406 Z M 540.53125 611.210938"/><path fill="#FDBF00" d="M 158.164062 506.929688 L 227.683594 506.929688 L 227.683594 472.167969 L 158.164062 472.167969 Z M 158.164062 506.929688"/><path fill="#FDBF00" d="M 158.164062 437.40625 L 227.683594 437.40625 L 227.683594 402.648438 L 158.164062 402.648438 Z M 158.164062 437.40625"/><path fill="#FDBF00" d="M 158.164062 367.886719 L 227.683594 367.886719 L 227.683594 333.125 L 158.164062 333.125 Z M 158.164062 367.886719"/><path fill="#FDBF00" d="M 158.164062 298.363281 L 227.683594 298.363281 L 227.683594 263.605469 L 158.164062 263.605469 Z M 158.164062 298.363281"/><path fill="#FDBF00" d="M 158.164062 228.84375 L 227.683594 228.84375 L 227.683594 194.082031 L 158.164062 194.082031 Z M 158.164062 228.84375"/><g clip-path="url(#c)"><path fill="#596C76" d="M 575.292969 472.167969 L 680.734375 472.167969 L 680.734375 437.40625 L 575.292969 437.40625 Z M 575.292969 472.167969"/></g><g clip-path="url(#d)"><path fill="#465A61" d="M 627.433594 472.167969 L 680.734375 472.167969 L 680.734375 437.40625 L 627.433594 437.40625 Z M 627.433594 472.167969"/></g><g clip-path="url(#e)"><path fill="#596C76" d="M 575.292969 159.320312 L 680.734375 159.320312 L 680.734375 124.5625 L 575.292969 124.5625 Z M 575.292969 159.320312"/></g><path fill="#4BB9EC" d="M 575.292969 200.722656 L 418.867188 280.984375 L 418.867188 122.507812 Z M 575.292969 200.722656"/><g clip-path="url(#f)"><path fill="#465A61" d="M 627.433594 159.320312 L 680.734375 159.320312 L 680.734375 124.5625 L 627.433594 124.5625 Z M 627.433594 159.320312"/></g></svg>