<svg xmlns="http://www.w3.org/2000/svg" xmlns:xlink="http://www.w3.org/1999/xlink" width="375" viewBox="0 0 375 375" height="375" version="1.0"><defs><g id="b"><path d="M 10.875 0.5 L 8.1875 -6.21875 L 5.046875 0.515625 L 0.5 -11.25 L 3.109375 -11.25 L 5.34375 -4.6875 L 7.0625 -9.015625 L 6.171875 -11.25 L 8.390625 -11.25 L 10.921875 -4.953125 L 12.84375 -11.25 L 15.25 -11.25 Z M 10.875 0.5"/></g><g id="c"><path d="M 9.1875 -11.328125 L 9.1875 -9.171875 L 3.6875 -9.171875 L 3.6875 -6.75 L 8.5625 -6.75 L 8.5625 -4.609375 L 3.6875 -4.609375 L 3.6875 -2.15625 L 9.40625 -2.15625 L 9.40625 0 L 1.46875 0 L 1.46875 -11.328125 Z M 9.1875 -11.328125"/></g><g id="d"><path d="M 7.296875 -5.96875 C 7.890625 -5.695312 8.351562 -5.335938 8.6875 -4.890625 C 9.019531 -4.441406 9.1875 -3.925781 9.1875 -3.34375 C 9.1875 -2.1875 8.804688 -1.335938 8.046875 -0.796875 C 7.296875 -0.265625 6.359375 0 5.234375 0 L 1.46875 0 L 1.46875 -11.328125 L 4.78125 -11.328125 C 5.988281 -11.328125 6.9375 -11.082031 7.625 -10.59375 C 8.3125 -10.101562 8.65625 -9.398438 8.65625 -8.484375 C 8.65625 -7.921875 8.535156 -7.425781 8.296875 -7 C 8.054688 -6.570312 7.722656 -6.226562 7.296875 -5.96875 Z M 3.6875 -6.6875 L 5.046875 -6.6875 C 5.453125 -6.6875 5.769531 -6.8125 6 -7.0625 C 6.226562 -7.320312 6.34375 -7.632812 6.34375 -8 C 6.34375 -8.382812 6.210938 -8.675781 5.953125 -8.875 C 5.703125 -9.070312 5.347656 -9.171875 4.890625 -9.171875 L 3.6875 -9.171875 Z M 5.125 -2.078125 C 5.644531 -2.078125 6.066406 -2.179688 6.390625 -2.390625 C 6.710938 -2.597656 6.875 -2.914062 6.875 -3.34375 C 6.875 -4.144531 6.238281 -4.546875 4.96875 -4.546875 L 3.6875 -4.546875 L 3.6875 -2.078125 Z M 5.125 -2.078125"/></g><g id="e"><path d="M 8.328125 -11.328125 L 8.328125 -9.171875 L 5.578125 -9.171875 L 5.578125 0 L 3.34375 0 L 3.34375 -9.171875 L 0.6875 -9.171875 L 0.6875 -11.328125 Z M 8.328125 -11.328125"/></g><g id="f"><path d="M 0.765625 -5.640625 C 0.765625 -6.671875 1.023438 -7.628906 1.546875 -8.515625 C 2.066406 -9.410156 2.769531 -10.125 3.65625 -10.65625 C 4.539062 -11.1875 5.503906 -11.453125 6.546875 -11.453125 C 7.578125 -11.453125 8.535156 -11.1875 9.421875 -10.65625 C 10.316406 -10.125 11.023438 -9.410156 11.546875 -8.515625 C 12.078125 -7.628906 12.34375 -6.671875 12.34375 -5.640625 C 12.34375 -4.597656 12.078125 -3.632812 11.546875 -2.75 C 11.023438 -1.875 10.316406 -1.175781 9.421875 -0.65625 C 8.535156 -0.132812 7.578125 0.125 6.546875 0.125 C 5.492188 0.125 4.523438 -0.132812 3.640625 -0.65625 C 2.765625 -1.175781 2.066406 -1.875 1.546875 -2.75 C 1.023438 -3.632812 0.765625 -4.597656 0.765625 -5.640625 Z M 3.078125 -5.640625 C 3.078125 -4.984375 3.234375 -4.378906 3.546875 -3.828125 C 3.859375 -3.273438 4.285156 -2.835938 4.828125 -2.515625 C 5.367188 -2.191406 5.96875 -2.03125 6.625 -2.03125 C 7.257812 -2.03125 7.835938 -2.191406 8.359375 -2.515625 C 8.878906 -2.835938 9.285156 -3.269531 9.578125 -3.8125 C 9.878906 -4.363281 10.03125 -4.972656 10.03125 -5.640625 C 10.03125 -6.328125 9.875 -6.945312 9.5625 -7.5 C 9.257812 -8.050781 8.84375 -8.488281 8.3125 -8.8125 C 7.789062 -9.132812 7.207031 -9.296875 6.5625 -9.296875 C 5.914062 -9.296875 5.328125 -9.132812 4.796875 -8.8125 C 4.265625 -8.488281 3.84375 -8.050781 3.53125 -7.5 C 3.226562 -6.945312 3.078125 -6.328125 3.078125 -5.640625 Z M 3.078125 -5.640625"/></g><g id="g"><path d="M 3.6875 -11.328125 L 3.6875 -2.15625 L 9.015625 -2.15625 L 9.015625 0 L 1.46875 0 L 1.46875 -11.328125 Z M 3.6875 -11.328125"/></g><g id="h"><path d="M 7.515625 -8.59375 C 6.523438 -9.132812 5.664062 -9.40625 4.9375 -9.40625 C 4.445312 -9.40625 4.066406 -9.304688 3.796875 -9.109375 C 3.523438 -8.910156 3.390625 -8.617188 3.390625 -8.234375 C 3.390625 -7.878906 3.585938 -7.5625 3.984375 -7.28125 C 4.378906 -7.007812 4.90625 -6.753906 5.5625 -6.515625 C 6.09375 -6.316406 6.546875 -6.09375 6.921875 -5.84375 C 7.304688 -5.59375 7.625 -5.242188 7.875 -4.796875 C 8.125 -4.359375 8.25 -3.800781 8.25 -3.125 C 8.25 -2.539062 8.097656 -2 7.796875 -1.5 C 7.492188 -1 7.050781 -0.601562 6.46875 -0.3125 C 5.882812 -0.0195312 5.1875 0.125 4.375 0.125 C 3.695312 0.125 3.023438 0.0234375 2.359375 -0.171875 C 1.691406 -0.378906 1.070312 -0.6875 0.5 -1.09375 L 1.484375 -2.828125 C 1.867188 -2.546875 2.3125 -2.3125 2.8125 -2.125 C 3.320312 -1.9375 3.773438 -1.84375 4.171875 -1.84375 C 4.640625 -1.84375 5.046875 -1.941406 5.390625 -2.140625 C 5.742188 -2.347656 5.921875 -2.675781 5.921875 -3.125 C 5.921875 -3.707031 5.375 -4.210938 4.28125 -4.640625 C 3.632812 -4.898438 3.09375 -5.144531 2.65625 -5.375 C 2.226562 -5.613281 1.859375 -5.953125 1.546875 -6.390625 C 1.234375 -6.835938 1.078125 -7.394531 1.078125 -8.0625 C 1.078125 -9.039062 1.394531 -9.828125 2.03125 -10.421875 C 2.675781 -11.015625 3.535156 -11.335938 4.609375 -11.390625 C 5.441406 -11.390625 6.140625 -11.289062 6.703125 -11.09375 C 7.273438 -10.90625 7.828125 -10.640625 8.359375 -10.296875 Z M 7.515625 -8.59375"/></g><g id="i"><path d="M 49.59375 2.25 L 37.328125 -28.34375 L 23.015625 2.390625 L 2.25 -51.28125 L 14.171875 -51.28125 L 24.34375 -21.390625 L 32.203125 -41.109375 L 28.125 -51.28125 L 38.234375 -51.28125 L 49.8125 -22.59375 L 58.578125 -51.28125 L 69.53125 -51.28125 Z M 49.59375 2.25"/></g><g id="j"><path d="M 37.953125 -51.640625 L 37.953125 -41.8125 L 25.390625 -41.8125 L 25.390625 0 L 15.21875 0 L 15.21875 -41.8125 L 3.15625 -41.8125 L 3.15625 -51.640625 Z M 37.953125 -51.640625"/></g><clipPath id="a"><path d="M 59.78125 56.371094 L 314.03125 56.371094 L 314.03125 310.621094 L 59.78125 310.621094 Z M 59.78125 56.371094"/></clipPath></defs><g clip-path="url(#a)"><path d="M 186.90625 310.621094 C 116.8125 310.621094 59.78125 253.59375 59.78125 183.496094 C 59.78125 113.398438 116.8125 56.371094 186.90625 56.371094 C 257.003906 56.371094 314.03125 113.398438 314.03125 183.496094 C 314.03125 253.59375 257.003906 310.621094 186.90625 310.621094 Z M 186.90625 58.625 C 118.054688 58.625 62.035156 114.640625 62.035156 183.496094 C 62.035156 252.351562 118.054688 308.367188 186.90625 308.367188 C 255.761719 308.367188 311.777344 252.351562 311.777344 183.496094 C 311.777344 114.640625 255.761719 58.625 186.90625 58.625 Z M 186.90625 58.625"/></g><g><use x="141.946" y="191.728" xmlns:xlink="http://www.w3.org/1999/xlink" xlink:href="#b" xlink:type="simple" xlink:actuate="onLoad" xlink:show="embed"/></g><g><use x="157.684" y="191.728" xmlns:xlink="http://www.w3.org/1999/xlink" xlink:href="#c" xlink:type="simple" xlink:actuate="onLoad" xlink:show="embed"/></g><g><use x="167.93" y="191.728" xmlns:xlink="http://www.w3.org/1999/xlink" xlink:href="#d" xlink:type="simple" xlink:actuate="onLoad" xlink:show="embed"/></g><g><use x="177.883" y="191.728" xmlns:xlink="http://www.w3.org/1999/xlink" xlink:href="#e" xlink:type="simple" xlink:actuate="onLoad" xlink:show="embed"/></g><g><use x="186.899" y="191.728" xmlns:xlink="http://www.w3.org/1999/xlink" xlink:href="#f" xlink:type="simple" xlink:actuate="onLoad" xlink:show="embed"/></g><g><use x="200.006" y="191.728" xmlns:xlink="http://www.w3.org/1999/xlink" xlink:href="#f" xlink:type="simple" xlink:actuate="onLoad" xlink:show="embed"/></g><g><use x="213.113" y="191.728" xmlns:xlink="http://www.w3.org/1999/xlink" xlink:href="#g" xlink:type="simple" xlink:actuate="onLoad" xlink:show="embed"/></g><g><use x="222.975" y="191.728" xmlns:xlink="http://www.w3.org/1999/xlink" xlink:href="#h" xlink:type="simple" xlink:actuate="onLoad" xlink:show="embed"/></g><g><use x="151.056" y="158.708" xmlns:xlink="http://www.w3.org/1999/xlink" xlink:href="#i" xlink:type="simple" xlink:actuate="onLoad" xlink:show="embed"/></g><g><use x="166.399" y="268.372" xmlns:xlink="http://www.w3.org/1999/xlink" xlink:href="#j" xlink:type="simple" xlink:actuate="onLoad" xlink:show="embed"/></g><path stroke-linecap="round" transform="matrix(.75325 0 0 .88889 143.644 166.1)" fill="none" d="M 0.499005 -0.00215645 L 115.003324 -0.00215645" stroke="#000"/><path stroke-linecap="round" transform="matrix(.75325 0 0 .88889 143.266 209.468)" fill="none" d="M 0.497553 0.000530725 L 115.001872 0.000530725" stroke="#000"/></svg>