<svg xmlns="http://www.w3.org/2000/svg" width="768" viewBox="0 0 768 768" height="768" version="1.0"><defs><clipPath id="a"><path d="M 148 350 L 300 350 L 300 683.886719 L 148 683.886719 Z M 148 350"/></clipPath><clipPath id="b"><path d="M 265 416 L 441 416 L 441 683.886719 L 265 683.886719 Z M 265 416"/></clipPath><clipPath id="c"><path d="M 165 83.886719 L 379 83.886719 L 379 297 L 165 297 Z M 165 83.886719"/></clipPath></defs><path fill="#FFF" d="M-76.8 -76.8H844.8000000000001V844.8000000000001H-76.8z"/><path fill="#FFF" d="M-76.8 -76.8H844.8000000000001V844.8000000000001H-76.8z"/><path d="M-76.8 -76.8H844.8000000000001V844.8000000000001H-76.8z"/><path fill="#FFF" d="M 292.527344 492.871094 C 288.941406 492.871094 286.035156 489.964844 286.035156 486.378906 L 286.035156 315.894531 C 286.035156 312.308594 288.941406 309.402344 292.527344 309.402344 C 296.113281 309.402344 299.019531 312.308594 299.019531 315.894531 L 299.019531 486.378906 C 299.019531 489.964844 296.113281 492.871094 292.527344 492.871094"/><path fill="#FFF" d="M 613.269531 621.519531 L 371.628906 621.519531 C 368.042969 621.519531 365.136719 618.613281 365.136719 615.027344 C 365.136719 611.441406 368.042969 608.535156 371.628906 608.535156 L 606.777344 608.535156 L 606.777344 178.152344 L 399.449219 178.152344 C 395.863281 178.152344 392.957031 175.246094 392.957031 171.660156 C 392.957031 168.074219 395.863281 165.167969 399.449219 165.167969 L 613.269531 165.167969 C 616.855469 165.167969 619.761719 168.074219 619.761719 171.660156 L 619.761719 615.027344 C 619.761719 618.613281 616.855469 621.519531 613.269531 621.519531"/><path fill="#FFF" d="M 568.269531 273.964844 L 373.152344 273.964844 C 369.566406 273.964844 366.660156 271.058594 366.660156 267.472656 C 366.660156 263.886719 369.566406 260.980469 373.152344 260.980469 L 561.777344 260.980469 L 561.777344 223.175781 L 396.777344 223.175781 C 393.191406 223.175781 390.285156 220.269531 390.285156 216.683594 C 390.285156 213.097656 393.191406 210.191406 396.777344 210.191406 L 568.269531 210.191406 C 571.855469 210.191406 574.761719 213.097656 574.761719 216.683594 L 574.761719 267.472656 C 574.761719 271.058594 571.855469 273.964844 568.269531 273.964844"/><path fill="#FFF" d="M 464.347656 415.246094 L 441.449219 415.246094 L 441.449219 402.261719 L 464.347656 402.261719 L 464.347656 415.246094"/><path fill="#FFF" d="M 525.027344 415.246094 L 502.128906 415.246094 L 502.128906 402.261719 L 525.027344 402.261719 L 525.027344 415.246094"/><path fill="#FFF" d="M 525.027344 468.941406 L 502.128906 468.941406 L 502.128906 455.957031 L 525.027344 455.957031 L 525.027344 468.941406"/><path fill="#FFF" d="M 464.347656 522.636719 L 441.449219 522.636719 L 441.449219 509.652344 L 464.347656 509.652344 L 464.347656 522.636719"/><path fill="#FFF" d="M 525.027344 522.636719 L 502.128906 522.636719 L 502.128906 509.652344 L 525.027344 509.652344 L 525.027344 522.636719"/><g clip-path="url(#a)"><path fill="#FFF" d="M 154.550781 683.886719 C 150.964844 683.886719 148.058594 680.980469 148.058594 677.394531 C 148.058594 610.339844 153.144531 580.644531 163.925781 533.207031 C 177.589844 472.949219 228.191406 388.527344 289.152344 351.589844 C 292.222656 349.714844 296.207031 350.699219 298.082031 353.769531 C 299.933594 356.839844 298.949219 360.824219 295.878906 362.699219 C 237.871094 397.855469 189.660156 478.457031 176.582031 536.066406 C 166.011719 582.542969 161.042969 611.652344 161.042969 677.394531 C 161.042969 680.980469 158.136719 683.886719 154.550781 683.886719"/></g><g clip-path="url(#b)"><path fill="#FFF" d="M 271.878906 683.886719 C 268.292969 683.886719 265.386719 681.003906 265.386719 677.417969 C 265.386719 658.175781 276.707031 641.160156 294.238281 634.011719 C 315.472656 625.386719 344.652344 605.511719 363.097656 559.621094 C 370.339844 541.527344 377.464844 527.230469 385.480469 514.644531 C 390.097656 507.378906 396.050781 499.128906 402.332031 490.410156 C 407.910156 482.652344 413.699219 474.613281 418.691406 467.042969 C 430.574219 448.949219 428.675781 442.480469 419.886719 434.746094 C 419.652344 434.582031 419.371094 434.347656 419.066406 434.066406 C 415.105469 430.855469 410.136719 429.402344 405.050781 429.988281 C 399.824219 430.597656 395.207031 433.269531 391.996094 437.488281 L 389.863281 440.324219 C 375.566406 459.144531 355.996094 484.925781 322.527344 509.558594 C 314.066406 515.816406 303.683594 515.699219 295.457031 509.253906 C 291.332031 506.042969 288.332031 501.121094 287.019531 495.425781 C 286.363281 492.613281 286.035156 490.152344 286.035156 488.089844 C 286.035156 484.503906 288.941406 481.597656 292.527344 481.597656 C 296.113281 481.597656 299.019531 484.503906 299.019531 488.089844 C 299.019531 488.699219 299.089844 490.058594 299.675781 492.496094 C 300.308594 495.308594 301.667969 497.628906 303.449219 499.035156 C 305.535156 500.652344 309.777344 502.832031 314.816406 499.105469 C 346.785156 475.574219 365.699219 450.660156 379.503906 432.472656 L 381.660156 429.636719 C 386.980469 422.582031 394.761719 418.128906 403.550781 417.097656 C 412.246094 416.066406 420.777344 418.597656 427.503906 424.199219 C 427.644531 424.316406 427.785156 424.433594 427.902344 424.550781 C 427.996094 424.621094 428.371094 424.925781 428.464844 424.996094 C 447.097656 441.355469 439.996094 458.300781 429.542969 474.191406 C 424.386719 481.996094 418.527344 490.128906 412.878906 497.980469 C 406.691406 506.558594 400.855469 514.667969 396.449219 521.628906 C 388.855469 533.511719 382.082031 547.128906 375.144531 564.449219 C 354.988281 614.582031 322.691406 636.496094 299.136719 646.035156 C 286.527344 651.167969 278.371094 663.472656 278.371094 677.371094 C 278.371094 680.957031 275.464844 683.886719 271.878906 683.886719"/></g><path fill="#FFF" d="M 246.449219 241.785156 C 245.394531 241.785156 244.316406 241.527344 243.332031 240.988281 C 240.191406 239.253906 239.042969 235.316406 240.753906 232.175781 L 290.511719 141.589844 C 292.222656 138.449219 296.183594 137.300781 299.324219 139.035156 C 302.464844 140.769531 303.613281 144.707031 301.902344 147.847656 L 252.144531 238.410156 C 250.972656 240.566406 248.746094 241.785156 246.449219 241.785156"/><path fill="#FFF" d="M 305.722656 198.425781 C 300.425781 198.425781 296.113281 202.738281 296.113281 208.035156 L 296.113281 219.191406 C 296.113281 224.488281 300.425781 228.800781 305.722656 228.800781 C 311.019531 228.800781 315.332031 224.488281 315.332031 219.191406 L 315.332031 208.035156 C 315.332031 202.738281 311.019531 198.425781 305.722656 198.425781 Z M 305.722656 241.785156 C 293.253906 241.785156 283.128906 231.636719 283.128906 219.191406 L 283.128906 208.035156 C 283.128906 195.566406 293.253906 185.441406 305.722656 185.441406 C 318.167969 185.441406 328.316406 195.566406 328.316406 208.035156 L 328.316406 219.191406 C 328.316406 231.636719 318.167969 241.785156 305.722656 241.785156"/><path fill="#FFF" d="M 238.058594 151.222656 C 232.738281 151.222656 228.449219 155.535156 228.449219 160.832031 L 228.449219 171.988281 C 228.449219 177.285156 232.738281 181.597656 238.058594 181.597656 C 243.355469 181.597656 247.644531 177.285156 247.644531 171.988281 L 247.644531 160.832031 C 247.644531 155.535156 243.355469 151.222656 238.058594 151.222656 Z M 238.058594 194.582031 C 225.589844 194.582031 215.441406 184.457031 215.441406 171.988281 L 215.441406 160.832031 C 215.441406 148.363281 225.589844 138.238281 238.058594 138.238281 C 250.503906 138.238281 260.652344 148.363281 260.652344 160.832031 L 260.652344 171.988281 C 260.652344 184.457031 250.503906 194.582031 238.058594 194.582031"/><g clip-path="url(#c)"><path fill="#FFF" d="M 271.878906 96.871094 C 220.527344 96.871094 178.738281 138.660156 178.738281 190.011719 C 178.738281 241.363281 220.527344 283.152344 271.878906 283.152344 C 323.230469 283.152344 365.019531 241.363281 365.019531 190.011719 C 365.019531 138.660156 323.230469 96.871094 271.878906 96.871094 Z M 271.878906 296.136719 C 213.355469 296.136719 165.753906 248.535156 165.753906 190.011719 C 165.753906 131.488281 213.355469 83.886719 271.878906 83.886719 C 330.402344 83.886719 378.003906 131.488281 378.003906 190.011719 C 378.003906 248.535156 330.402344 296.136719 271.878906 296.136719"/></g></svg>