<svg xmlns="http://www.w3.org/2000/svg" width="768" viewBox="0 0 768 768" height="768" version="1.0"><defs><clipPath id="a"><path d="M 69.386719 69.386719 L 698.636719 69.386719 L 698.636719 698.636719 L 69.386719 698.636719 Z M 69.386719 69.386719"/></clipPath></defs><path fill="#FFF" d="M-76.8 -76.8H844.8000000000001V844.8000000000001H-76.8z"/><path fill="#FFF" d="M-76.8 -76.8H844.8000000000001V844.8000000000001H-76.8z"/><path d="M-76.8 -76.8H844.8000000000001V844.8000000000001H-76.8z"/><g clip-path="url(#a)"><path d="M 698.667969 634.019531 C 698.667969 669.722656 669.726562 698.664062 634.019531 698.664062 L 134.050781 698.664062 C 98.34375 698.664062 69.402344 669.722656 69.402344 634.019531 L 69.402344 134.054688 C 69.402344 98.347656 98.34375 69.402344 134.050781 69.402344 L 634.019531 69.402344 C 669.726562 69.402344 698.667969 98.347656 698.667969 134.054688 L 698.667969 634.019531"/></g><path fill="#FFF" d="M 348.382812 521.683594 L 492.113281 521.683594 C 497.394531 521.683594 501.679688 517.390625 501.679688 512.117188 C 501.679688 506.847656 497.394531 502.550781 492.113281 502.550781 L 348.382812 502.550781 C 343.113281 502.550781 338.816406 506.847656 338.816406 512.117188 C 338.816406 517.390625 343.113281 521.683594 348.382812 521.683594"/><path fill="#FFF" d="M 288.414062 537.894531 C 288.460938 537.9375 288.519531 537.980469 288.566406 538.03125 C 288.855469 538.351562 289.1875 538.640625 289.523438 538.910156 C 289.710938 539.0625 289.886719 539.222656 290.078125 539.355469 C 290.152344 539.40625 290.203125 539.476562 290.289062 539.527344 C 290.421875 539.628906 290.582031 539.644531 290.714844 539.734375 C 291.257812 540.054688 291.816406 540.328125 292.410156 540.523438 C 292.648438 540.617188 292.882812 540.707031 293.136719 540.765625 C 293.914062 540.988281 294.714844 541.125 295.550781 541.125 C 295.5625 541.125 295.570312 541.125 295.578125 541.125 C 296.300781 541.125 297.003906 541.027344 297.691406 540.875 C 297.890625 540.820312 298.078125 540.765625 298.28125 540.707031 C 298.78125 540.554688 299.269531 540.371094 299.746094 540.132812 C 299.917969 540.054688 300.097656 539.976562 300.265625 539.882812 C 300.851562 539.550781 301.410156 539.179688 301.917969 538.734375 C 301.9375 538.714844 301.953125 538.699219 301.96875 538.675781 C 302.042969 538.609375 302.113281 538.527344 302.183594 538.457031 C 302.644531 538.011719 303.050781 537.542969 303.410156 537.027344 C 303.457031 536.964844 303.511719 536.921875 303.554688 536.855469 L 334.414062 490.4375 C 337.332031 486.03125 336.136719 480.082031 331.75 477.175781 C 330.171875 476.132812 328.332031 475.5625 326.449219 475.5625 C 323.230469 475.5625 320.25 477.167969 318.472656 479.84375 L 294.507812 515.898438 L 283.140625 503.027344 C 281.320312 500.980469 278.710938 499.796875 275.964844 499.796875 C 273.628906 499.796875 271.375 500.652344 269.632812 502.1875 C 267.707031 503.882812 266.570312 506.21875 266.410156 508.773438 C 266.253906 511.332031 267.101562 513.785156 268.792969 515.703125 L 288.414062 537.894531"/><path fill="#FFF" d="M 348.382812 381.679688 L 492.113281 381.679688 C 497.394531 381.679688 501.679688 377.378906 501.679688 372.101562 C 501.679688 366.828125 497.394531 362.53125 492.113281 362.53125 L 348.382812 362.53125 C 343.113281 362.53125 338.816406 366.828125 338.816406 372.101562 C 338.816406 377.378906 343.113281 381.679688 348.382812 381.679688"/><path fill="#FFF" d="M 348.382812 451.683594 L 492.113281 451.683594 C 497.394531 451.683594 501.679688 447.386719 501.679688 442.121094 C 501.679688 436.832031 497.394531 432.550781 492.113281 432.550781 L 348.382812 432.550781 C 343.113281 432.550781 338.816406 436.832031 338.816406 442.121094 C 338.816406 447.386719 343.113281 451.683594 348.382812 451.683594"/><path fill="#FFF" d="M 288.414062 391.558594 C 288.460938 391.613281 288.519531 391.644531 288.566406 391.699219 C 288.855469 392.019531 289.1875 392.300781 289.523438 392.574219 C 289.710938 392.730469 289.886719 392.894531 290.078125 393.027344 C 290.152344 393.082031 290.203125 393.15625 290.289062 393.207031 C 290.421875 393.292969 290.582031 393.324219 290.714844 393.40625 C 291.257812 393.730469 291.816406 393.992188 292.410156 394.203125 C 292.648438 394.285156 292.882812 394.375 293.136719 394.445312 C 293.914062 394.648438 294.714844 394.792969 295.550781 394.796875 C 295.5625 394.796875 295.570312 394.800781 295.578125 394.800781 C 296.300781 394.800781 297.003906 394.6875 297.691406 394.535156 C 297.890625 394.492188 298.078125 394.4375 298.28125 394.375 C 298.78125 394.226562 299.269531 394.03125 299.746094 393.804688 C 299.917969 393.726562 300.097656 393.648438 300.265625 393.550781 C 300.851562 393.226562 301.410156 392.847656 301.917969 392.40625 C 301.9375 392.386719 301.953125 392.371094 301.96875 392.355469 C 302.042969 392.28125 302.113281 392.195312 302.183594 392.121094 C 302.644531 391.683594 303.050781 391.210938 303.410156 390.695312 C 303.457031 390.636719 303.511719 390.59375 303.554688 390.535156 L 334.414062 344.105469 C 337.332031 339.710938 336.136719 333.757812 331.742188 330.84375 C 330.164062 329.792969 328.332031 329.238281 326.449219 329.238281 C 323.230469 329.238281 320.25 330.828125 318.472656 333.511719 L 294.507812 369.5625 L 283.140625 356.703125 C 281.320312 354.644531 278.710938 353.457031 275.964844 353.457031 C 273.628906 353.457031 271.375 354.3125 269.632812 355.855469 C 267.707031 357.550781 266.570312 359.890625 266.410156 362.441406 C 266.253906 365 267.101562 367.457031 268.792969 369.363281 L 288.414062 391.558594"/><path fill="#FFF" d="M 331.742188 406.980469 C 330.164062 405.945312 328.328125 405.390625 326.449219 405.390625 C 323.230469 405.390625 320.242188 406.980469 318.476562 409.65625 L 294.507812 445.710938 L 283.128906 432.835938 C 281.3125 430.78125 278.695312 429.601562 275.957031 429.601562 C 273.625 429.601562 271.375 430.453125 269.617188 432.003906 C 265.667969 435.511719 265.300781 441.554688 268.792969 445.515625 L 288.421875 467.710938 C 288.464844 467.753906 288.523438 467.796875 288.566406 467.839844 C 288.875 468.171875 289.226562 468.484375 289.582031 468.765625 C 289.742188 468.898438 289.898438 469.039062 290.066406 469.160156 C 290.148438 469.226562 290.203125 469.292969 290.289062 469.351562 C 290.425781 469.433594 290.589844 469.46875 290.734375 469.550781 C 291.265625 469.875 291.816406 470.132812 292.402344 470.34375 C 292.648438 470.425781 292.882812 470.519531 293.136719 470.578125 C 293.917969 470.789062 294.722656 470.925781 295.550781 470.925781 C 295.5625 470.925781 295.570312 470.941406 295.578125 470.941406 C 296.300781 470.941406 297.003906 470.832031 297.691406 470.679688 C 297.890625 470.636719 298.078125 470.566406 298.28125 470.519531 C 298.78125 470.355469 299.269531 470.175781 299.746094 469.949219 C 299.917969 469.859375 300.101562 469.78125 300.265625 469.695312 C 300.855469 469.371094 301.417969 468.980469 301.9375 468.539062 C 301.953125 468.53125 301.960938 468.496094 301.984375 468.484375 C 302.042969 468.425781 302.089844 468.347656 302.152344 468.292969 C 302.640625 467.839844 303.0625 467.332031 303.425781 466.8125 C 303.464844 466.761719 303.511719 466.722656 303.550781 466.671875 L 334.410156 420.261719 C 335.828125 418.136719 336.332031 415.578125 335.828125 413.078125 C 335.320312 410.570312 333.867188 408.402344 331.742188 406.980469"/><path fill="#FFF" d="M 538.203125 544.230469 C 538.203125 559.808594 530.625 571.453125 523.851562 571.453125 L 244.21875 571.453125 C 237.441406 571.453125 229.859375 559.808594 229.859375 544.230469 L 229.859375 304.726562 L 538.203125 304.726562 Z M 523.851562 224.628906 L 498.3125 224.628906 L 498.3125 233.082031 L 498.285156 266.476562 C 498.285156 280.25 487.078125 291.457031 473.3125 291.457031 C 459.542969 291.457031 448.335938 280.25 448.335938 266.476562 L 448.335938 224.628906 L 319.691406 224.628906 L 319.691406 265.953125 C 319.691406 279.722656 308.488281 290.925781 294.722656 290.925781 C 280.949219 290.925781 269.746094 279.722656 269.746094 265.953125 L 269.746094 224.628906 L 244.21875 224.628906 C 223.761719 224.628906 207.738281 246.300781 207.738281 273.964844 L 207.738281 544.230469 C 207.738281 571.894531 223.761719 593.574219 244.21875 593.574219 L 523.851562 593.574219 C 544.304688 593.574219 560.328125 571.894531 560.328125 544.230469 L 560.328125 273.964844 C 560.328125 246.300781 544.304688 224.628906 523.851562 224.628906"/><path fill="#FFF" d="M 294.722656 188.40625 C 288.625 188.40625 283.652344 193.359375 283.652344 199.460938 L 283.652344 265.957031 C 283.652344 272.050781 288.625 277.011719 294.722656 277.011719 C 300.820312 277.011719 305.785156 272.050781 305.785156 265.957031 L 305.785156 199.460938 C 305.785156 193.359375 300.820312 188.40625 294.722656 188.40625"/><path fill="#FFF" d="M 473.339844 188.40625 C 467.25 188.40625 462.28125 193.359375 462.28125 199.460938 L 462.28125 226.199219 C 462.269531 226.183594 462.253906 226.179688 462.246094 226.167969 L 462.246094 266.476562 C 462.246094 272.578125 467.207031 277.550781 473.3125 277.550781 C 479.414062 277.550781 484.371094 272.578125 484.371094 266.476562 L 484.371094 223.691406 C 484.382812 223.679688 484.398438 223.679688 484.410156 223.671875 L 484.410156 199.460938 C 484.410156 193.359375 479.441406 188.40625 473.339844 188.40625"/></svg>