<svg xmlns="http://www.w3.org/2000/svg" width="768" viewBox="0 0 768 768" height="768" version="1.0"><defs><clipPath id="a"><path d="M 115.40625 90.449219 L 653 90.449219 L 653 677.699219 L 115.40625 677.699219 Z M 115.40625 90.449219"/></clipPath></defs><path fill="#FFF" d="M-76.8 -76.8H844.8000000000001V844.8000000000001H-76.8z"/><path fill="#FFF" d="M-76.8 -76.8H844.8000000000001V844.8000000000001H-76.8z"/><path d="M-76.8 -76.8H844.8000000000001V844.8000000000001H-76.8z"/><g clip-path="url(#a)"><path fill="#FFF" d="M 642.378906 529.992188 L 585.492188 276.515625 C 595.765625 270.199219 602.628906 258.84375 602.628906 245.917969 L 570.167969 245.917969 C 570.167969 247.8125 568.628906 249.351562 566.734375 249.351562 C 564.847656 249.351562 563.3125 247.8125 563.3125 245.917969 L 563.3125 229.679688 L 428.65625 229.679688 C 423.300781 217.308594 412.964844 207.597656 400.199219 203.058594 L 400.199219 201.410156 C 400.644531 201.648438 401.085938 201.863281 401.546875 202.117188 L 422.316406 197.542969 L 466.253906 138.476562 L 462.210938 115.257812 C 437.414062 98.773438 411.089844 90.417969 383.96875 90.417969 C 356.839844 90.417969 330.523438 98.773438 305.71875 115.257812 L 301.683594 138.476562 L 345.613281 197.542969 L 366.382812 202.117188 C 366.851562 201.863281 367.285156 201.648438 367.738281 201.410156 L 367.738281 203.070312 C 354.964844 207.597656 344.628906 217.308594 339.273438 229.679688 L 204.625 229.679688 L 204.625 245.917969 C 204.625 247.8125 203.089844 249.351562 201.195312 249.351562 C 199.300781 249.351562 197.761719 247.8125 197.761719 245.917969 L 165.300781 245.917969 C 165.300781 258.84375 172.164062 270.199219 182.4375 276.527344 L 125.550781 529.992188 L 115.40625 529.992188 C 115.40625 578.257812 154.515625 617.382812 202.753906 617.382812 C 250.996094 617.382812 290.097656 578.257812 290.097656 529.992188 L 279.953125 529.992188 L 222.65625 274.671875 C 227.054688 271.371094 230.683594 267.097656 233.203125 262.15625 L 337.101562 262.15625 C 341.386719 277.414062 352.917969 289.65625 367.738281 294.914062 L 367.738281 645.222656 L 272.921875 645.222656 L 272.921875 677.699219 L 495.007812 677.699219 L 495.007812 645.222656 L 400.199219 645.222656 L 400.199219 294.914062 C 415.011719 289.65625 426.550781 277.414062 430.835938 262.15625 L 534.734375 262.15625 C 537.246094 267.097656 540.875 271.371094 545.28125 274.671875 L 487.976562 529.992188 L 477.832031 529.992188 C 477.832031 578.257812 516.941406 617.382812 565.183594 617.382812 C 613.421875 617.382812 652.523438 578.257812 652.523438 529.992188 Z M 246.683594 529.992188 L 158.820312 529.992188 L 202.753906 334.242188 Z M 363.855469 167.671875 L 338.613281 133.726562 C 353.386719 126.535156 368.585938 122.894531 383.96875 122.894531 C 399.351562 122.894531 414.550781 126.535156 429.324219 133.726562 L 404.082031 167.671875 C 390.175781 162.675781 377.753906 162.675781 363.855469 167.671875 Z M 383.96875 265.226562 C 375.011719 265.226562 367.738281 257.9375 367.738281 248.988281 C 367.738281 240.035156 375.011719 232.746094 383.96875 232.746094 C 392.917969 232.746094 400.199219 240.035156 400.199219 248.988281 C 400.199219 257.945312 392.917969 265.226562 383.96875 265.226562 Z M 521.246094 529.992188 L 565.183594 334.242188 L 609.109375 529.992188 Z M 521.246094 529.992188"/></g></svg>