<svg xmlns="http://www.w3.org/2000/svg" width="768" viewBox="0 0 768 768" height="768" version="1.0"><defs><clipPath id="a"><path d="M 399 123.523438 L 644.773438 123.523438 L 644.773438 328 L 399 328 Z M 399 123.523438"/></clipPath><clipPath id="b"><path d="M 123.523438 400 L 482 400 L 482 644.773438 L 123.523438 644.773438 Z M 123.523438 400"/></clipPath></defs><path fill="#FFF" d="M-76.8 -76.8H844.8000000000001V844.8000000000001H-76.8z"/><path fill="#FFF" d="M-76.8 -76.8H844.8000000000001V844.8000000000001H-76.8z"/><path d="M-76.8 -76.8H844.8000000000001V844.8000000000001H-76.8z"/><path fill="#E1EBF4" d="M 376.007812 311.109375 C 376.007812 351.390625 343.050781 384.351562 302.765625 384.351562 C 262.480469 384.351562 229.523438 351.390625 229.523438 311.109375 C 229.523438 270.824219 262.480469 237.863281 302.765625 237.863281 C 343.050781 237.863281 376.007812 270.824219 376.007812 311.109375 Z M 376.007812 311.109375"/><path fill="#FC785E" d="M 464.714844 628.496094 L 140.816406 628.496094 C 146.511719 507.644531 157.09375 481.195312 160.347656 476.3125 C 167.265625 465.324219 206.328125 440.097656 242.949219 420.566406 L 291.78125 467.359375 C 295.035156 470.210938 299.105469 471.835938 303.171875 471.835938 C 307.242188 471.835938 311.3125 470.210938 314.566406 467.359375 L 363.394531 420.566406 C 399.609375 440.097656 439.082031 465.324219 445.996094 476.3125 C 448.4375 481.195312 459.019531 507.644531 464.714844 628.496094 Z M 464.714844 628.496094"/><path fill="#F9DBD7" d="M 464.714844 628.496094 L 463.902344 628.496094 C 457.796875 521.480469 448.4375 497.472656 445.183594 492.589844 C 438.671875 481.601562 399.203125 456.375 362.582031 436.84375 L 313.753906 483.636719 C 310.90625 486.484375 306.835938 487.707031 302.765625 487.707031 C 298.695312 487.707031 294.628906 486.078125 291.371094 483.230469 L 242.542969 436.4375 C 206.328125 455.96875 166.859375 481.195312 159.941406 492.183594 C 156.6875 497.066406 147.328125 521.074219 141.222656 628.089844 L 140.816406 628.089844 C 146.511719 507.238281 157.09375 480.789062 160.347656 475.90625 C 167.265625 464.917969 206.328125 439.691406 242.949219 420.160156 L 291.78125 466.953125 C 295.035156 469.800781 299.105469 471.429688 303.171875 471.429688 C 307.242188 471.429688 311.3125 469.800781 314.566406 466.953125 L 363.394531 420.160156 C 399.609375 439.691406 439.082031 464.917969 445.996094 475.90625 C 448.4375 481.195312 459.019531 507.644531 464.714844 628.496094 Z M 464.714844 628.496094" fill-opacity=".298"/><path fill="#A54B3F" d="M 464.714844 628.496094 L 140.816406 628.496094 C 141.222656 622.800781 141.222656 617.511719 141.628906 612.21875 L 463.902344 612.21875 C 464.308594 617.511719 464.714844 622.800781 464.714844 628.496094 Z M 464.714844 628.496094" fill-opacity=".498"/><path fill="#FFF" d="M 376.007812 311.109375 C 376.007812 313.957031 376.007812 316.398438 375.601562 319.246094 C 371.535156 282.625 340.203125 254.140625 302.765625 254.140625 C 264.921875 254.140625 234 282.625 229.929688 319.246094 C 229.523438 316.398438 229.523438 313.957031 229.523438 311.109375 C 229.523438 272.042969 260.039062 240.304688 298.695312 237.863281 C 299.917969 237.863281 301.546875 237.863281 302.765625 237.863281 C 303.988281 237.863281 305.613281 237.863281 306.835938 237.863281 C 345.492188 240.304688 376.007812 272.042969 376.007812 311.109375 Z M 376.007812 311.109375" fill-opacity=".498"/><path fill="#9FA5AA" d="M 376.007812 311.109375 C 376.007812 350.171875 345.492188 381.910156 306.835938 384.351562 C 305.613281 384.351562 303.988281 384.351562 302.765625 384.351562 C 301.546875 384.351562 299.917969 384.351562 298.695312 384.351562 C 260.039062 382.316406 229.523438 350.171875 229.523438 311.109375 C 229.523438 308.257812 229.523438 305.816406 229.929688 302.96875 C 234 339.589844 264.921875 368.074219 302.765625 368.074219 C 340.203125 368.074219 371.535156 339.589844 375.601562 302.96875 C 376.007812 305.816406 376.007812 308.257812 376.007812 311.109375 Z M 376.007812 311.109375" fill-opacity=".498"/><g clip-path="url(#a)"><path fill="#2D4356" d="M 643.753906 220.367188 C 642.128906 211.820312 638.464844 203.683594 632.363281 197.171875 C 629.921875 194.324219 627.074219 191.882812 624.222656 189.847656 C 620.15625 187 615.273438 184.558594 610.390625 182.929688 C 609.980469 179.675781 609.980469 176.015625 608.761719 172.757812 C 604.691406 156.074219 591.265625 142.242188 574.175781 137.765625 C 566.851562 135.730469 559.117188 135.324219 551.792969 136.949219 C 548.539062 137.765625 540.402344 140.207031 539.585938 140.613281 C 533.484375 133.695312 525.753906 128.8125 516.800781 125.964844 C 510.289062 123.929688 502.152344 123.523438 495.234375 124.335938 C 482.621094 126.371094 472.445312 132.066406 464.714844 141.425781 C 462.273438 144.683594 456.578125 154.449219 455.765625 155.261719 C 455.355469 155.261719 450.472656 155.667969 447.625 156.074219 C 432.164062 158.515625 419.140625 167.875 411.816406 180.898438 C 404.492188 193.917969 404.085938 209.789062 410.597656 223.621094 C 410.597656 223.621094 410.597656 223.621094 410.191406 224.03125 C 402.050781 234.203125 398.390625 247.628906 400.425781 260.652344 C 400.832031 264.3125 402.050781 267.976562 403.273438 271.636719 C 408.96875 285.878906 421.582031 296.867188 436.230469 300.933594 C 440.707031 302.15625 452.914062 302.15625 456.171875 302.15625 C 457.796875 302.15625 458.613281 302.5625 460.238281 305.003906 C 470.414062 318.839844 485.875 327.382812 502.152344 327.382812 C 513.542969 327.382812 524.9375 323.316406 533.890625 315.582031 C 539.179688 319.246094 545.285156 321.6875 551.386719 322.90625 C 554.644531 323.722656 558.304688 324.128906 561.96875 324.128906 C 585.160156 324.128906 605.914062 307.445312 610.390625 285.066406 C 610.796875 282.21875 611.609375 274.484375 611.609375 274.484375 C 611.609375 274.078125 620.15625 270.417969 621.78125 269.601562 C 625.039062 267.976562 627.886719 265.535156 630.328125 263.09375 C 634.398438 259.429688 637.652344 254.546875 640.09375 249.664062 C 642.128906 245.1875 643.753906 239.898438 644.164062 235.015625 C 644.570312 230.539062 644.570312 225.25 643.753906 220.367188 Z M 626.664062 237.050781 C 623.003906 249.664062 614.457031 257.394531 601.4375 260.246094 C 596.148438 261.464844 593.707031 264.71875 594.113281 270.417969 C 594.113281 273.671875 594.519531 276.519531 594.113281 279.367188 C 592.484375 291.984375 585.566406 300.933594 573.359375 305.410156 C 561.558594 309.886719 550.167969 307.851562 540.402344 299.308594 C 538.367188 297.679688 535.925781 296.050781 533.078125 296.050781 C 530.226562 296.050781 528.195312 298.085938 526.160156 299.714844 C 519.648438 306.632812 511.101562 310.292969 502.152344 310.292969 C 488.722656 310.292969 476.921875 302.15625 472.039062 289.132812 C 470.003906 283.84375 465.121094 281.808594 459.832031 283.84375 C 454.542969 285.878906 449.253906 286.285156 443.964844 285.066406 C 431.347656 282.625 423.210938 275.300781 419.140625 263.90625 C 415.074219 252.105469 417.515625 241.527344 426.058594 231.761719 C 429.722656 227.691406 430.128906 224.4375 427.6875 219.554688 C 425.246094 215.078125 423.617188 209.789062 423.617188 204.90625 C 423.617188 203.277344 423.617188 201.648438 423.617188 200.429688 C 425.652344 184.558594 439.488281 172.351562 456.171875 172.351562 C 460.238281 172.351562 466.34375 173.980469 469.597656 169.910156 C 470.414062 168.691406 471.226562 167.0625 471.632812 165.433594 C 474.886719 151.597656 486.28125 141.425781 500.117188 140.613281 C 512.730469 139.390625 522.902344 144.273438 530.636719 155.261719 C 533.890625 160.144531 538.773438 160.957031 544.0625 157.703125 C 550.574219 153.632812 557.492188 151.597656 565.222656 152.414062 C 573.359375 153.226562 581.5 157.296875 586.789062 163.808594 C 592.078125 170.316406 594.925781 178.457031 594.113281 186.59375 C 593.300781 193.105469 595.742188 196.359375 602.25 197.582031 C 611.203125 199.207031 618.933594 204.496094 623.816406 212.230469 C 627.480469 219.960938 629.105469 228.914062 626.664062 237.050781 Z M 626.664062 237.050781"/></g><path fill="#E1EBF4" d="M 626.664062 237.050781 C 623.003906 249.664062 614.457031 257.394531 601.4375 260.246094 C 596.148438 261.464844 593.707031 264.71875 594.113281 270.417969 C 594.113281 273.671875 594.519531 276.519531 594.113281 279.367188 C 592.484375 291.984375 585.566406 300.933594 573.359375 305.410156 C 561.558594 309.886719 550.167969 307.851562 540.402344 299.308594 C 538.367188 297.679688 535.925781 296.050781 533.078125 296.050781 C 530.226562 296.050781 528.195312 298.085938 526.160156 299.714844 C 519.648438 306.632812 511.101562 310.292969 502.152344 310.292969 C 488.722656 310.292969 476.921875 302.15625 472.039062 289.132812 C 470.003906 283.84375 465.121094 281.808594 459.832031 283.84375 C 454.542969 285.878906 449.253906 286.285156 443.964844 285.066406 C 431.347656 282.625 423.210938 275.300781 419.140625 263.90625 C 415.074219 252.105469 417.515625 241.527344 426.058594 231.761719 C 429.722656 227.691406 430.128906 224.4375 427.6875 219.554688 C 425.246094 215.078125 423.617188 209.789062 423.617188 204.90625 C 423.617188 203.277344 423.617188 201.648438 423.617188 200.429688 C 425.652344 184.558594 439.488281 172.351562 456.171875 172.351562 C 460.238281 172.351562 466.34375 173.980469 469.597656 169.910156 C 470.414062 168.691406 471.226562 167.0625 471.632812 165.433594 C 474.886719 151.597656 486.28125 141.425781 500.117188 140.613281 C 512.730469 139.390625 522.902344 144.273438 530.636719 155.261719 C 533.890625 160.144531 538.773438 160.957031 544.0625 157.703125 C 550.574219 153.632812 557.492188 151.597656 565.222656 152.414062 C 573.359375 153.226562 581.5 157.296875 586.789062 163.808594 C 592.078125 170.316406 594.925781 178.457031 594.113281 186.59375 C 593.300781 193.105469 595.742188 196.359375 602.25 197.582031 C 611.203125 199.207031 618.933594 204.496094 623.816406 212.230469 C 627.480469 219.960938 629.105469 228.914062 626.664062 237.050781 Z M 626.664062 237.050781"/><path fill="#2D4356" d="M 302.765625 400.628906 C 352.003906 400.628906 392.285156 360.75 392.285156 311.109375 C 392.285156 261.464844 352.003906 221.585938 302.765625 221.585938 C 253.53125 221.585938 213.246094 261.871094 213.246094 311.109375 C 213.246094 360.75 253.53125 400.628906 302.765625 400.628906 Z M 302.765625 237.863281 C 343.050781 237.863281 376.007812 270.824219 376.007812 311.109375 C 376.007812 351.390625 343.050781 384.351562 302.765625 384.351562 C 262.480469 384.351562 229.523438 351.390625 229.523438 311.109375 C 229.523438 270.824219 262.480469 237.863281 302.765625 237.863281 Z M 302.765625 237.863281"/><g clip-path="url(#b)"><path fill="#2D4356" d="M 360.140625 400.628906 L 302.765625 455.152344 L 245.390625 400.628906 C 245.390625 400.628906 160.753906 444.167969 146.105469 467.769531 C 131.050781 492.183594 125.761719 594.316406 123.726562 644.773438 L 481.804688 644.773438 C 479.769531 594.316406 474.074219 492.183594 459.425781 467.769531 C 444.777344 444.167969 360.140625 400.628906 360.140625 400.628906 Z M 140.816406 628.496094 C 146.511719 507.644531 157.09375 481.601562 160.347656 476.3125 C 166.859375 465.324219 206.328125 440.097656 242.949219 420.566406 L 291.78125 466.953125 C 295.035156 469.800781 299.105469 471.429688 303.171875 471.429688 C 307.242188 471.429688 311.3125 469.800781 314.566406 466.953125 L 363.394531 420.566406 C 399.609375 440.097656 439.082031 465.324219 445.996094 476.3125 C 449.253906 481.601562 459.425781 507.644531 465.53125 628.496094 Z M 140.816406 628.496094"/></g><path fill="#2D4356" d="M 522.496094 172.757812 C 506.628906 172.757812 494.011719 185.371094 494.011719 201.242188 C 494.011719 205.71875 497.675781 209.378906 502.152344 209.378906 C 506.628906 209.378906 510.289062 205.71875 510.289062 201.242188 C 510.289062 194.324219 515.578125 189.035156 522.496094 189.035156 C 529.414062 189.035156 534.703125 194.324219 534.703125 201.242188 C 534.703125 208.160156 529.414062 213.449219 522.496094 213.449219 C 518.019531 213.449219 514.359375 217.113281 514.359375 221.585938 L 514.359375 250.070312 C 514.359375 254.546875 518.019531 258.210938 522.496094 258.210938 C 526.972656 258.210938 530.636719 254.546875 530.636719 250.070312 L 530.636719 228.503906 C 542.433594 224.84375 550.980469 214.261719 550.980469 201.242188 C 550.980469 185.371094 538.367188 172.757812 522.496094 172.757812 Z M 522.496094 172.757812"/><path fill="#2D4356" d="M 529.414062 273.671875 C 529.414062 274.125 529.371094 274.578125 529.28125 275.023438 C 529.191406 275.46875 529.0625 275.898438 528.886719 276.320312 C 528.714844 276.738281 528.5 277.136719 528.25 277.515625 C 527.996094 277.894531 527.710938 278.242188 527.386719 278.5625 C 527.066406 278.882812 526.71875 279.171875 526.339844 279.421875 C 525.960938 279.675781 525.5625 279.890625 525.144531 280.0625 C 524.722656 280.238281 524.292969 280.367188 523.847656 280.457031 C 523.402344 280.546875 522.949219 280.589844 522.496094 280.589844 C 522.042969 280.589844 521.59375 280.546875 521.148438 280.457031 C 520.703125 280.367188 520.269531 280.238281 519.847656 280.0625 C 519.429688 279.890625 519.03125 279.675781 518.652344 279.421875 C 518.277344 279.171875 517.925781 278.882812 517.605469 278.5625 C 517.285156 278.242188 516.996094 277.894531 516.746094 277.515625 C 516.492188 277.136719 516.28125 276.738281 516.105469 276.320312 C 515.933594 275.898438 515.800781 275.46875 515.710938 275.023438 C 515.625 274.578125 515.578125 274.125 515.578125 273.671875 C 515.578125 273.21875 515.625 272.769531 515.710938 272.324219 C 515.800781 271.878906 515.933594 271.445312 516.105469 271.023438 C 516.28125 270.605469 516.492188 270.207031 516.746094 269.828125 C 516.996094 269.453125 517.285156 269.101562 517.605469 268.78125 C 517.925781 268.460938 518.277344 268.171875 518.652344 267.921875 C 519.03125 267.667969 519.429688 267.457031 519.847656 267.28125 C 520.269531 267.109375 520.703125 266.976562 521.148438 266.886719 C 521.59375 266.800781 522.042969 266.753906 522.496094 266.753906 C 522.949219 266.753906 523.402344 266.800781 523.847656 266.886719 C 524.292969 266.976562 524.722656 267.109375 525.144531 267.28125 C 525.5625 267.457031 525.960938 267.667969 526.339844 267.921875 C 526.71875 268.171875 527.066406 268.460938 527.386719 268.78125 C 527.710938 269.101562 527.996094 269.453125 528.25 269.828125 C 528.5 270.207031 528.714844 270.605469 528.886719 271.023438 C 529.0625 271.445312 529.191406 271.878906 529.28125 272.324219 C 529.371094 272.769531 529.414062 273.21875 529.414062 273.671875 Z M 529.414062 273.671875"/><path fill="#9FA5AA" d="M 626.664062 237.050781 C 623.003906 249.664062 614.457031 257.394531 601.4375 260.246094 C 596.148438 261.464844 593.707031 264.71875 594.113281 270.417969 C 594.113281 273.671875 594.519531 276.519531 594.113281 279.367188 C 592.484375 291.984375 585.566406 300.933594 573.359375 305.410156 C 561.558594 309.886719 550.167969 307.851562 540.402344 299.308594 C 538.367188 297.679688 535.925781 296.050781 533.078125 296.050781 C 530.226562 296.050781 528.195312 298.085938 526.160156 299.714844 C 519.648438 306.632812 511.101562 310.292969 502.152344 310.292969 C 488.722656 310.292969 476.921875 302.15625 472.039062 289.132812 C 470.003906 283.84375 465.121094 281.808594 459.832031 283.84375 C 457.390625 284.660156 454.542969 285.066406 452.101562 285.472656 C 450.066406 285.472656 447.625 285.472656 445.589844 285.472656 C 445.183594 285.472656 444.371094 285.472656 443.964844 285.066406 C 431.347656 282.625 423.210938 275.300781 419.140625 263.90625 C 417.109375 257.394531 416.699219 251.292969 418.328125 245.1875 C 418.328125 246.003906 418.734375 246.816406 419.140625 247.628906 C 423.210938 259.429688 431.347656 266.347656 443.964844 268.789062 C 449.253906 270.011719 454.542969 269.195312 459.832031 267.570312 C 465.121094 265.535156 470.003906 267.976562 472.039062 272.859375 C 476.921875 285.472656 488.722656 294.019531 502.152344 294.019531 C 511.101562 294.019531 519.648438 290.355469 526.160156 283.4375 C 528.195312 281.402344 530.226562 279.777344 533.078125 279.777344 C 535.925781 279.777344 538.367188 280.996094 540.402344 283.03125 C 550.167969 291.578125 561.558594 293.609375 573.359375 289.132812 C 585.566406 284.660156 592.484375 276.113281 594.113281 263.09375 C 594.519531 259.835938 594.113281 256.988281 594.113281 254.140625 C 593.707031 248.851562 596.148438 245.1875 601.4375 243.96875 C 614.457031 241.121094 623.003906 233.386719 626.664062 220.773438 C 628.292969 226.0625 628.292969 231.761719 626.664062 237.050781 Z M 626.664062 237.050781" fill-opacity=".498"/><path fill="#FFF" d="M 626.664062 237.050781 C 625.851562 234.203125 624.632812 231.355469 623.003906 228.914062 C 618.121094 221.179688 610.390625 215.890625 601.4375 214.261719 C 594.925781 213.042969 592.484375 209.789062 593.300781 203.277344 C 594.113281 195.140625 591.671875 187 585.972656 180.488281 C 580.277344 173.980469 572.546875 169.503906 564.410156 169.097656 C 556.675781 168.28125 549.757812 170.316406 543.25 174.386719 C 538.367188 177.640625 533.484375 176.421875 529.820312 171.945312 C 522.496094 160.957031 512.324219 156.074219 499.304688 157.296875 C 485.46875 158.515625 474.074219 168.691406 470.820312 182.117188 C 470.414062 183.746094 469.597656 185.371094 468.785156 186.59375 C 465.9375 190.664062 459.832031 189.035156 455.355469 189.035156 C 440.707031 189.035156 428.09375 198.800781 424.023438 212.230469 C 423.617188 210.195312 423.210938 207.753906 422.804688 205.3125 C 422.804688 203.683594 422.804688 202.054688 422.804688 200.835938 C 424.839844 184.964844 438.671875 172.757812 455.355469 172.757812 C 459.425781 172.757812 465.53125 174.386719 468.785156 170.316406 C 469.597656 169.097656 470.414062 167.46875 470.820312 165.839844 C 474.074219 152.007812 485.46875 141.832031 499.304688 141.019531 C 511.917969 139.800781 522.089844 144.683594 529.820312 155.667969 C 533.078125 160.550781 537.960938 161.367188 543.25 158.109375 C 549.757812 154.042969 556.675781 152.007812 564.410156 152.820312 C 572.546875 153.632812 580.683594 157.703125 585.972656 164.214844 C 591.265625 170.722656 594.113281 178.863281 593.300781 187 C 592.484375 193.511719 594.925781 196.765625 601.4375 197.988281 C 610.390625 199.613281 618.121094 204.90625 623.003906 212.636719 C 627.480469 219.960938 629.105469 228.914062 626.664062 237.050781 Z M 626.664062 237.050781" fill-opacity=".498"/></svg>