<?xml version="1.0" encoding="UTF-8"?><svg xmlns="http://www.w3.org/2000/svg" xmlns:xlink="http://www.w3.org/1999/xlink" contentScriptType="text/ecmascript" width="768" zoomAndPan="magnify" contentStyleType="text/css" viewBox="0 0 768 767.999994" height="767.999994" preserveAspectRatio="xMidYMid meet" version="1.0"><defs><clipPath id="clip-0"><path d="M 110.085938 110.085938 L 657.585938 110.085938 L 657.585938 657.585938 L 110.085938 657.585938 Z M 110.085938 110.085938 " clip-rule="nonzero"/></clipPath></defs><rect x="-76.8" width="921.6" fill="rgb(100%, 100%, 100%)" y="-76.799999" height="921.599993" fill-opacity="1"/><rect x="-76.8" width="921.6" fill="rgb(100%, 100%, 100%)" y="-76.799999" height="921.599993" fill-opacity="1"/><rect x="-76.8" width="921.6" fill="rgb(0%, 0%, 0%)" y="-76.799999" height="921.599993" fill-opacity="1"/><g clip-path="url(#clip-0)"><path fill="rgb(37.649536%, 49.01886%, 54.508972%)" d="M 645.683594 467.152344 L 490.957031 467.152344 L 490.957031 300.519531 L 645.683594 300.519531 C 646.464844 300.519531 647.238281 300.445312 648.007812 300.292969 C 648.773438 300.140625 649.515625 299.914062 650.238281 299.613281 C 650.960938 299.316406 651.648438 298.949219 652.296875 298.515625 C 652.945312 298.082031 653.546875 297.585938 654.101562 297.035156 C 654.652344 296.484375 655.144531 295.882812 655.582031 295.230469 C 656.015625 294.582031 656.382812 293.894531 656.679688 293.171875 C 656.980469 292.453125 657.207031 291.707031 657.359375 290.941406 C 657.511719 290.175781 657.585938 289.402344 657.585938 288.617188 C 657.585938 287.835938 657.511719 287.0625 657.359375 286.296875 C 657.207031 285.53125 656.980469 284.785156 656.679688 284.0625 C 656.382812 283.34375 656.015625 282.65625 655.582031 282.007812 C 655.144531 281.355469 654.652344 280.753906 654.101562 280.203125 C 653.546875 279.648438 652.945312 279.15625 652.296875 278.722656 C 651.648438 278.289062 650.960938 277.921875 650.238281 277.621094 C 649.515625 277.324219 648.773438 277.097656 648.007812 276.945312 C 647.238281 276.792969 646.464844 276.71875 645.683594 276.71875 L 490.957031 276.71875 L 490.957031 121.988281 C 490.957031 121.207031 490.878906 120.433594 490.726562 119.667969 C 490.574219 118.898438 490.347656 118.15625 490.050781 117.433594 C 489.75 116.710938 489.382812 116.027344 488.949219 115.375 C 488.515625 114.726562 488.023438 114.125 487.46875 113.574219 C 486.917969 113.019531 486.316406 112.527344 485.667969 112.09375 C 485.015625 111.65625 484.332031 111.292969 483.609375 110.992188 C 482.886719 110.691406 482.140625 110.46875 481.375 110.316406 C 480.609375 110.164062 479.835938 110.085938 479.054688 110.085938 C 478.273438 110.085938 477.5 110.164062 476.730469 110.316406 C 475.964844 110.46875 475.222656 110.691406 474.5 110.992188 C 473.777344 111.292969 473.089844 111.65625 472.441406 112.09375 C 471.792969 112.527344 471.191406 113.019531 470.636719 113.574219 C 470.085938 114.125 469.589844 114.726562 469.15625 115.375 C 468.722656 116.027344 468.355469 116.710938 468.058594 117.433594 C 467.757812 118.15625 467.53125 118.898438 467.378906 119.667969 C 467.226562 120.433594 467.152344 121.207031 467.152344 121.988281 L 467.152344 276.71875 L 300.519531 276.71875 L 300.519531 121.988281 C 300.519531 121.207031 300.445312 120.433594 300.292969 119.667969 C 300.140625 118.898438 299.914062 118.15625 299.613281 117.433594 C 299.316406 116.710938 298.949219 116.027344 298.515625 115.375 C 298.082031 114.726562 297.585938 114.125 297.035156 113.574219 C 296.484375 113.019531 295.882812 112.527344 295.230469 112.09375 C 294.582031 111.65625 293.894531 111.292969 293.171875 110.992188 C 292.453125 110.691406 291.707031 110.46875 290.941406 110.316406 C 290.175781 110.164062 289.402344 110.085938 288.617188 110.085938 C 287.835938 110.085938 287.0625 110.164062 286.296875 110.316406 C 285.53125 110.46875 284.785156 110.691406 284.0625 110.992188 C 283.34375 111.292969 282.65625 111.65625 282.007812 112.09375 C 281.355469 112.527344 280.753906 113.019531 280.203125 113.574219 C 279.648438 114.125 279.15625 114.726562 278.722656 115.375 C 278.289062 116.027344 277.921875 116.710938 277.621094 117.433594 C 277.324219 118.15625 277.097656 118.898438 276.945312 119.667969 C 276.792969 120.433594 276.714844 121.207031 276.714844 121.988281 L 276.714844 276.71875 L 121.988281 276.71875 C 121.207031 276.71875 120.433594 276.792969 119.667969 276.945312 C 118.898438 277.097656 118.15625 277.324219 117.433594 277.621094 C 116.710938 277.921875 116.027344 278.289062 115.375 278.722656 C 114.726562 279.15625 114.125 279.648438 113.574219 280.203125 C 113.019531 280.753906 112.527344 281.355469 112.09375 282.007812 C 111.65625 282.65625 111.292969 283.34375 110.992188 284.0625 C 110.691406 284.785156 110.46875 285.53125 110.316406 286.296875 C 110.164062 287.0625 110.085938 287.835938 110.085938 288.617188 C 110.085938 289.402344 110.164062 290.175781 110.316406 290.941406 C 110.46875 291.707031 110.691406 292.453125 110.992188 293.171875 C 111.292969 293.894531 111.65625 294.582031 112.09375 295.230469 C 112.527344 295.882812 113.019531 296.484375 113.574219 297.035156 C 114.125 297.585938 114.726562 298.082031 115.375 298.515625 C 116.027344 298.949219 116.710938 299.316406 117.433594 299.613281 C 118.15625 299.914062 118.898438 300.140625 119.667969 300.292969 C 120.433594 300.445312 121.207031 300.519531 121.988281 300.519531 L 276.714844 300.519531 L 276.714844 467.152344 L 121.988281 467.152344 C 121.207031 467.152344 120.433594 467.226562 119.667969 467.378906 C 118.898438 467.53125 118.15625 467.757812 117.433594 468.058594 C 116.710938 468.355469 116.027344 468.722656 115.375 469.15625 C 114.726562 469.589844 114.125 470.085938 113.574219 470.636719 C 113.019531 471.191406 112.527344 471.792969 112.09375 472.441406 C 111.65625 473.089844 111.292969 473.777344 110.992188 474.5 C 110.691406 475.222656 110.46875 475.964844 110.316406 476.730469 C 110.164062 477.5 110.085938 478.273438 110.085938 479.054688 C 110.085938 479.835938 110.164062 480.609375 110.316406 481.375 C 110.46875 482.140625 110.691406 482.886719 110.992188 483.609375 C 111.292969 484.332031 111.65625 485.015625 112.09375 485.667969 C 112.527344 486.316406 113.019531 486.917969 113.574219 487.46875 C 114.125 488.023438 114.726562 488.515625 115.375 488.949219 C 116.027344 489.382812 116.710938 489.75 117.433594 490.050781 C 118.15625 490.347656 118.898438 490.574219 119.667969 490.726562 C 120.433594 490.878906 121.207031 490.957031 121.988281 490.957031 L 276.714844 490.957031 L 276.714844 645.683594 C 276.714844 646.464844 276.792969 647.238281 276.945312 648.007812 C 277.097656 648.773438 277.324219 649.515625 277.621094 650.238281 C 277.921875 650.960938 278.289062 651.648438 278.722656 652.296875 C 279.15625 652.945312 279.648438 653.546875 280.203125 654.101562 C 280.753906 654.652344 281.355469 655.144531 282.007812 655.582031 C 282.65625 656.015625 283.34375 656.382812 284.0625 656.679688 C 284.785156 656.980469 285.53125 657.207031 286.296875 657.359375 C 287.0625 657.511719 287.835938 657.585938 288.617188 657.585938 C 289.402344 657.585938 290.175781 657.511719 290.941406 657.359375 C 291.707031 657.207031 292.453125 656.980469 293.171875 656.679688 C 293.894531 656.382812 294.582031 656.015625 295.230469 655.582031 C 295.882812 655.144531 296.484375 654.652344 297.035156 654.101562 C 297.585938 653.546875 298.082031 652.945312 298.515625 652.296875 C 298.949219 651.648438 299.316406 650.960938 299.613281 650.238281 C 299.914062 649.515625 300.140625 648.773438 300.292969 648.007812 C 300.445312 647.238281 300.519531 646.464844 300.519531 645.683594 L 300.519531 490.957031 L 467.152344 490.957031 L 467.152344 645.683594 C 467.152344 646.464844 467.226562 647.238281 467.378906 648.007812 C 467.53125 648.773438 467.757812 649.515625 468.058594 650.238281 C 468.355469 650.960938 468.722656 651.648438 469.15625 652.296875 C 469.589844 652.945312 470.085938 653.546875 470.636719 654.101562 C 471.191406 654.652344 471.792969 655.144531 472.441406 655.582031 C 473.089844 656.015625 473.777344 656.382812 474.5 656.679688 C 475.222656 656.980469 475.964844 657.207031 476.730469 657.359375 C 477.5 657.511719 478.273438 657.585938 479.054688 657.585938 C 479.835938 657.585938 480.609375 657.511719 481.375 657.359375 C 482.140625 657.207031 482.886719 656.980469 483.609375 656.679688 C 484.332031 656.382812 485.015625 656.015625 485.667969 655.582031 C 486.316406 655.144531 486.917969 654.652344 487.46875 654.101562 C 488.023438 653.546875 488.515625 652.945312 488.949219 652.296875 C 489.382812 651.648438 489.75 650.960938 490.050781 650.238281 C 490.347656 649.515625 490.574219 648.773438 490.726562 648.007812 C 490.878906 647.238281 490.957031 646.464844 490.957031 645.683594 L 490.957031 490.957031 L 645.683594 490.957031 C 646.464844 490.957031 647.238281 490.878906 648.007812 490.726562 C 648.773438 490.574219 649.515625 490.347656 650.238281 490.050781 C 650.960938 489.75 651.648438 489.382812 652.296875 488.949219 C 652.945312 488.515625 653.546875 488.023438 654.101562 487.46875 C 654.652344 486.917969 655.144531 486.316406 655.582031 485.667969 C 656.015625 485.015625 656.382812 484.332031 656.679688 483.609375 C 656.980469 482.886719 657.207031 482.140625 657.359375 481.375 C 657.511719 480.609375 657.585938 479.835938 657.585938 479.054688 C 657.585938 478.273438 657.511719 477.5 657.359375 476.730469 C 657.207031 475.964844 656.980469 475.222656 656.679688 474.5 C 656.382812 473.777344 656.015625 473.089844 655.582031 472.441406 C 655.144531 471.792969 654.652344 471.191406 654.101562 470.636719 C 653.546875 470.085938 652.945312 469.589844 652.296875 469.15625 C 651.648438 468.722656 650.960938 468.355469 650.238281 468.058594 C 649.515625 467.757812 648.773438 467.53125 648.007812 467.378906 C 647.238281 467.226562 646.464844 467.152344 645.683594 467.152344 Z M 300.519531 467.152344 L 300.519531 300.519531 L 467.152344 300.519531 L 467.152344 467.152344 Z M 300.519531 467.152344 " fill-opacity="1" fill-rule="nonzero"/></g><path fill="rgb(100%, 75.689697%, 2.749634%)" d="M 252.914062 193.402344 C 252.914062 195.351562 252.816406 197.296875 252.625 199.234375 C 252.433594 201.175781 252.148438 203.101562 251.769531 205.011719 C 251.390625 206.921875 250.914062 208.8125 250.351562 210.675781 C 249.785156 212.542969 249.128906 214.375 248.382812 216.175781 C 247.636719 217.976562 246.804688 219.734375 245.886719 221.453125 C 244.964844 223.171875 243.964844 224.84375 242.882812 226.464844 C 241.800781 228.085938 240.640625 229.648438 239.402344 231.15625 C 238.167969 232.660156 236.859375 234.105469 235.480469 235.480469 C 234.105469 236.859375 232.660156 238.167969 231.15625 239.402344 C 229.648438 240.640625 228.085938 241.800781 226.464844 242.882812 C 224.84375 243.964844 223.171875 244.964844 221.453125 245.886719 C 219.734375 246.804688 217.976562 247.636719 216.175781 248.382812 C 214.375 249.128906 212.542969 249.785156 210.675781 250.351562 C 208.8125 250.914062 206.921875 251.390625 205.011719 251.769531 C 203.101562 252.148438 201.175781 252.433594 199.234375 252.625 C 197.296875 252.816406 195.351562 252.914062 193.402344 252.914062 C 191.453125 252.914062 189.507812 252.816406 187.570312 252.625 C 185.628906 252.433594 183.703125 252.148438 181.792969 251.769531 C 179.878906 251.390625 177.992188 250.914062 176.125 250.351562 C 174.261719 249.785156 172.429688 249.128906 170.628906 248.382812 C 168.828125 247.636719 167.066406 246.804688 165.347656 245.886719 C 163.628906 244.964844 161.960938 243.964844 160.339844 242.882812 C 158.71875 241.800781 157.15625 240.640625 155.648438 239.402344 C 154.140625 238.167969 152.699219 236.859375 151.320312 235.480469 C 149.941406 234.105469 148.636719 232.660156 147.398438 231.15625 C 146.164062 229.648438 145.003906 228.085938 143.921875 226.464844 C 142.835938 224.84375 141.835938 223.171875 140.917969 221.453125 C 140 219.734375 139.167969 217.976562 138.421875 216.175781 C 137.675781 214.375 137.019531 212.542969 136.453125 210.675781 C 135.886719 208.8125 135.414062 206.921875 135.035156 205.011719 C 134.652344 203.101562 134.367188 201.175781 134.175781 199.234375 C 133.984375 197.296875 133.890625 195.351562 133.890625 193.402344 C 133.890625 191.453125 133.984375 189.507812 134.175781 187.570312 C 134.367188 185.628906 134.652344 183.703125 135.035156 181.792969 C 135.414062 179.878906 135.886719 177.992188 136.453125 176.125 C 137.019531 174.261719 137.675781 172.429688 138.421875 170.628906 C 139.167969 168.828125 140 167.066406 140.917969 165.347656 C 141.835938 163.628906 142.835938 161.960938 143.921875 160.339844 C 145.003906 158.71875 146.164062 157.15625 147.398438 155.648438 C 148.636719 154.140625 149.941406 152.699219 151.320312 151.320312 C 152.699219 149.941406 154.140625 148.636719 155.648438 147.398438 C 157.15625 146.164062 158.71875 145.003906 160.339844 143.921875 C 161.960938 142.835938 163.628906 141.835938 165.347656 140.917969 C 167.066406 140 168.828125 139.167969 170.628906 138.421875 C 172.429688 137.675781 174.261719 137.019531 176.125 136.453125 C 177.992188 135.886719 179.878906 135.414062 181.792969 135.035156 C 183.703125 134.652344 185.628906 134.367188 187.570312 134.175781 C 189.507812 133.984375 191.453125 133.890625 193.402344 133.890625 C 195.351562 133.890625 197.296875 133.984375 199.234375 134.175781 C 201.175781 134.367188 203.101562 134.652344 205.011719 135.035156 C 206.921875 135.414062 208.8125 135.886719 210.675781 136.453125 C 212.542969 137.019531 214.375 137.675781 216.175781 138.421875 C 217.976562 139.167969 219.734375 140 221.453125 140.917969 C 223.171875 141.835938 224.84375 142.835938 226.464844 143.921875 C 228.085938 145.003906 229.648438 146.164062 231.15625 147.398438 C 232.660156 148.636719 234.105469 149.941406 235.480469 151.320312 C 236.859375 152.699219 238.167969 154.140625 239.402344 155.648438 C 240.640625 157.15625 241.800781 158.71875 242.882812 160.339844 C 243.964844 161.960938 244.964844 163.628906 245.886719 165.347656 C 246.804688 167.066406 247.636719 168.828125 248.382812 170.628906 C 249.128906 172.429688 249.785156 174.261719 250.351562 176.125 C 250.914062 177.992188 251.390625 179.878906 251.769531 181.792969 C 252.148438 183.703125 252.433594 185.628906 252.625 187.570312 C 252.816406 189.507812 252.914062 191.453125 252.914062 193.402344 Z M 252.914062 193.402344 " fill-opacity="1" fill-rule="nonzero"/><path fill="rgb(100%, 75.689697%, 2.749634%)" d="M 633.78125 383.835938 C 633.78125 385.785156 633.6875 387.730469 633.496094 389.667969 C 633.304688 391.609375 633.019531 393.535156 632.636719 395.445312 C 632.257812 397.359375 631.785156 399.246094 631.21875 401.113281 C 630.652344 402.976562 629.996094 404.808594 629.253906 406.609375 C 628.507812 408.410156 627.675781 410.171875 626.753906 411.890625 C 625.835938 413.609375 624.835938 415.277344 623.753906 416.898438 C 622.667969 418.519531 621.511719 420.082031 620.273438 421.589844 C 619.039062 423.097656 617.730469 424.539062 616.351562 425.917969 C 614.972656 427.296875 613.53125 428.601562 612.023438 429.839844 C 610.519531 431.074219 608.953125 432.234375 607.332031 433.316406 C 605.714844 434.402344 604.042969 435.402344 602.324219 436.320312 C 600.605469 437.238281 598.84375 438.070312 597.042969 438.816406 C 595.246094 439.5625 593.410156 440.21875 591.546875 440.785156 C 589.679688 441.351562 587.792969 441.824219 585.882812 442.203125 C 583.96875 442.582031 582.042969 442.871094 580.105469 443.0625 C 578.164062 443.25 576.21875 443.347656 574.269531 443.347656 C 572.320312 443.347656 570.378906 443.25 568.4375 443.0625 C 566.5 442.871094 564.574219 442.582031 562.660156 442.203125 C 560.75 441.824219 558.859375 441.351562 556.996094 440.785156 C 555.128906 440.21875 553.296875 439.5625 551.496094 438.816406 C 549.695312 438.070312 547.9375 437.238281 546.21875 436.320312 C 544.5 435.402344 542.828125 434.402344 541.207031 433.316406 C 539.589844 432.234375 538.023438 431.074219 536.519531 429.839844 C 535.011719 428.601562 533.570312 427.296875 532.191406 425.917969 C 530.8125 424.539062 529.503906 423.097656 528.269531 421.589844 C 527.03125 420.082031 525.871094 418.519531 524.789062 416.898438 C 523.707031 415.277344 522.707031 413.609375 521.789062 411.890625 C 520.867188 410.171875 520.035156 408.410156 519.289062 406.609375 C 518.542969 404.808594 517.886719 402.976562 517.324219 401.113281 C 516.757812 399.246094 516.285156 397.359375 515.902344 395.445312 C 515.523438 393.535156 515.238281 391.609375 515.046875 389.667969 C 514.855469 387.730469 514.761719 385.785156 514.761719 383.835938 C 514.761719 381.886719 514.855469 379.941406 515.046875 378.003906 C 515.238281 376.0625 515.523438 374.136719 515.902344 372.226562 C 516.285156 370.316406 516.757812 368.425781 517.324219 366.5625 C 517.886719 364.695312 518.542969 362.863281 519.289062 361.0625 C 520.035156 359.261719 520.867188 357.503906 521.789062 355.78125 C 522.707031 354.0625 523.707031 352.394531 524.789062 350.773438 C 525.871094 349.152344 527.03125 347.589844 528.269531 346.082031 C 529.503906 344.578125 530.8125 343.132812 532.191406 341.753906 C 533.570312 340.378906 535.011719 339.070312 536.519531 337.832031 C 538.023438 336.597656 539.589844 335.4375 541.207031 334.355469 C 542.828125 333.273438 544.5 332.269531 546.21875 331.351562 C 547.9375 330.433594 549.695312 329.601562 551.496094 328.855469 C 553.296875 328.109375 555.128906 327.453125 556.996094 326.886719 C 558.859375 326.320312 560.75 325.847656 562.660156 325.46875 C 564.574219 325.089844 566.5 324.804688 568.4375 324.613281 C 570.378906 324.421875 572.320312 324.324219 574.269531 324.324219 C 576.21875 324.324219 578.164062 324.421875 580.105469 324.613281 C 582.042969 324.804688 583.96875 325.089844 585.882812 325.46875 C 587.792969 325.847656 589.679688 326.320312 591.546875 326.886719 C 593.410156 327.453125 595.246094 328.109375 597.042969 328.855469 C 598.84375 329.601562 600.605469 330.433594 602.324219 331.351562 C 604.042969 332.269531 605.714844 333.273438 607.332031 334.355469 C 608.953125 335.4375 610.519531 336.597656 612.023438 337.832031 C 613.53125 339.070312 614.972656 340.378906 616.351562 341.753906 C 617.730469 343.132812 619.039062 344.578125 620.273438 346.082031 C 621.511719 347.589844 622.667969 349.152344 623.753906 350.773438 C 624.835938 352.394531 625.835938 354.0625 626.753906 355.78125 C 627.671875 357.503906 628.507812 359.261719 629.25 361.0625 C 629.996094 362.863281 630.652344 364.695312 631.21875 366.5625 C 631.785156 368.425781 632.257812 370.316406 632.636719 372.226562 C 633.019531 374.136719 633.304688 376.0625 633.496094 378.003906 C 633.6875 379.941406 633.78125 381.886719 633.78125 383.835938 Z M 633.78125 383.835938 " fill-opacity="1" fill-rule="nonzero"/><path fill="rgb(100%, 75.689697%, 2.749634%)" d="M 443.347656 574.269531 C 443.347656 576.21875 443.25 578.164062 443.0625 580.105469 C 442.871094 582.042969 442.582031 583.96875 442.203125 585.882812 C 441.824219 587.792969 441.351562 589.679688 440.785156 591.546875 C 440.21875 593.410156 439.5625 595.246094 438.816406 597.046875 C 438.070312 598.84375 437.238281 600.605469 436.320312 602.324219 C 435.402344 604.042969 434.402344 605.714844 433.316406 607.332031 C 432.234375 608.953125 431.074219 610.519531 429.839844 612.023438 C 428.601562 613.53125 427.296875 614.972656 425.917969 616.351562 C 424.539062 617.730469 423.097656 619.039062 421.589844 620.273438 C 420.082031 621.511719 418.519531 622.667969 416.898438 623.753906 C 415.277344 624.835938 413.609375 625.835938 411.890625 626.753906 C 410.171875 627.671875 408.410156 628.507812 406.609375 629.25 C 404.808594 629.996094 402.976562 630.652344 401.113281 631.21875 C 399.246094 631.785156 397.359375 632.257812 395.445312 632.636719 C 393.535156 633.019531 391.609375 633.304688 389.667969 633.496094 C 387.730469 633.6875 385.785156 633.78125 383.835938 633.78125 C 381.886719 633.78125 379.941406 633.6875 378.003906 633.496094 C 376.0625 633.304688 374.136719 633.019531 372.226562 632.636719 C 370.316406 632.257812 368.425781 631.785156 366.5625 631.21875 C 364.695312 630.652344 362.863281 629.996094 361.0625 629.253906 C 359.261719 628.507812 357.503906 627.675781 355.78125 626.753906 C 354.0625 625.835938 352.394531 624.835938 350.773438 623.753906 C 349.152344 622.667969 347.589844 621.511719 346.082031 620.273438 C 344.578125 619.039062 343.132812 617.730469 341.753906 616.351562 C 340.378906 614.972656 339.070312 613.53125 337.832031 612.023438 C 336.597656 610.519531 335.4375 608.953125 334.355469 607.332031 C 333.273438 605.714844 332.269531 604.042969 331.351562 602.324219 C 330.433594 600.605469 329.601562 598.84375 328.855469 597.046875 C 328.109375 595.246094 327.453125 593.410156 326.886719 591.546875 C 326.320312 589.679688 325.847656 587.792969 325.46875 585.882812 C 325.089844 583.96875 324.804688 582.042969 324.613281 580.105469 C 324.421875 578.164062 324.324219 576.21875 324.324219 574.269531 C 324.324219 572.320312 324.421875 570.378906 324.613281 568.4375 C 324.804688 566.5 325.089844 564.574219 325.46875 562.660156 C 325.847656 560.75 326.320312 558.859375 326.886719 556.996094 C 327.453125 555.132812 328.109375 553.296875 328.855469 551.496094 C 329.601562 549.695312 330.433594 547.9375 331.351562 546.21875 C 332.269531 544.5 333.273438 542.828125 334.355469 541.207031 C 335.4375 539.589844 336.597656 538.023438 337.832031 536.519531 C 339.070312 535.011719 340.378906 533.570312 341.753906 532.191406 C 343.132812 530.8125 344.578125 529.503906 346.082031 528.269531 C 347.589844 527.03125 349.152344 525.871094 350.773438 524.789062 C 352.394531 523.707031 354.0625 522.707031 355.78125 521.789062 C 357.503906 520.867188 359.261719 520.035156 361.0625 519.289062 C 362.863281 518.542969 364.695312 517.886719 366.5625 517.324219 C 368.425781 516.757812 370.316406 516.285156 372.226562 515.902344 C 374.136719 515.523438 376.0625 515.238281 378.003906 515.046875 C 379.941406 514.855469 381.886719 514.761719 383.835938 514.761719 C 385.785156 514.761719 387.730469 514.855469 389.667969 515.046875 C 391.609375 515.238281 393.535156 515.523438 395.445312 515.902344 C 397.359375 516.285156 399.246094 516.757812 401.113281 517.324219 C 402.976562 517.886719 404.808594 518.542969 406.609375 519.289062 C 408.410156 520.035156 410.171875 520.867188 411.890625 521.789062 C 413.609375 522.707031 415.277344 523.707031 416.898438 524.789062 C 418.519531 525.871094 420.082031 527.03125 421.589844 528.269531 C 423.097656 529.503906 424.539062 530.8125 425.917969 532.191406 C 427.296875 533.570312 428.601562 535.011719 429.839844 536.519531 C 431.074219 538.023438 432.234375 539.589844 433.316406 541.207031 C 434.402344 542.828125 435.402344 544.5 436.320312 546.21875 C 437.238281 547.9375 438.070312 549.695312 438.816406 551.496094 C 439.5625 553.296875 440.21875 555.132812 440.785156 556.996094 C 441.351562 558.859375 441.824219 560.75 442.203125 562.660156 C 442.582031 564.574219 442.871094 566.5 443.0625 568.4375 C 443.25 570.378906 443.347656 572.320312 443.347656 574.269531 Z M 443.347656 574.269531 " fill-opacity="1" fill-rule="nonzero"/><path fill="rgb(0%, 58.81958%, 53.329468%)" d="M 439.871094 327.800781 C 439.320312 327.25 438.71875 326.753906 438.066406 326.320312 C 437.417969 325.886719 436.734375 325.519531 436.011719 325.222656 C 435.289062 324.921875 434.542969 324.695312 433.777344 324.542969 C 433.011719 324.390625 432.238281 324.316406 431.457031 324.316406 C 430.675781 324.316406 429.902344 324.390625 429.136719 324.542969 C 428.367188 324.695312 427.625 324.921875 426.902344 325.222656 C 426.179688 325.519531 425.496094 325.886719 424.84375 326.320312 C 424.195312 326.753906 423.59375 327.25 423.042969 327.800781 L 383.835938 367.007812 L 344.65625 327.800781 C 344.097656 327.265625 343.496094 326.785156 342.847656 326.367188 C 342.199219 325.945312 341.515625 325.59375 340.796875 325.308594 C 340.078125 325.019531 339.339844 324.808594 338.582031 324.664062 C 337.820312 324.523438 337.054688 324.453125 336.28125 324.460938 C 335.507812 324.46875 334.746094 324.546875 333.988281 324.703125 C 333.230469 324.859375 332.496094 325.085938 331.785156 325.386719 C 331.070312 325.683594 330.394531 326.050781 329.753906 326.480469 C 329.109375 326.910156 328.515625 327.398438 327.96875 327.945312 C 327.421875 328.492188 326.933594 329.085938 326.503906 329.726562 C 326.074219 330.371094 325.707031 331.046875 325.410156 331.757812 C 325.109375 332.472656 324.882812 333.207031 324.726562 333.964844 C 324.570312 334.722656 324.492188 335.484375 324.484375 336.257812 C 324.476562 337.03125 324.546875 337.796875 324.6875 338.558594 C 324.832031 339.316406 325.042969 340.054688 325.332031 340.773438 C 325.617188 341.492188 325.96875 342.175781 326.390625 342.824219 C 326.808594 343.472656 327.289062 344.074219 327.824219 344.628906 L 367.007812 383.835938 L 327.800781 423.019531 C 327.234375 423.566406 326.722656 424.167969 326.273438 424.816406 C 325.824219 425.46875 325.445312 426.15625 325.132812 426.882812 C 324.820312 427.609375 324.585938 428.359375 324.421875 429.128906 C 324.257812 429.902344 324.175781 430.6875 324.167969 431.476562 C 324.160156 432.265625 324.230469 433.050781 324.382812 433.824219 C 324.53125 434.601562 324.753906 435.355469 325.054688 436.085938 C 325.351562 436.816406 325.722656 437.511719 326.160156 438.171875 C 326.597656 438.828125 327.09375 439.4375 327.652344 439.996094 C 328.210938 440.554688 328.820312 441.050781 329.476562 441.492188 C 330.136719 441.929688 330.832031 442.296875 331.5625 442.59375 C 332.292969 442.894531 333.046875 443.117188 333.824219 443.269531 C 334.597656 443.417969 335.382812 443.488281 336.171875 443.480469 C 336.964844 443.472656 337.746094 443.390625 338.519531 443.226562 C 339.292969 443.066406 340.042969 442.828125 340.765625 442.515625 C 341.492188 442.203125 342.179688 441.824219 342.832031 441.375 C 343.480469 440.925781 344.082031 440.417969 344.628906 439.847656 L 383.835938 400.667969 L 423.019531 439.847656 C 423.574219 440.386719 424.175781 440.863281 424.824219 441.28125 C 425.476562 441.703125 426.15625 442.054688 426.875 442.339844 C 427.59375 442.628906 428.332031 442.84375 429.09375 442.984375 C 429.851562 443.128906 430.617188 443.195312 431.390625 443.1875 C 432.164062 443.183594 432.929688 443.101562 433.683594 442.945312 C 434.441406 442.789062 435.175781 442.5625 435.890625 442.261719 C 436.601562 441.964844 437.277344 441.597656 437.921875 441.167969 C 438.5625 440.738281 439.15625 440.25 439.703125 439.703125 C 440.25 439.15625 440.738281 438.5625 441.167969 437.921875 C 441.597656 437.277344 441.964844 436.601562 442.261719 435.890625 C 442.5625 435.175781 442.789062 434.441406 442.945312 433.683594 C 443.101562 432.929688 443.183594 432.164062 443.1875 431.390625 C 443.195312 430.617188 443.128906 429.851562 442.984375 429.09375 C 442.84375 428.332031 442.628906 427.59375 442.339844 426.875 C 442.054688 426.15625 441.703125 425.476562 441.28125 424.824219 C 440.863281 424.175781 440.386719 423.574219 439.847656 423.019531 L 400.664062 383.835938 L 439.847656 344.65625 C 440.402344 344.101562 440.898438 343.5 441.335938 342.851562 C 441.773438 342.203125 442.140625 341.515625 442.441406 340.792969 C 442.742188 340.070312 442.96875 339.324219 443.125 338.558594 C 443.277344 337.789062 443.355469 337.015625 443.355469 336.234375 C 443.359375 335.449219 443.28125 334.675781 443.128906 333.90625 C 442.980469 333.140625 442.753906 332.394531 442.453125 331.667969 C 442.15625 330.945312 441.789062 330.257812 441.355469 329.609375 C 440.917969 328.957031 440.425781 328.355469 439.871094 327.800781 Z M 439.871094 327.800781 " fill-opacity="1" fill-rule="nonzero"/><path fill="rgb(0%, 58.81958%, 53.329468%)" d="M 249.4375 518.234375 C 248.882812 517.683594 248.285156 517.191406 247.632812 516.757812 C 246.984375 516.320312 246.296875 515.957031 245.574219 515.65625 C 244.855469 515.359375 244.109375 515.132812 243.34375 514.980469 C 242.578125 514.828125 241.804688 514.75 241.023438 514.75 C 240.242188 514.75 239.46875 514.828125 238.699219 514.980469 C 237.933594 515.132812 237.191406 515.359375 236.46875 515.65625 C 235.746094 515.957031 235.058594 516.320312 234.410156 516.757812 C 233.761719 517.191406 233.160156 517.683594 232.605469 518.234375 L 193.402344 557.441406 L 154.21875 518.234375 C 153.664062 517.699219 153.0625 517.21875 152.414062 516.800781 C 151.761719 516.382812 151.078125 516.027344 150.363281 515.742188 C 149.644531 515.457031 148.90625 515.242188 148.144531 515.097656 C 147.386719 514.957031 146.621094 514.886719 145.847656 514.894531 C 145.074219 514.902344 144.308594 514.984375 143.554688 515.136719 C 142.796875 515.292969 142.0625 515.519531 141.347656 515.820312 C 140.636719 516.117188 139.957031 516.484375 139.316406 516.914062 C 138.675781 517.34375 138.082031 517.835938 137.535156 518.378906 C 136.988281 518.925781 136.5 519.519531 136.070312 520.164062 C 135.636719 520.804688 135.273438 521.480469 134.972656 522.195312 C 134.675781 522.90625 134.449219 523.640625 134.292969 524.398438 C 134.136719 525.15625 134.054688 525.921875 134.050781 526.691406 C 134.042969 527.464844 134.109375 528.230469 134.253906 528.992188 C 134.394531 529.75 134.609375 530.488281 134.894531 531.207031 C 135.183594 531.925781 135.535156 532.609375 135.957031 533.257812 C 136.375 533.90625 136.851562 534.507812 137.390625 535.066406 L 176.570312 574.269531 L 137.367188 613.453125 C 136.796875 614.003906 136.289062 614.601562 135.839844 615.253906 C 135.390625 615.902344 135.011719 616.589844 134.699219 617.316406 C 134.386719 618.042969 134.148438 618.792969 133.988281 619.566406 C 133.824219 620.339844 133.738281 621.121094 133.734375 621.910156 C 133.726562 622.699219 133.796875 623.484375 133.945312 624.261719 C 134.097656 625.035156 134.320312 625.789062 134.621094 626.519531 C 134.917969 627.253906 135.285156 627.945312 135.722656 628.605469 C 136.160156 629.261719 136.660156 629.871094 137.21875 630.429688 C 137.777344 630.988281 138.386719 631.488281 139.042969 631.925781 C 139.703125 632.363281 140.398438 632.730469 141.128906 633.03125 C 141.859375 633.328125 142.613281 633.554688 143.390625 633.703125 C 144.164062 633.851562 144.949219 633.921875 145.738281 633.914062 C 146.527344 633.910156 147.308594 633.824219 148.082031 633.660156 C 148.855469 633.5 149.605469 633.261719 150.332031 632.949219 C 151.058594 632.636719 151.746094 632.257812 152.398438 631.808594 C 153.046875 631.359375 153.648438 630.851562 154.195312 630.28125 L 193.402344 591.101562 L 232.582031 630.28125 C 233.132812 630.851562 233.730469 631.359375 234.382812 631.808594 C 235.03125 632.257812 235.722656 632.636719 236.445312 632.949219 C 237.171875 633.261719 237.921875 633.5 238.695312 633.660156 C 239.46875 633.824219 240.25 633.910156 241.042969 633.914062 C 241.832031 633.921875 242.613281 633.851562 243.390625 633.703125 C 244.167969 633.554688 244.921875 633.328125 245.652344 633.03125 C 246.382812 632.730469 247.078125 632.363281 247.734375 631.925781 C 248.394531 631.488281 249 630.988281 249.5625 630.429688 C 250.121094 629.871094 250.617188 629.261719 251.054688 628.605469 C 251.492188 627.945312 251.859375 627.253906 252.160156 626.519531 C 252.460938 625.789062 252.683594 625.035156 252.832031 624.261719 C 252.980469 623.484375 253.054688 622.699219 253.046875 621.910156 C 253.039062 621.121094 252.953125 620.339844 252.792969 619.566406 C 252.628906 618.792969 252.390625 618.042969 252.082031 617.316406 C 251.769531 616.589844 251.386719 615.902344 250.9375 615.253906 C 250.488281 614.601562 249.980469 614.003906 249.414062 613.453125 L 210.230469 574.269531 L 249.414062 535.089844 C 249.96875 534.539062 250.464844 533.9375 250.898438 533.285156 C 251.335938 532.636719 251.707031 531.949219 252.007812 531.226562 C 252.308594 530.503906 252.535156 529.761719 252.6875 528.992188 C 252.84375 528.226562 252.921875 527.449219 252.921875 526.667969 C 252.921875 525.882812 252.847656 525.109375 252.695312 524.339844 C 252.542969 523.574219 252.320312 522.828125 252.019531 522.105469 C 251.71875 521.382812 251.355469 520.695312 250.917969 520.042969 C 250.484375 519.390625 249.992188 518.789062 249.4375 518.234375 Z M 249.4375 518.234375 " fill-opacity="1" fill-rule="nonzero"/><path fill="rgb(0%, 58.81958%, 53.329468%)" d="M 591.101562 193.402344 L 630.28125 154.21875 C 630.851562 153.671875 631.359375 153.070312 631.808594 152.421875 C 632.257812 151.769531 632.636719 151.082031 632.949219 150.355469 C 633.261719 149.628906 633.5 148.878906 633.660156 148.105469 C 633.824219 147.332031 633.910156 146.550781 633.914062 145.761719 C 633.921875 144.972656 633.851562 144.1875 633.703125 143.414062 C 633.554688 142.636719 633.328125 141.882812 633.03125 141.152344 C 632.730469 140.421875 632.363281 139.726562 631.925781 139.066406 C 631.488281 138.410156 630.988281 137.800781 630.429688 137.242188 C 629.871094 136.683594 629.261719 136.1875 628.605469 135.75 C 627.945312 135.3125 627.253906 134.941406 626.519531 134.644531 C 625.789062 134.34375 625.035156 134.121094 624.261719 133.96875 C 623.484375 133.820312 622.699219 133.75 621.910156 133.757812 C 621.121094 133.765625 620.339844 133.847656 619.566406 134.011719 C 618.792969 134.171875 618.042969 134.410156 617.316406 134.722656 C 616.589844 135.035156 615.902344 135.414062 615.25 135.863281 C 614.601562 136.3125 614.003906 136.820312 613.453125 137.390625 L 574.269531 176.570312 L 535.089844 137.367188 C 534.535156 136.828125 533.929688 136.351562 533.28125 135.929688 C 532.632812 135.511719 531.949219 135.160156 531.230469 134.871094 C 530.515625 134.585938 529.773438 134.371094 529.015625 134.230469 C 528.257812 134.085938 527.488281 134.019531 526.71875 134.023438 C 525.945312 134.03125 525.179688 134.113281 524.421875 134.269531 C 523.664062 134.425781 522.929688 134.652344 522.21875 134.949219 C 521.503906 135.25 520.828125 135.613281 520.1875 136.046875 C 519.542969 136.476562 518.949219 136.964844 518.402344 137.511719 C 517.859375 138.058594 517.367188 138.652344 516.9375 139.292969 C 516.507812 139.933594 516.144531 140.613281 515.84375 141.324219 C 515.546875 142.039062 515.316406 142.773438 515.164062 143.527344 C 515.007812 144.285156 514.925781 145.050781 514.917969 145.824219 C 514.910156 146.597656 514.980469 147.363281 515.121094 148.121094 C 515.265625 148.882812 515.480469 149.621094 515.765625 150.339844 C 516.050781 151.054688 516.40625 151.738281 516.824219 152.386719 C 517.246094 153.039062 517.722656 153.640625 518.257812 154.195312 L 557.441406 193.402344 L 518.234375 232.582031 C 517.667969 233.132812 517.160156 233.730469 516.710938 234.382812 C 516.261719 235.03125 515.878906 235.722656 515.570312 236.445312 C 515.257812 237.171875 515.019531 237.921875 514.855469 238.695312 C 514.695312 239.46875 514.609375 240.25 514.601562 241.042969 C 514.597656 241.832031 514.667969 242.613281 514.816406 243.390625 C 514.964844 244.167969 515.1875 244.921875 515.488281 245.652344 C 515.789062 246.382812 516.15625 247.078125 516.59375 247.734375 C 517.03125 248.394531 517.53125 249 518.089844 249.5625 C 518.648438 250.121094 519.253906 250.617188 519.914062 251.054688 C 520.570312 251.492188 521.265625 251.859375 521.996094 252.160156 C 522.730469 252.460938 523.484375 252.683594 524.257812 252.832031 C 525.035156 252.980469 525.816406 253.054688 526.609375 253.046875 C 527.398438 253.039062 528.179688 252.953125 528.953125 252.792969 C 529.726562 252.628906 530.476562 252.390625 531.203125 252.082031 C 531.929688 251.769531 532.617188 251.386719 533.265625 250.9375 C 533.917969 250.488281 534.515625 249.980469 535.066406 249.414062 L 574.269531 210.230469 L 613.453125 249.414062 C 614.003906 249.980469 614.601562 250.492188 615.253906 250.9375 C 615.902344 251.386719 616.589844 251.769531 617.316406 252.082031 C 618.042969 252.390625 618.792969 252.628906 619.566406 252.792969 C 620.339844 252.953125 621.121094 253.039062 621.910156 253.046875 C 622.699219 253.054688 623.484375 252.980469 624.261719 252.832031 C 625.035156 252.683594 625.789062 252.460938 626.519531 252.160156 C 627.253906 251.859375 627.945312 251.492188 628.605469 251.054688 C 629.261719 250.617188 629.871094 250.121094 630.429688 249.5625 C 630.988281 249 631.488281 248.394531 631.925781 247.734375 C 632.363281 247.078125 632.730469 246.382812 633.03125 245.652344 C 633.328125 244.921875 633.554688 244.167969 633.703125 243.390625 C 633.851562 242.613281 633.921875 241.832031 633.914062 241.042969 C 633.910156 240.25 633.824219 239.46875 633.660156 238.695312 C 633.5 237.921875 633.261719 237.171875 632.949219 236.445312 C 632.636719 235.722656 632.257812 235.03125 631.808594 234.382812 C 631.359375 233.730469 630.851562 233.132812 630.28125 232.582031 Z M 591.101562 193.402344 " fill-opacity="1" fill-rule="nonzero"/></svg>