<?xml version="1.0" encoding="UTF-8"?><svg xmlns="http://www.w3.org/2000/svg" xmlns:xlink="http://www.w3.org/1999/xlink" contentScriptType="text/ecmascript" width="768" zoomAndPan="magnify" contentStyleType="text/css" viewBox="0 0 768 767.999994" height="767.999994" preserveAspectRatio="xMidYMid meet" version="1.0"><defs><clipPath id="clip-0"><path d="M 89.847656 116.800781 L 677.847656 116.800781 L 677.847656 651 L 89.847656 651 Z M 89.847656 116.800781 " clip-rule="nonzero"/></clipPath><clipPath id="clip-1"><path d="M 463 670 L 625 670 L 625 691.300781 L 463 691.300781 Z M 463 670 " clip-rule="nonzero"/></clipPath></defs><rect x="-76.8" width="921.6" fill="rgb(100%, 100%, 100%)" y="-76.799999" height="921.599993" fill-opacity="1"/><rect x="-76.8" width="921.6" fill="rgb(100%, 100%, 100%)" y="-76.799999" height="921.599993" fill-opacity="1"/><rect x="-76.8" width="921.6" fill="rgb(0%, 0%, 0%)" y="-76.799999" height="921.599993" fill-opacity="1"/><g clip-path="url(#clip-0)"><path fill="rgb(45.489502%, 78.819275%, 88.62915%)" d="M 639.257812 650.503906 L 128.667969 650.503906 C 107.304688 650.503906 89.972656 633.183594 89.972656 611.78125 L 89.972656 155.5 C 89.972656 134.121094 107.28125 116.777344 128.667969 116.777344 L 639.28125 116.777344 C 660.644531 116.777344 677.976562 134.097656 677.976562 155.5 L 677.976562 611.78125 C 677.953125 633.183594 660.621094 650.503906 639.257812 650.503906 Z M 639.257812 650.503906 " fill-opacity="1" fill-rule="nonzero"/></g><path fill="rgb(100%, 100%, 100%)" d="M 143.625 165.511719 L 624.277344 165.511719 L 624.277344 601.792969 L 143.625 601.792969 Z M 143.625 165.511719 " fill-opacity="1" fill-rule="nonzero"/><path fill="rgb(18.818665%, 20.388794%, 23.139954%)" d="M 143.625 165.511719 L 223.738281 165.511719 L 223.738281 252.828125 L 143.625 252.828125 Z M 143.625 165.511719 " fill-opacity="1" fill-rule="nonzero"/><path fill="rgb(18.818665%, 20.388794%, 23.139954%)" d="M 303.851562 165.511719 L 383.964844 165.511719 L 383.964844 252.828125 L 303.851562 252.828125 Z M 303.851562 165.511719 " fill-opacity="1" fill-rule="nonzero"/><path fill="rgb(18.818665%, 20.388794%, 23.139954%)" d="M 464.074219 165.511719 L 544.1875 165.511719 L 544.1875 252.828125 L 464.074219 252.828125 Z M 464.074219 165.511719 " fill-opacity="1" fill-rule="nonzero"/><path fill="rgb(18.818665%, 20.388794%, 23.139954%)" d="M 223.738281 252.828125 L 303.851562 252.828125 L 303.851562 340.144531 L 223.738281 340.144531 Z M 223.738281 252.828125 " fill-opacity="1" fill-rule="nonzero"/><path fill="rgb(18.818665%, 20.388794%, 23.139954%)" d="M 383.964844 252.828125 L 464.074219 252.828125 L 464.074219 340.144531 L 383.964844 340.144531 Z M 383.964844 252.828125 " fill-opacity="1" fill-rule="nonzero"/><path fill="rgb(18.818665%, 20.388794%, 23.139954%)" d="M 544.1875 252.828125 L 624.300781 252.828125 L 624.300781 340.144531 L 544.1875 340.144531 Z M 544.1875 252.828125 " fill-opacity="1" fill-rule="nonzero"/><path fill="rgb(18.818665%, 20.388794%, 23.139954%)" d="M 143.625 340.121094 L 223.738281 340.121094 L 223.738281 427.4375 L 143.625 427.4375 Z M 143.625 340.121094 " fill-opacity="1" fill-rule="nonzero"/><path fill="rgb(18.818665%, 20.388794%, 23.139954%)" d="M 303.851562 340.121094 L 383.964844 340.121094 L 383.964844 427.4375 L 303.851562 427.4375 Z M 303.851562 340.121094 " fill-opacity="1" fill-rule="nonzero"/><path fill="rgb(18.818665%, 20.388794%, 23.139954%)" d="M 464.074219 340.121094 L 544.1875 340.121094 L 544.1875 427.4375 L 464.074219 427.4375 Z M 464.074219 340.121094 " fill-opacity="1" fill-rule="nonzero"/><path fill="rgb(18.818665%, 20.388794%, 23.139954%)" d="M 223.738281 427.4375 L 303.851562 427.4375 L 303.851562 514.753906 L 223.738281 514.753906 Z M 223.738281 427.4375 " fill-opacity="1" fill-rule="nonzero"/><path fill="rgb(18.818665%, 20.388794%, 23.139954%)" d="M 383.964844 427.4375 L 464.074219 427.4375 L 464.074219 514.753906 L 383.964844 514.753906 Z M 383.964844 427.4375 " fill-opacity="1" fill-rule="nonzero"/><path fill="rgb(18.818665%, 20.388794%, 23.139954%)" d="M 544.1875 427.4375 L 624.300781 427.4375 L 624.300781 514.753906 L 544.1875 514.753906 Z M 544.1875 427.4375 " fill-opacity="1" fill-rule="nonzero"/><path fill="rgb(18.818665%, 20.388794%, 23.139954%)" d="M 143.625 514.5 L 223.738281 514.5 L 223.738281 601.816406 L 143.625 601.816406 Z M 143.625 514.5 " fill-opacity="1" fill-rule="nonzero"/><path fill="rgb(18.818665%, 20.388794%, 23.139954%)" d="M 303.851562 514.5 L 383.964844 514.5 L 383.964844 601.816406 L 303.851562 601.816406 Z M 303.851562 514.5 " fill-opacity="1" fill-rule="nonzero"/><path fill="rgb(18.818665%, 20.388794%, 23.139954%)" d="M 464.074219 514.5 L 544.1875 514.5 L 544.1875 601.816406 L 464.074219 601.816406 Z M 464.074219 514.5 " fill-opacity="1" fill-rule="nonzero"/><path fill="rgb(96.859741%, 64.709473%, 9.408569%)" d="M 564.445312 360.390625 C 564.445312 361.054688 564.414062 361.71875 564.347656 362.378906 C 564.285156 363.039062 564.1875 363.695312 564.058594 364.347656 C 563.925781 365 563.765625 365.640625 563.574219 366.277344 C 563.382812 366.914062 563.15625 367.535156 562.902344 368.148438 C 562.648438 368.765625 562.367188 369.363281 562.054688 369.949219 C 561.742188 370.535156 561.402344 371.101562 561.03125 371.65625 C 560.664062 372.207031 560.269531 372.738281 559.847656 373.253906 C 559.425781 373.765625 558.980469 374.257812 558.511719 374.726562 C 558.042969 375.195312 557.550781 375.640625 557.039062 376.0625 C 556.527344 376.484375 555.996094 376.878906 555.441406 377.25 C 554.890625 377.617188 554.324219 377.957031 553.738281 378.269531 C 553.152344 378.585938 552.554688 378.867188 551.941406 379.121094 C 551.328125 379.375 550.703125 379.597656 550.070312 379.792969 C 549.433594 379.984375 548.789062 380.144531 548.140625 380.273438 C 547.488281 380.40625 546.832031 380.503906 546.171875 380.566406 C 545.511719 380.632812 544.851562 380.664062 544.1875 380.664062 C 543.523438 380.664062 542.863281 380.632812 542.203125 380.566406 C 541.542969 380.503906 540.886719 380.40625 540.234375 380.273438 C 539.585938 380.144531 538.941406 379.984375 538.308594 379.792969 C 537.671875 379.597656 537.046875 379.375 536.433594 379.121094 C 535.820312 378.867188 535.222656 378.585938 534.636719 378.269531 C 534.054688 377.957031 533.484375 377.617188 532.933594 377.25 C 532.382812 376.878906 531.847656 376.484375 531.335938 376.0625 C 530.824219 375.640625 530.332031 375.195312 529.863281 374.726562 C 529.394531 374.257812 528.949219 373.765625 528.527344 373.253906 C 528.105469 372.738281 527.710938 372.207031 527.34375 371.65625 C 526.976562 371.101562 526.632812 370.535156 526.320312 369.949219 C 526.007812 369.363281 525.726562 368.765625 525.472656 368.148438 C 525.21875 367.535156 524.992188 366.914062 524.800781 366.277344 C 524.609375 365.640625 524.449219 365 524.316406 364.347656 C 524.1875 363.695312 524.089844 363.039062 524.027344 362.378906 C 523.960938 361.71875 523.929688 361.054688 523.929688 360.390625 C 523.929688 359.726562 523.960938 359.066406 524.027344 358.40625 C 524.089844 357.746094 524.1875 357.089844 524.316406 356.4375 C 524.449219 355.785156 524.609375 355.144531 524.800781 354.507812 C 524.992188 353.871094 525.21875 353.246094 525.472656 352.632812 C 525.726562 352.019531 526.007812 351.421875 526.320312 350.835938 C 526.632812 350.25 526.976562 349.683594 527.34375 349.128906 C 527.710938 348.578125 528.105469 348.046875 528.527344 347.53125 C 528.949219 347.019531 529.394531 346.527344 529.863281 346.058594 C 530.332031 345.589844 530.824219 345.144531 531.335938 344.722656 C 531.847656 344.300781 532.382812 343.90625 532.933594 343.535156 C 533.484375 343.167969 534.054688 342.828125 534.636719 342.515625 C 535.222656 342.199219 535.820312 341.917969 536.433594 341.664062 C 537.046875 341.410156 537.671875 341.1875 538.308594 340.992188 C 538.941406 340.800781 539.585938 340.640625 540.234375 340.507812 C 540.886719 340.378906 541.542969 340.28125 542.203125 340.21875 C 542.863281 340.152344 543.523438 340.121094 544.1875 340.121094 C 544.851562 340.121094 545.511719 340.152344 546.171875 340.21875 C 546.832031 340.28125 547.488281 340.378906 548.140625 340.507812 C 548.789062 340.640625 549.433594 340.800781 550.070312 340.992188 C 550.703125 341.1875 551.328125 341.410156 551.941406 341.664062 C 552.554688 341.917969 553.152344 342.199219 553.738281 342.515625 C 554.324219 342.828125 554.890625 343.167969 555.441406 343.535156 C 555.996094 343.90625 556.527344 344.300781 557.039062 344.722656 C 557.550781 345.144531 558.042969 345.589844 558.511719 346.058594 C 558.980469 346.527344 559.425781 347.019531 559.847656 347.53125 C 560.269531 348.046875 560.664062 348.578125 561.03125 349.128906 C 561.402344 349.683594 561.742188 350.25 562.054688 350.835938 C 562.367188 351.421875 562.648438 352.019531 562.902344 352.632812 C 563.15625 353.246094 563.382812 353.871094 563.574219 354.507812 C 563.765625 355.144531 563.925781 355.785156 564.058594 356.4375 C 564.1875 357.089844 564.285156 357.746094 564.347656 358.40625 C 564.414062 359.066406 564.445312 359.726562 564.445312 360.390625 Z M 564.445312 360.390625 " fill-opacity="1" fill-rule="nonzero"/><path fill="rgb(100%, 80.778503%, 0.389099%)" d="M 521.324219 446.234375 L 567.050781 446.234375 C 568.59375 446.234375 569.953125 445.265625 570.484375 443.8125 L 593.484375 379.8125 C 595.097656 375.335938 591.78125 370.632812 587.03125 370.632812 L 501.367188 370.632812 C 496.617188 370.632812 493.300781 375.335938 494.914062 379.8125 L 517.914062 443.8125 C 518.398438 445.265625 519.78125 446.234375 521.324219 446.234375 Z M 521.324219 446.234375 " fill-opacity="1" fill-rule="nonzero"/><path fill="rgb(100%, 80.778503%, 0.389099%)" d="M 517.128906 450.40625 L 571.246094 450.40625 L 571.246094 601.195312 L 517.128906 601.195312 Z M 517.128906 450.40625 " fill-opacity="1" fill-rule="nonzero"/><path fill="rgb(96.859741%, 64.709473%, 9.408569%)" d="M 581.847656 457.304688 L 506.527344 457.304688 C 502.332031 457.304688 498.898438 453.867188 498.898438 449.667969 C 498.898438 445.472656 502.332031 442.035156 506.527344 442.035156 L 581.847656 442.035156 C 586.042969 442.035156 589.476562 445.472656 589.476562 449.667969 C 589.476562 453.867188 586.042969 457.304688 581.847656 457.304688 Z M 581.847656 457.304688 " fill-opacity="1" fill-rule="nonzero"/><path fill="rgb(96.859741%, 64.709473%, 9.408569%)" d="M 581.847656 478.589844 L 506.527344 478.589844 C 502.332031 478.589844 498.898438 475.152344 498.898438 470.957031 C 498.898438 466.757812 502.332031 463.324219 506.527344 463.324219 L 581.847656 463.324219 C 586.042969 463.324219 589.476562 466.757812 589.476562 470.957031 C 589.476562 475.152344 586.042969 478.589844 581.847656 478.589844 Z M 581.847656 478.589844 " fill-opacity="1" fill-rule="nonzero"/><path fill="rgb(100%, 80.778503%, 0.389099%)" d="M 605.5625 640.285156 L 482.789062 640.285156 L 482.789062 638.277344 C 482.789062 617.800781 499.382812 601.195312 519.851562 601.195312 L 568.503906 601.195312 C 588.96875 601.195312 605.5625 617.800781 605.5625 638.277344 Z M 605.5625 640.285156 " fill-opacity="1" fill-rule="nonzero"/><path fill="rgb(100%, 80.778503%, 0.389099%)" d="M 482.789062 647.917969 L 605.5625 647.917969 L 605.5625 677.347656 L 482.789062 677.347656 Z M 482.789062 647.917969 " fill-opacity="1" fill-rule="nonzero"/><g clip-path="url(#clip-1)"><path fill="rgb(96.859741%, 64.709473%, 9.408569%)" d="M 604.433594 670.914062 L 483.917969 670.914062 C 472.671875 670.914062 463.566406 680.023438 463.566406 691.277344 L 624.785156 691.277344 C 624.785156 680.023438 615.679688 670.914062 604.433594 670.914062 Z M 604.433594 670.914062 " fill-opacity="1" fill-rule="nonzero"/></g><path fill="rgb(96.859741%, 64.709473%, 9.408569%)" d="M 617.15625 655.554688 L 471.195312 655.554688 C 467.003906 655.554688 463.566406 652.117188 463.566406 647.917969 C 463.566406 643.722656 467.003906 640.285156 471.195312 640.285156 L 617.15625 640.285156 C 621.351562 640.285156 624.785156 643.722656 624.785156 647.917969 C 624.785156 652.117188 621.351562 655.554688 617.15625 655.554688 Z M 617.15625 655.554688 " fill-opacity="1" fill-rule="nonzero"/></svg>