<svg xmlns="http://www.w3.org/2000/svg" xmlns:xlink="http://www.w3.org/1999/xlink" width="768" viewBox="0 0 768 768" height="768" version="1.0"><defs><g id="b"><path d="M 19.71875 -6.6875 C 19.71875 -3.894531 19.566406 -1.664062 19.265625 0 L 0.953125 0 L 0.765625 -1.03125 C 1.578125 -1.582031 2.484375 -2.082031 3.484375 -2.53125 L 3.484375 -19.109375 L 1.03125 -19.484375 L 1.0625 -21.1875 L 11.8125 -21.1875 L 12 -20.15625 C 11.226562 -19.601562 10.320312 -19.101562 9.28125 -18.65625 L 9.28125 -2.96875 L 14.96875 -3.515625 L 16.421875 -8.15625 L 19.71875 -7.875 Z M 19.71875 -6.6875"/></g><g id="c"><path d="M 10.90625 -21.828125 C 14.019531 -21.828125 16.582031 -20.753906 18.59375 -18.609375 C 20.613281 -16.460938 21.625 -13.691406 21.625 -10.296875 C 21.625 -6.992188 20.65625 -4.34375 18.71875 -2.34375 C 16.78125 -0.351562 14.253906 0.640625 11.140625 0.640625 C 7.984375 0.640625 5.394531 -0.375 3.375 -2.40625 C 1.363281 -4.445312 0.359375 -7.125 0.359375 -10.4375 C 0.359375 -13.78125 1.347656 -16.515625 3.328125 -18.640625 C 5.304688 -20.765625 7.832031 -21.828125 10.90625 -21.828125 Z M 8.515625 -18.296875 C 7.890625 -17.742188 7.382812 -16.820312 7 -15.53125 C 6.625 -14.238281 6.4375 -12.753906 6.4375 -11.078125 C 6.4375 -8.472656 6.898438 -6.382812 7.828125 -4.8125 C 8.753906 -3.25 10.050781 -2.46875 11.71875 -2.46875 C 12.25 -2.46875 12.75 -2.550781 13.21875 -2.71875 C 13.914062 -3.382812 14.476562 -4.390625 14.90625 -5.734375 C 15.332031 -7.078125 15.546875 -8.566406 15.546875 -10.203125 C 15.546875 -12.722656 15.085938 -14.769531 14.171875 -16.34375 C 13.253906 -17.925781 12.03125 -18.71875 10.5 -18.71875 C 9.851562 -18.71875 9.191406 -18.578125 8.515625 -18.296875 Z M 8.515625 -18.296875"/></g><g id="d"><path d="M 23.75 -1.703125 L 23.71875 0 L 12.859375 0 L 12.671875 -1.03125 C 13.265625 -1.445312 14.117188 -1.925781 15.234375 -2.46875 L 14.109375 -5.5 L 7.078125 -5.5 L 5.796875 -2.140625 L 8.546875 -1.703125 L 8.515625 0 L -0.453125 0 L -0.640625 -1.03125 C 0.109375 -1.539062 1.003906 -2.03125 2.046875 -2.5 L 8.890625 -19.359375 L 8.421875 -20.671875 L 13.40625 -21.953125 L 21.4375 -2.046875 Z M 13.09375 -8.1875 L 10.59375 -14.90625 L 8.0625 -8.1875 Z M 13.09375 -8.1875"/></g><g id="e"><path d="M 24.453125 -20.15625 C 23.679688 -19.625 22.828125 -19.15625 21.890625 -18.75 L 21.734375 0 L 16.609375 0.421875 L 7.046875 -13.953125 L 7.484375 -10.078125 L 7.484375 -2.140625 L 10.296875 -1.703125 L 10.265625 0 L 0.953125 0 L 0.765625 -1.03125 C 1.578125 -1.582031 2.484375 -2.082031 3.484375 -2.53125 L 3.484375 -19.078125 L 1.15625 -19.484375 L 1.1875 -21.1875 L 9.03125 -21.1875 L 8.984375 -21.15625 L 18.375 -6.75 L 17.921875 -10.75 L 17.921875 -18.96875 L 14.75 -19.484375 L 14.78125 -21.1875 L 24.25 -21.1875 Z M 24.453125 -20.15625"/></g><g id="g"><path d="M 18.84375 -2.296875 L 12.125 0.546875 C 9.332031 0.648438 7.050781 0.179688 5.28125 -0.859375 C 3.507812 -1.910156 2.234375 -3.273438 1.453125 -4.953125 C 0.671875 -6.640625 0.28125 -8.421875 0.28125 -10.296875 C 0.28125 -12.304688 0.703125 -14.1875 1.546875 -15.9375 C 2.390625 -17.6875 3.65625 -19.101562 5.34375 -20.1875 C 7.03125 -21.28125 9.078125 -21.828125 11.484375 -21.828125 C 14.066406 -21.828125 16.316406 -21.132812 18.234375 -19.75 L 18.265625 -19.140625 C 18.265625 -17.410156 18 -15.5625 17.46875 -13.59375 L 14.015625 -13.59375 L 13.0625 -17.890625 C 11.71875 -18.398438 10.328125 -18.6875 8.890625 -18.75 C 7.953125 -17.914062 7.253906 -16.816406 6.796875 -15.453125 C 6.335938 -14.085938 6.109375 -12.648438 6.109375 -11.140625 C 6.109375 -8.785156 6.65625 -6.863281 7.75 -5.375 C 8.851562 -3.882812 10.441406 -3.160156 12.515625 -3.203125 L 17.953125 -4.921875 Z M 18.84375 -2.296875"/></g><g id="h"><path d="M 23.9375 -20.15625 C 23.164062 -19.601562 22.257812 -19.101562 21.21875 -18.65625 L 21.21875 -9.15625 C 21.195312 -5.695312 20.398438 -3.195312 18.828125 -1.65625 C 17.265625 -0.125 15.191406 0.640625 12.609375 0.640625 C 9.597656 0.640625 7.210938 -0.226562 5.453125 -1.96875 C 3.691406 -3.707031 2.769531 -6.101562 2.6875 -9.15625 L 2.6875 -19.109375 L 0.21875 -19.484375 L 0.25 -21.1875 L 11.015625 -21.1875 L 11.203125 -20.15625 C 10.429688 -19.601562 9.523438 -19.101562 8.484375 -18.65625 L 8.484375 -8.359375 C 8.484375 -6.410156 8.910156 -4.957031 9.765625 -4 C 10.617188 -3.039062 11.757812 -2.5625 13.1875 -2.5625 C 14.226562 -2.5625 15.113281 -2.828125 15.84375 -3.359375 C 16.738281 -4.335938 17.195312 -6.25 17.21875 -9.09375 L 17.21875 -19.078125 L 14.5625 -19.484375 L 14.59375 -21.1875 L 23.75 -21.1875 Z M 23.9375 -20.15625"/></g><g id="i"><path d="M 21.15625 -21.375 C 21.195312 -20.664062 21.148438 -19.503906 21.015625 -17.890625 C 20.890625 -16.285156 20.734375 -14.972656 20.546875 -13.953125 L 17.53125 -13.953125 L 17.0625 -18.4375 L 13.59375 -18.75 L 13.59375 -2.203125 L 16.734375 -1.703125 L 16.703125 0 L 4.859375 0 L 4.671875 -1.03125 C 5.285156 -1.445312 6.332031 -1.976562 7.8125 -2.625 L 7.8125 -18.75 L 4.3125 -18.4375 L 3.84375 -13.953125 L 0.859375 -13.953125 C 0.429688 -15.804688 0.21875 -17.960938 0.21875 -20.421875 L 0.25 -21.375 L 10.75 -21.25 L 21.125 -21.375 Z M 21.15625 -21.375"/></g><g id="j"><path d="M 22.8125 -1.703125 L 22.78125 0 L 15.609375 0 L 11.390625 -8.0625 L 9.28125 -8.03125 L 9.28125 -2.109375 L 11.9375 -1.703125 L 11.90625 0 L 0.953125 0 L 0.765625 -1.03125 C 1.578125 -1.582031 2.484375 -2.082031 3.484375 -2.53125 L 3.484375 -19.140625 L 1.09375 -19.484375 L 1.125 -21.1875 L 11.96875 -21.4375 C 14.53125 -21.4375 16.632812 -20.800781 18.28125 -19.53125 C 19.9375 -18.257812 20.765625 -16.664062 20.765625 -14.75 C 20.765625 -13.507812 20.390625 -12.363281 19.640625 -11.3125 C 18.898438 -10.257812 17.890625 -9.441406 16.609375 -8.859375 L 20.859375 -1.984375 Z M 9.28125 -11.015625 C 9.875 -10.859375 10.472656 -10.78125 11.078125 -10.78125 C 13.585938 -10.78125 14.84375 -12.070312 14.84375 -14.65625 C 14.84375 -16.40625 14.300781 -17.738281 13.21875 -18.65625 L 9.28125 -18.171875 Z M 9.28125 -11.015625"/></g><clipPath id="a"><path d="M 118 30.84375 L 650 30.84375 L 650 737.34375 L 118 737.34375 Z M 118 30.84375"/></clipPath></defs><g clip-path="url(#a)"><path fill="#528694" d="M 118.589844 123.164062 L 118.589844 645.027344 C 118.589844 645.027344 111.34375 737.382812 194.601562 737.382812 L 573.574219 737.382812 C 656.871094 737.382812 649.625 645.027344 649.625 645.027344 L 649.625 123.164062 C 649.625 123.164062 656.871094 30.808594 573.574219 30.808594 L 194.601562 30.808594 C 111.34375 30.808594 118.589844 123.164062 118.589844 123.164062"/></g><path fill="#38B6FF" d="M 270.507812 302.8125 C 270.507812 311.625 263.367188 318.761719 254.554688 318.761719 L 198.246094 318.761719 C 189.46875 318.761719 182.292969 311.625 182.292969 302.8125 L 182.292969 255.214844 C 182.292969 246.398438 189.46875 239.226562 198.246094 239.226562 L 254.554688 239.226562 C 263.367188 239.226562 270.507812 246.398438 270.507812 255.214844 L 270.507812 302.8125"/><path fill="#FFF" d="M 375.074219 302.8125 C 375.074219 311.625 367.9375 318.761719 359.121094 318.761719 L 302.851562 318.761719 C 294.035156 318.761719 286.898438 311.625 286.898438 302.8125 L 286.898438 255.214844 C 286.898438 246.398438 294.035156 239.226562 302.851562 239.226562 L 359.121094 239.226562 C 367.9375 239.226562 375.074219 246.398438 375.074219 255.214844 L 375.074219 302.8125"/><path fill="#FFF" d="M 480.515625 302.8125 C 480.515625 311.625 473.378906 318.761719 464.527344 318.761719 L 408.253906 318.761719 C 399.441406 318.761719 392.300781 311.625 392.300781 302.8125 L 392.300781 255.214844 C 392.300781 246.398438 399.441406 239.226562 408.253906 239.226562 L 464.527344 239.226562 C 473.378906 239.226562 480.515625 246.398438 480.515625 255.214844 L 480.515625 302.8125"/><path fill="#FFF" d="M 585.921875 302.8125 C 585.921875 311.625 578.785156 318.761719 569.933594 318.761719 L 513.660156 318.761719 C 504.847656 318.761719 497.707031 311.625 497.707031 302.8125 L 497.707031 255.214844 C 497.707031 246.398438 504.847656 239.226562 513.660156 239.226562 L 569.933594 239.226562 C 578.785156 239.226562 585.921875 246.398438 585.921875 255.214844 L 585.921875 302.8125"/><path fill="#FFF" d="M 270.507812 414.285156 C 270.507812 423.132812 263.367188 430.273438 254.554688 430.273438 L 198.246094 430.273438 C 189.46875 430.273438 182.292969 423.132812 182.292969 414.285156 L 182.292969 366.722656 C 182.292969 357.910156 189.46875 350.773438 198.246094 350.773438 L 254.554688 350.773438 C 263.367188 350.773438 270.507812 357.910156 270.507812 366.722656 L 270.507812 414.285156"/><path fill="#FFF" d="M 375.074219 414.285156 C 375.074219 423.132812 367.9375 430.273438 359.121094 430.273438 L 302.851562 430.273438 C 294.035156 430.273438 286.898438 423.132812 286.898438 414.285156 L 286.898438 366.722656 C 286.898438 357.910156 294.035156 350.773438 302.851562 350.773438 L 359.121094 350.773438 C 367.9375 350.773438 375.074219 357.910156 375.074219 366.722656 L 375.074219 414.285156"/><path fill="#FFF" d="M 480.515625 414.285156 C 480.515625 423.132812 473.378906 430.273438 464.527344 430.273438 L 408.253906 430.273438 C 399.441406 430.273438 392.300781 423.132812 392.300781 414.285156 L 392.300781 366.722656 C 392.300781 357.910156 399.441406 350.773438 408.253906 350.773438 L 464.527344 350.773438 C 473.378906 350.773438 480.515625 357.910156 480.515625 366.722656 L 480.515625 414.285156"/><path fill="#FFF" d="M 585.921875 414.285156 C 585.921875 423.132812 578.785156 430.273438 569.933594 430.273438 L 513.660156 430.273438 C 504.847656 430.273438 497.707031 423.132812 497.707031 414.285156 L 497.707031 366.722656 C 497.707031 357.910156 504.847656 350.773438 513.660156 350.773438 L 569.933594 350.773438 C 578.785156 350.773438 585.921875 357.910156 585.921875 366.722656 L 585.921875 414.285156"/><path fill="#FFF" d="M 270.507812 522.699219 C 270.507812 531.476562 263.367188 538.652344 254.554688 538.652344 L 198.246094 538.652344 C 189.46875 538.652344 182.292969 531.476562 182.292969 522.699219 L 182.292969 475.101562 C 182.292969 466.289062 189.46875 459.113281 198.246094 459.113281 L 254.554688 459.113281 C 263.367188 459.113281 270.507812 466.289062 270.507812 475.101562 L 270.507812 522.699219"/><path fill="#FFF" d="M 375.074219 522.699219 C 375.074219 531.476562 367.9375 538.652344 359.121094 538.652344 L 302.851562 538.652344 C 294.035156 538.652344 286.898438 531.476562 286.898438 522.699219 L 286.898438 475.101562 C 286.898438 466.289062 294.035156 459.113281 302.851562 459.113281 L 359.121094 459.113281 C 367.9375 459.113281 375.074219 466.289062 375.074219 475.101562 L 375.074219 522.699219"/><path fill="#FFF" d="M 480.515625 522.699219 C 480.515625 531.476562 473.378906 538.652344 464.527344 538.652344 L 408.253906 538.652344 C 399.441406 538.652344 392.300781 531.476562 392.300781 522.699219 L 392.300781 475.101562 C 392.300781 466.289062 399.441406 459.113281 408.253906 459.113281 L 464.527344 459.113281 C 473.378906 459.113281 480.515625 466.289062 480.515625 475.101562 L 480.515625 522.699219"/><path fill="#FFF" d="M 585.921875 522.699219 C 585.921875 531.476562 578.785156 538.652344 569.933594 538.652344 L 513.660156 538.652344 C 504.847656 538.652344 497.707031 531.476562 497.707031 522.699219 L 497.707031 475.101562 C 497.707031 466.289062 504.847656 459.113281 513.660156 459.113281 L 569.933594 459.113281 C 578.785156 459.113281 585.921875 466.289062 585.921875 475.101562 L 585.921875 522.699219"/><path fill="#FFF" d="M 270.507812 631.808594 C 270.507812 640.65625 263.367188 647.792969 254.554688 647.792969 L 198.246094 647.792969 C 189.46875 647.792969 182.292969 640.65625 182.292969 631.808594 L 182.292969 584.246094 C 182.292969 575.433594 189.46875 568.292969 198.246094 568.292969 L 254.554688 568.292969 C 263.367188 568.292969 270.507812 575.433594 270.507812 584.246094 L 270.507812 631.808594"/><path fill="#FFF" d="M 375.074219 631.808594 C 375.074219 640.65625 367.9375 647.792969 359.121094 647.792969 L 302.851562 647.792969 C 294.035156 647.792969 286.898438 640.65625 286.898438 631.808594 L 286.898438 584.246094 C 286.898438 575.433594 294.035156 568.292969 302.851562 568.292969 L 359.121094 568.292969 C 367.9375 568.292969 375.074219 575.433594 375.074219 584.246094 L 375.074219 631.808594"/><path fill="#FFF" d="M 480.515625 631.808594 C 480.515625 640.65625 473.378906 647.792969 464.527344 647.792969 L 408.253906 647.792969 C 399.441406 647.792969 392.300781 640.65625 392.300781 631.808594 L 392.300781 584.246094 C 392.300781 575.433594 399.441406 568.292969 408.253906 568.292969 L 464.527344 568.292969 C 473.378906 568.292969 480.515625 575.433594 480.515625 584.246094 L 480.515625 631.808594"/><path fill="#FFF" d="M 585.921875 631.808594 C 585.921875 640.65625 578.785156 647.792969 569.933594 647.792969 L 513.660156 647.792969 C 504.847656 647.792969 497.707031 640.65625 497.707031 631.808594 L 497.707031 584.246094 C 497.707031 575.433594 504.847656 568.292969 513.660156 568.292969 L 569.933594 568.292969 C 578.785156 568.292969 585.921875 575.433594 585.921875 584.246094 L 585.921875 631.808594"/><path fill="#FFF" d="M 585.921875 174.402344 C 585.921875 189.480469 572.554688 201.714844 556.09375 201.714844 L 212.121094 201.714844 C 195.660156 201.714844 182.292969 189.480469 182.292969 174.402344 L 182.292969 116.863281 C 182.292969 101.75 195.660156 89.515625 212.121094 89.515625 L 556.09375 89.515625 C 572.554688 89.515625 585.921875 101.75 585.921875 116.863281 L 585.921875 174.402344"/><g><use x="227.071" y="157.879" xmlns:xlink="http://www.w3.org/1999/xlink" xlink:href="#b" xlink:type="simple" xlink:actuate="onLoad" xlink:show="embed"/></g><g><use x="246.874" y="157.879" xmlns:xlink="http://www.w3.org/1999/xlink" xlink:href="#c" xlink:type="simple" xlink:actuate="onLoad" xlink:show="embed"/></g><g><use x="268.852" y="157.879" xmlns:xlink="http://www.w3.org/1999/xlink" xlink:href="#d" xlink:type="simple" xlink:actuate="onLoad" xlink:show="embed"/></g><g><use x="292.207" y="157.879" xmlns:xlink="http://www.w3.org/1999/xlink" xlink:href="#e" xlink:type="simple" xlink:actuate="onLoad" xlink:show="embed"/></g><g><use x="317.416" y="157.879" xmlns:xlink="http://www.w3.org/1999/xlink" xlink:href="#f" xlink:type="simple" xlink:actuate="onLoad" xlink:show="embed"/></g><g><use x="325.894" y="157.879" xmlns:xlink="http://www.w3.org/1999/xlink" xlink:href="#g" xlink:type="simple" xlink:actuate="onLoad" xlink:show="embed"/></g><g><use x="344.994" y="157.879" xmlns:xlink="http://www.w3.org/1999/xlink" xlink:href="#d" xlink:type="simple" xlink:actuate="onLoad" xlink:show="embed"/></g><g><use x="368.348" y="157.879" xmlns:xlink="http://www.w3.org/1999/xlink" xlink:href="#b" xlink:type="simple" xlink:actuate="onLoad" xlink:show="embed"/></g><g><use x="388.151" y="157.879" xmlns:xlink="http://www.w3.org/1999/xlink" xlink:href="#g" xlink:type="simple" xlink:actuate="onLoad" xlink:show="embed"/></g><g><use x="407.25" y="157.879" xmlns:xlink="http://www.w3.org/1999/xlink" xlink:href="#h" xlink:type="simple" xlink:actuate="onLoad" xlink:show="embed"/></g><g><use x="431.404" y="157.879" xmlns:xlink="http://www.w3.org/1999/xlink" xlink:href="#b" xlink:type="simple" xlink:actuate="onLoad" xlink:show="embed"/></g><g><use x="451.207" y="157.879" xmlns:xlink="http://www.w3.org/1999/xlink" xlink:href="#d" xlink:type="simple" xlink:actuate="onLoad" xlink:show="embed"/></g><g><use x="474.562" y="157.879" xmlns:xlink="http://www.w3.org/1999/xlink" xlink:href="#i" xlink:type="simple" xlink:actuate="onLoad" xlink:show="embed"/></g><g><use x="495.932" y="157.879" xmlns:xlink="http://www.w3.org/1999/xlink" xlink:href="#c" xlink:type="simple" xlink:actuate="onLoad" xlink:show="embed"/></g><g><use x="517.911" y="157.879" xmlns:xlink="http://www.w3.org/1999/xlink" xlink:href="#j" xlink:type="simple" xlink:actuate="onLoad" xlink:show="embed"/></g></svg>