<svg xmlns="http://www.w3.org/2000/svg" width="768" viewBox="0 0 768 768" height="768" version="1.0"><defs><clipPath id="a"><path d="M 56.914062 29.097656 L 258.664062 29.097656 L 258.664062 64.347656 L 56.914062 64.347656 Z M 56.914062 29.097656"/></clipPath><clipPath id="b"><path d="M 285.582031 29.097656 L 487.332031 29.097656 L 487.332031 64.347656 L 285.582031 64.347656 Z M 285.582031 29.097656"/></clipPath><clipPath id="c"><path d="M 509.28125 29.097656 L 711.03125 29.097656 L 711.03125 64.347656 L 509.28125 64.347656 Z M 509.28125 29.097656"/></clipPath><clipPath id="d"><path d="M 56.914062 103.664062 L 258.664062 103.664062 L 258.664062 138.914062 L 56.914062 138.914062 Z M 56.914062 103.664062"/></clipPath><clipPath id="e"><path d="M 56.914062 178.226562 L 258.664062 178.226562 L 258.664062 213.476562 L 56.914062 213.476562 Z M 56.914062 178.226562"/></clipPath><clipPath id="f"><path d="M 285.582031 103.664062 L 487.332031 103.664062 L 487.332031 138.914062 L 285.582031 138.914062 Z M 285.582031 103.664062"/></clipPath><clipPath id="g"><path d="M 285.582031 178.226562 L 487.332031 178.226562 L 487.332031 213.476562 L 285.582031 213.476562 Z M 285.582031 178.226562"/></clipPath><clipPath id="h"><path d="M 509.28125 103.664062 L 711.03125 103.664062 L 711.03125 138.914062 L 509.28125 138.914062 Z M 509.28125 103.664062"/></clipPath><clipPath id="i"><path d="M 509.28125 178.226562 L 711.03125 178.226562 L 711.03125 213.476562 L 509.28125 213.476562 Z M 509.28125 178.226562"/></clipPath><clipPath id="j"><path d="M 281.855469 691.199219 L 485.855469 691.199219 L 485.855469 725.699219 L 281.855469 725.699219 Z M 281.855469 691.199219"/></clipPath></defs><path fill="#FFF" d="M-76.8 -76.8H844.8000000000001V844.8000000000001H-76.8z"/><path fill="#FFF" d="M-76.8 -76.8H844.8000000000001V844.8000000000001H-76.8z"/><path d="M-76.8 -76.8H844.8000000000001V844.8000000000001H-76.8z"/><g clip-path="url(#a)"><path fill="#00FF03" d="M 56.914062 29.097656 L 258.664062 29.097656 L 258.664062 64.347656 L 56.914062 64.347656 Z M 56.914062 29.097656"/></g><g clip-path="url(#b)"><path fill="#00FF03" d="M 285.582031 29.097656 L 487.332031 29.097656 L 487.332031 64.347656 L 285.582031 64.347656 Z M 285.582031 29.097656"/></g><g clip-path="url(#c)"><path fill="#00FF03" d="M 509.28125 29.097656 L 711.03125 29.097656 L 711.03125 64.347656 L 509.28125 64.347656 Z M 509.28125 29.097656"/></g><g clip-path="url(#d)"><path fill="#00FF03" d="M 56.914062 103.664062 L 258.664062 103.664062 L 258.664062 138.914062 L 56.914062 138.914062 Z M 56.914062 103.664062"/></g><g clip-path="url(#e)"><path fill="#00FF03" d="M 56.914062 178.226562 L 258.664062 178.226562 L 258.664062 213.476562 L 56.914062 213.476562 Z M 56.914062 178.226562"/></g><g clip-path="url(#f)"><path fill="#00FF03" d="M 285.582031 103.664062 L 487.332031 103.664062 L 487.332031 138.914062 L 285.582031 138.914062 Z M 285.582031 103.664062"/></g><g clip-path="url(#g)"><path fill="#00FF03" d="M 285.582031 178.226562 L 487.332031 178.226562 L 487.332031 213.476562 L 285.582031 213.476562 Z M 285.582031 178.226562"/></g><g clip-path="url(#h)"><path fill="#00FF03" d="M 509.28125 103.664062 L 711.03125 103.664062 L 711.03125 138.914062 L 509.28125 138.914062 Z M 509.28125 103.664062"/></g><g clip-path="url(#i)"><path fill="#00FF03" d="M 509.28125 178.226562 L 711.03125 178.226562 L 711.03125 213.476562 L 509.28125 213.476562 Z M 509.28125 178.226562"/></g><g clip-path="url(#j)"><path fill="#F00" d="M 281.855469 691.199219 L 485.855469 691.199219 L 485.855469 725.699219 L 281.855469 725.699219 Z M 281.855469 691.199219"/></g><path fill="#F00" d="M 261.402344 289.621094 C 250.21875 289.621094 241.152344 298.683594 241.152344 309.871094 C 241.152344 321.054688 250.21875 330.121094 261.402344 330.121094 C 272.585938 330.121094 281.652344 321.054688 281.652344 309.871094 C 281.652344 298.683594 272.585938 289.621094 261.402344 289.621094 Z M 261.402344 289.621094"/></svg>