<svg xmlns="http://www.w3.org/2000/svg" xmlns:xlink="http://www.w3.org/1999/xlink" width="128" zoomAndPan="magnify" viewBox="0 0 96 95.999999" height="128" preserveAspectRatio="xMidYMid meet" version="1.0"><defs><clipPath id="221b1ea3a1"><path d="M 0 12.78125 L 53 12.78125 L 53 83.28125 L 0 83.28125 Z M 0 12.78125 " clip-rule="nonzero"/></clipPath><clipPath id="9e292b5cec"><path d="M 40 34 L 72 34 L 72 83.28125 L 40 83.28125 Z M 40 34 " clip-rule="nonzero"/></clipPath></defs><rect x="-9.6" width="115.2" fill="#ffffff" y="-9.6" height="115.199999" fill-opacity="1"/><rect x="-9.6" width="115.2" fill="#ffffff" y="-9.6" height="115.199999" fill-opacity="1"/><rect x="-9.6" width="115.2" fill="#000000" y="-9.6" height="115.199999" fill-opacity="1"/><g clip-path="url(#221b1ea3a1)"><path fill="#fefefe" d="M 16.078125 16.878906 L 16.078125 29.167969 L 5.386719 29.167969 Z M 16.011719 12.746094 C 15.527344 12.746094 15.074219 12.960938 14.761719 13.328125 L 0.480469 29.738281 C 0.203125 30.058594 0.0742188 30.480469 0.0742188 30.832031 L 0.0742188 81.511719 C 0.0820312 82.410156 0.832031 83.152344 1.738281 83.152344 L 50.578125 83.207031 C 51.492188 83.207031 52.234375 82.445312 52.226562 81.542969 L 52.226562 76.410156 C 51.289062 75.9375 50.191406 75.464844 48.914062 75.011719 L 48.914062 79.875 L 3.402344 79.835938 L 3.402344 32.492188 L 17.746094 32.492188 C 18.648438 32.492188 19.402344 31.738281 19.402344 30.832031 L 19.402344 16.078125 L 48.90625 16.078125 L 48.914062 42.238281 C 50.191406 41.78125 51.289062 41.308594 52.230469 40.835938 L 52.230469 14.40625 C 52.230469 13.5 51.492188 12.753906 50.585938 12.746094 C 50.585938 12.746094 50.585938 12.746094 50.578125 12.746094 Z M 16.011719 12.746094 " fill-opacity="1" fill-rule="evenodd"/></g><g clip-path="url(#9e292b5cec)"><path fill="#fefefe" d="M 65.816406 34.246094 C 61.25 34.246094 62.632812 41.960938 47.234375 46.292969 C 42.972656 47.488281 40.832031 48.386719 40.832031 52.820312 L 40.832031 64.640625 C 40.832031 69.066406 42.972656 69.964844 47.234375 71.15625 C 62.632812 75.492188 61.25 83.207031 65.816406 83.207031 L 67.800781 83.207031 C 69.875 83.207031 71.574219 81.519531 71.574219 79.425781 L 71.574219 38.023438 C 71.574219 35.945312 69.878906 34.242188 67.800781 34.242188 L 65.816406 34.242188 Z M 65.816406 34.246094 " fill-opacity="1" fill-rule="nonzero"/></g><path fill="#fefefe" d="M 87.605469 38.75 C 85.210938 38.863281 83.917969 41.613281 85.375 43.535156 C 88.230469 47.425781 89.957031 52.941406 89.957031 58.722656 C 89.957031 64.511719 88.230469 70.03125 85.375 73.929688 C 84.390625 75.257812 84.675781 77.125 86.003906 78.101562 C 87.332031 79.074219 89.203125 78.796875 90.183594 77.46875 C 93.921875 72.351562 95.914062 65.675781 95.914062 58.722656 C 95.914062 51.785156 93.921875 45.109375 90.183594 39.996094 C 89.582031 39.164062 88.625 38.703125 87.605469 38.75 Z M 87.605469 38.75 " fill-opacity="1" fill-rule="nonzero"/><path fill="#fefefe" d="M 79.484375 46.320312 C 77.21875 46.355469 75.808594 48.792969 76.921875 50.765625 C 79.578125 55.667969 79.578125 61.789062 76.921875 66.6875 C 76.089844 68.144531 76.617188 69.992188 78.085938 70.796875 C 79.558594 71.597656 81.394531 71.023438 82.160156 69.53125 C 85.796875 62.820312 85.796875 54.625 82.160156 47.921875 C 81.632812 46.925781 80.601562 46.304688 79.484375 46.320312 Z M 79.484375 46.320312 " fill-opacity="1" fill-rule="nonzero"/><path fill="#fefefe" d="M 12.710938 41.035156 L 33.921875 41.035156 C 34.914062 41.035156 35.703125 41.835938 35.703125 42.820312 C 35.703125 43.808594 34.914062 44.605469 33.921875 44.605469 L 12.710938 44.605469 C 11.722656 44.605469 10.925781 43.804688 10.925781 42.820312 C 10.925781 41.835938 11.722656 41.035156 12.710938 41.035156 Z M 12.710938 41.035156 " fill-opacity="1" fill-rule="evenodd"/><path fill="#fefefe" d="M 12.710938 50.011719 L 33.921875 50.011719 C 34.914062 50.011719 35.703125 50.804688 35.703125 51.796875 C 35.703125 52.785156 34.914062 53.578125 33.921875 53.578125 L 12.710938 53.578125 C 11.722656 53.578125 10.925781 52.785156 10.925781 51.796875 C 10.925781 50.804688 11.722656 50.011719 12.710938 50.011719 Z M 12.710938 50.011719 " fill-opacity="1" fill-rule="evenodd"/><path fill="#fefefe" d="M 12.710938 58.988281 L 33.921875 58.988281 C 34.914062 58.988281 35.703125 59.78125 35.703125 60.769531 C 35.703125 61.761719 34.914062 62.554688 33.921875 62.554688 L 12.710938 62.554688 C 11.722656 62.554688 10.925781 61.761719 10.925781 60.769531 C 10.925781 59.78125 11.722656 58.988281 12.710938 58.988281 Z M 12.710938 58.988281 " fill-opacity="1" fill-rule="evenodd"/><path fill="#fefefe" d="M 12.710938 67.957031 L 23.375 67.957031 C 24.367188 67.957031 25.160156 68.757812 25.160156 69.746094 C 25.160156 70.730469 24.367188 71.527344 23.375 71.527344 L 12.710938 71.527344 C 11.722656 71.527344 10.925781 70.730469 10.925781 69.746094 C 10.925781 68.757812 11.722656 67.957031 12.710938 67.957031 Z M 12.710938 67.957031 " fill-opacity="1" fill-rule="evenodd"/></svg>