<svg xmlns="http://www.w3.org/2000/svg" width="64" height="64" shape-rendering="geometricPrecision" text-rendering="geometricPrecision" image-rendering="optimizeQuality" fill-rule="evenodd" clip-rule="evenodd" viewBox="0 0 640 640"><path d="M228.582 205.715h126.462v64.832h1.83c17.611-31.595 60.675-64.832 124.892-64.832C615.303 205.715 640 288.818 640 396.926v220.219H508.116V421.93c0-46.536-.969-106.442-68.576-106.442-68.67 0-79.194 50.658-79.194 103.052v198.605H228.581v-411.43zM137.152 91.43c0 37.855-30.721 68.576-68.576 68.576-37.855 0-68.587-30.721-68.587-68.576 0-37.855 30.732-68.576 68.587-68.576 37.855 0 68.576 30.721 68.576 68.576zM-.011 205.715h137.163v411.43H-.011v-411.43z" fill="#ffffff"/></svg>