<?xml version="1.0" encoding="UTF-8"?><svg xmlns="http://www.w3.org/2000/svg" xmlns:xlink="http://www.w3.org/1999/xlink" contentScriptType="text/ecmascript" width="768" zoomAndPan="magnify" contentStyleType="text/css" viewBox="0 0 768 767.999994" height="767.999994" preserveAspectRatio="xMidYMid meet" version="1.0"><defs><clipPath id="clip-0"><path d="M 467 90.089844 L 654.957031 90.089844 L 654.957031 287 L 467 287 Z M 467 90.089844 " clip-rule="nonzero"/></clipPath><clipPath id="clip-1"><path d="M 112.707031 445 L 300 445 L 300 483 L 112.707031 483 Z M 112.707031 445 " clip-rule="nonzero"/></clipPath><clipPath id="clip-2"><path d="M 150 594 L 207 594 L 207 632.339844 L 150 632.339844 Z M 150 594 " clip-rule="nonzero"/></clipPath><clipPath id="clip-3"><path d="M 112.707031 445 L 300 445 L 300 483 L 112.707031 483 Z M 112.707031 445 " clip-rule="nonzero"/></clipPath><clipPath id="clip-4"><path d="M 150 594 L 207 594 L 207 632.339844 L 150 632.339844 Z M 150 594 " clip-rule="nonzero"/></clipPath><clipPath id="clip-5"><path d="M 112.707031 155 L 300 155 L 300 250 L 112.707031 250 Z M 112.707031 155 " clip-rule="nonzero"/></clipPath><clipPath id="clip-6"><path d="M 112.707031 194 L 300 194 L 300 250 L 112.707031 250 Z M 112.707031 194 " clip-rule="nonzero"/></clipPath><clipPath id="clip-7"><path d="M 467 464 L 654.957031 464 L 654.957031 539 L 467 539 Z M 467 464 " clip-rule="nonzero"/></clipPath><clipPath id="clip-8"><path d="M 505 557 L 609 557 L 609 632.339844 L 505 632.339844 Z M 505 557 " clip-rule="nonzero"/></clipPath></defs><rect x="-76.8" width="921.6" fill="rgb(100%, 100%, 100%)" y="-76.799999" height="921.599993" fill-opacity="1"/><rect x="-76.8" width="921.6" fill="rgb(100%, 100%, 100%)" y="-76.799999" height="921.599993" fill-opacity="1"/><rect x="-76.8" width="921.6" fill="rgb(0%, 0%, 0%)" y="-76.799999" height="921.599993" fill-opacity="1"/><path fill="rgb(42.749023%, 73.329163%, 91.758728%)" d="M 561.464844 407.960938 C 561.464844 511.242188 477.761719 594.945312 374.484375 594.945312 C 271.203125 594.945312 187.5 511.242188 187.5 407.960938 C 187.5 304.683594 271.203125 220.980469 374.484375 220.980469 C 477.761719 220.980469 561.464844 304.683594 561.464844 407.960938 " fill-opacity="1" fill-rule="nonzero"/><path fill="rgb(34.118652%, 56.079102%, 82.749939%)" d="M 449.277344 510.800781 C 345.996094 510.800781 262.292969 427.097656 262.292969 323.820312 C 262.292969 296.648438 268.210938 270.9375 278.617188 247.640625 C 224.09375 280.289062 187.5 339.777344 187.5 407.960938 C 187.5 511.242188 271.203125 594.945312 374.484375 594.945312 C 450.589844 594.945312 515.960938 549.40625 545.140625 484.144531 C 517.09375 500.980469 484.371094 510.800781 449.277344 510.800781 " fill-opacity="1" fill-rule="nonzero"/><path fill="rgb(72.549438%, 87.059021%, 13.729858%)" d="M 500.585938 270.207031 L 402.53125 417.3125 L 496.023438 445.359375 L 458.625 473.40625 L 458.625 520.152344 L 421.230469 557.546875 L 425.867188 587.640625 C 504.09375 565.289062 561.464844 493.382812 561.464844 407.960938 C 561.464844 353.363281 537.910156 304.390625 500.585938 270.207031 " fill-opacity="1" fill-rule="nonzero"/><path fill="rgb(72.549438%, 87.059021%, 13.729858%)" d="M 187.5 407.960938 C 187.5 497.546875 250.535156 572.339844 334.640625 590.597656 L 318.386719 520.152344 L 393.179688 473.40625 L 327.738281 426.660156 L 365.132812 379.914062 L 318.386719 333.167969 L 305.242188 234.382812 C 236.289062 261.917969 187.5 329.1875 187.5 407.960938 " fill-opacity="1" fill-rule="nonzero"/><path fill="rgb(58.428955%, 82.348633%, 12.939453%)" d="M 545.214844 484.253906 C 522.863281 534.175781 479.1875 572.410156 425.792969 587.640625 L 421.230469 557.546875 L 458.625 520.152344 L 458.625 510.511719 C 490.140625 509.011719 519.6875 499.664062 545.214844 484.253906 " fill-opacity="1" fill-rule="nonzero"/><path fill="rgb(58.428955%, 82.348633%, 12.939453%)" d="M 318.386719 520.152344 L 334.640625 590.5625 C 250.496094 572.339844 187.5 497.546875 187.5 407.960938 C 187.5 339.707031 224.058594 280.25 278.542969 247.640625 C 268.101562 270.902344 262.292969 296.722656 262.292969 323.820312 C 262.292969 396.933594 304.183594 460.148438 365.316406 490.898438 L 318.386719 520.152344 " fill-opacity="1" fill-rule="nonzero"/><g clip-path="url(#clip-0)"><path fill="rgb(95.289612%, 89.019775%, 1.959229%)" d="M 561.464844 90.089844 L 582.71875 122.960938 L 619.242188 108.863281 L 617.121094 147.9375 L 654.957031 158.019531 L 630.269531 188.402344 L 654.957031 218.789062 L 617.121094 228.832031 L 619.242188 267.90625 L 582.71875 253.847656 L 561.464844 286.714844 L 540.210938 253.847656 L 503.691406 267.90625 L 505.808594 228.832031 L 467.972656 218.789062 L 492.660156 188.402344 L 467.972656 158.019531 L 505.808594 147.9375 L 503.691406 108.863281 L 540.210938 122.960938 L 561.464844 90.089844 " fill-opacity="1" fill-rule="nonzero"/></g><path fill="rgb(96.859741%, 71.369934%, 4.309082%)" d="M 547.660156 230.914062 L 523.921875 240.078125 L 525.3125 214.699219 L 500.695312 208.125 L 516.765625 188.402344 L 500.695312 168.644531 L 525.3125 162.109375 L 523.921875 136.691406 L 547.660156 145.859375 L 561.464844 124.492188 L 575.269531 145.859375 L 599.007812 136.691406 L 597.621094 162.109375 L 622.234375 168.644531 L 606.167969 188.402344 L 622.234375 208.125 L 597.621094 214.699219 L 599.007812 240.078125 L 575.269531 230.914062 L 561.464844 252.277344 L 547.660156 230.914062 " fill-opacity="1" fill-rule="nonzero"/><path fill="rgb(94.509888%, 29.798889%, 27.449036%)" d="M 598.863281 192.933594 C 598.863281 213.601562 582.136719 230.328125 561.464844 230.328125 C 540.796875 230.328125 524.070312 213.601562 524.070312 192.933594 C 524.070312 172.261719 540.796875 155.535156 561.464844 155.535156 C 582.136719 155.535156 598.863281 172.261719 598.863281 192.933594 " fill-opacity="1" fill-rule="nonzero"/><path fill="rgb(82.348633%, 85.879517%, 85.488892%)" d="M 393.179688 202.28125 C 396.429688 202.28125 399.644531 202.609375 402.75 203.15625 C 415.566406 180.332031 439.964844 164.882812 467.972656 164.882812 C 495.984375 164.882812 520.378906 180.332031 533.199219 203.15625 C 536.304688 202.609375 539.515625 202.28125 542.765625 202.28125 C 563.621094 202.28125 581.808594 213.710938 591.484375 230.621094 C 592.363281 230.546875 593.273438 230.328125 594.1875 230.328125 C 617.414062 230.328125 636.257812 249.171875 636.257812 272.398438 C 636.257812 295.625 617.414062 314.472656 594.1875 314.472656 C 585.386719 314.472656 577.207031 311.730469 570.484375 307.128906 C 562.304688 311.769531 552.847656 314.472656 542.765625 314.472656 C 529.765625 314.472656 517.824219 310.015625 508.328125 302.601562 C 496.679688 310.089844 482.839844 314.472656 467.972656 314.472656 C 453.109375 314.472656 439.269531 310.089844 427.621094 302.601562 C 418.125 310.015625 406.183594 314.472656 393.179688 314.472656 C 362.210938 314.472656 337.085938 289.34375 337.085938 258.375 C 337.085938 227.40625 362.210938 202.28125 393.179688 202.28125 " fill-opacity="1" fill-rule="nonzero"/><path fill="rgb(56.079102%, 58.81958%, 59.21936%)" d="M 622.234375 277.074219 C 613.433594 277.074219 605.253906 274.335938 598.535156 269.734375 C 590.351562 274.371094 580.894531 277.074219 570.816406 277.074219 C 557.8125 277.074219 545.871094 272.617188 536.375 265.207031 C 524.726562 272.691406 510.886719 277.074219 496.023438 277.074219 C 481.15625 277.074219 467.316406 272.691406 455.667969 265.207031 C 446.171875 272.617188 434.230469 277.074219 421.230469 277.074219 C 390.257812 277.074219 365.132812 251.949219 365.132812 220.980469 C 365.132812 216.890625 365.609375 212.910156 366.449219 209.074219 C 348.957031 218.570312 337.085938 237.085938 337.085938 258.375 C 337.085938 289.34375 362.210938 314.472656 393.179688 314.472656 C 406.183594 314.472656 418.125 310.015625 427.621094 302.601562 C 439.269531 310.089844 453.109375 314.472656 467.972656 314.472656 C 482.839844 314.472656 496.679688 310.089844 508.328125 302.601562 C 517.824219 310.015625 529.765625 314.472656 542.765625 314.472656 C 552.847656 314.472656 562.304688 311.769531 570.484375 307.128906 C 577.207031 311.730469 585.386719 314.472656 594.1875 314.472656 C 616.683594 314.472656 634.871094 296.757812 636.039062 274.554688 C 631.695312 276.089844 627.09375 277.074219 622.234375 277.074219 " fill-opacity="1" fill-rule="nonzero"/><path fill="rgb(95.289612%, 89.019775%, 1.959229%)" d="M 477.324219 342.519531 L 496.023438 267.726562 L 411.878906 370.566406 L 458.625 379.914062 L 439.925781 454.707031 L 524.070312 351.867188 L 477.324219 342.519531 " fill-opacity="1" fill-rule="nonzero"/><path fill="rgb(96.859741%, 71.369934%, 4.309082%)" d="M 486.671875 361.214844 L 449.277344 361.214844 L 496.023438 267.726562 L 411.878906 370.566406 L 458.625 379.914062 L 439.925781 454.707031 L 486.671875 361.214844 " fill-opacity="1" fill-rule="nonzero"/><path fill="rgb(82.348633%, 85.879517%, 85.488892%)" d="M 262.292969 520.152344 L 150.105469 520.152344 C 139.769531 520.152344 131.40625 511.789062 131.40625 501.453125 C 131.40625 491.117188 139.769531 482.753906 150.105469 482.753906 L 262.292969 482.753906 C 272.628906 482.753906 280.992188 491.117188 280.992188 501.453125 C 280.992188 511.789062 272.628906 520.152344 262.292969 520.152344 " fill-opacity="1" fill-rule="nonzero"/><g clip-path="url(#clip-1)"><path fill="rgb(82.348633%, 85.879517%, 85.488892%)" d="M 280.992188 482.753906 L 131.40625 482.753906 C 121.070312 482.753906 112.707031 474.390625 112.707031 464.058594 C 112.707031 453.722656 121.070312 445.359375 131.40625 445.359375 L 280.992188 445.359375 C 291.328125 445.359375 299.691406 453.722656 299.691406 464.058594 C 299.691406 474.390625 291.328125 482.753906 280.992188 482.753906 " fill-opacity="1" fill-rule="nonzero"/></g><path fill="rgb(82.348633%, 85.879517%, 85.488892%)" d="M 243.59375 557.546875 L 168.800781 557.546875 C 158.464844 557.546875 150.105469 549.183594 150.105469 538.851562 C 150.105469 528.515625 158.464844 520.152344 168.800781 520.152344 L 243.59375 520.152344 C 253.929688 520.152344 262.292969 528.515625 262.292969 538.851562 C 262.292969 549.183594 253.929688 557.546875 243.59375 557.546875 " fill-opacity="1" fill-rule="nonzero"/><path fill="rgb(82.348633%, 85.879517%, 85.488892%)" d="M 215.546875 594.945312 L 178.152344 594.945312 C 167.816406 594.945312 159.453125 586.582031 159.453125 576.246094 C 159.453125 565.910156 167.816406 557.546875 178.152344 557.546875 L 215.546875 557.546875 C 225.882812 557.546875 234.246094 565.910156 234.246094 576.246094 C 234.246094 586.582031 225.882812 594.945312 215.546875 594.945312 " fill-opacity="1" fill-rule="nonzero"/><g clip-path="url(#clip-2)"><path fill="rgb(82.348633%, 85.879517%, 85.488892%)" d="M 187.5 632.339844 L 168.800781 632.339844 C 158.464844 632.339844 150.105469 623.976562 150.105469 613.644531 C 150.105469 603.308594 158.464844 594.945312 168.800781 594.945312 L 187.5 594.945312 C 197.835938 594.945312 206.199219 603.308594 206.199219 613.644531 C 206.199219 623.976562 197.835938 632.339844 187.5 632.339844 " fill-opacity="1" fill-rule="nonzero"/></g><path fill="rgb(56.079102%, 58.81958%, 59.21936%)" d="M 150.105469 482.753906 C 139.769531 482.753906 131.40625 491.117188 131.40625 501.453125 C 131.40625 511.789062 139.769531 520.152344 150.105469 520.152344 L 262.292969 520.152344 C 272.628906 520.152344 280.992188 511.789062 280.992188 501.453125 L 168.800781 501.453125 C 158.464844 501.453125 150.105469 493.089844 150.105469 482.753906 " fill-opacity="1" fill-rule="nonzero"/><g clip-path="url(#clip-3)"><path fill="rgb(56.079102%, 58.81958%, 59.21936%)" d="M 131.40625 445.359375 C 121.070312 445.359375 112.707031 453.722656 112.707031 464.058594 C 112.707031 474.390625 121.070312 482.753906 131.40625 482.753906 L 280.992188 482.753906 C 291.328125 482.753906 299.691406 474.390625 299.691406 464.058594 L 150.105469 464.058594 C 139.769531 464.058594 131.40625 455.695312 131.40625 445.359375 " fill-opacity="1" fill-rule="nonzero"/></g><path fill="rgb(56.079102%, 58.81958%, 59.21936%)" d="M 168.800781 520.152344 C 158.464844 520.152344 150.105469 528.515625 150.105469 538.851562 C 150.105469 549.183594 158.464844 557.546875 168.800781 557.546875 L 243.59375 557.546875 C 253.929688 557.546875 262.292969 549.183594 262.292969 538.851562 L 187.5 538.851562 C 177.164062 538.851562 168.800781 530.488281 168.800781 520.152344 " fill-opacity="1" fill-rule="nonzero"/><path fill="rgb(56.079102%, 58.81958%, 59.21936%)" d="M 178.152344 557.546875 C 167.816406 557.546875 159.453125 565.910156 159.453125 576.246094 C 159.453125 586.582031 167.816406 594.945312 178.152344 594.945312 L 215.546875 594.945312 C 225.882812 594.945312 234.246094 586.582031 234.246094 576.246094 L 196.847656 576.246094 C 186.515625 576.246094 178.152344 567.882812 178.152344 557.546875 " fill-opacity="1" fill-rule="nonzero"/><g clip-path="url(#clip-4)"><path fill="rgb(56.079102%, 58.81958%, 59.21936%)" d="M 168.800781 594.945312 C 158.464844 594.945312 150.105469 603.308594 150.105469 613.644531 C 150.105469 623.976562 158.464844 632.339844 168.800781 632.339844 L 187.5 632.339844 C 197.835938 632.339844 206.199219 623.976562 206.199219 613.644531 L 187.5 613.644531 C 177.164062 613.644531 168.800781 605.28125 168.800781 594.945312 " fill-opacity="1" fill-rule="nonzero"/></g><g clip-path="url(#clip-5)"><path fill="rgb(82.348633%, 85.879517%, 85.488892%)" d="M 271.640625 192.933594 C 269.960938 192.933594 268.320312 193.152344 266.710938 193.441406 C 260.320312 182.011719 248.269531 174.234375 234.246094 174.234375 C 231.25 174.234375 228.367188 174.671875 225.589844 175.328125 C 217.117188 163.386719 203.242188 155.535156 187.5 155.535156 C 164.859375 155.535156 145.976562 171.640625 141.703125 193.042969 C 141.375 193.003906 141.082031 192.933594 140.753906 192.933594 C 125.269531 192.933594 112.707031 205.496094 112.707031 220.980469 C 112.707031 236.464844 125.269531 249.027344 140.753906 249.027344 C 148.605469 249.027344 155.691406 245.777344 160.804688 240.554688 C 168.363281 245.847656 177.566406 249.027344 187.5 249.027344 C 196.628906 249.027344 205.101562 246.289062 212.296875 241.757812 C 218.46875 246.289062 225.992188 249.027344 234.246094 249.027344 C 241.695312 249.027344 248.632812 246.800781 254.476562 243 C 259.226562 246.726562 265.140625 249.027344 271.640625 249.027344 C 287.125 249.027344 299.691406 236.464844 299.691406 220.980469 C 299.691406 205.496094 287.125 192.933594 271.640625 192.933594 " fill-opacity="1" fill-rule="nonzero"/></g><g clip-path="url(#clip-6)"><path fill="rgb(56.079102%, 58.81958%, 59.21936%)" d="M 290.339844 220.980469 C 283.839844 220.980469 277.921875 218.679688 273.175781 214.953125 C 267.332031 218.75 260.394531 220.980469 252.945312 220.980469 C 244.691406 220.980469 237.167969 218.242188 230.996094 213.710938 C 223.800781 218.242188 215.328125 220.980469 206.199219 220.980469 C 196.226562 220.980469 187.0625 217.800781 179.503906 212.507812 C 174.390625 217.730469 167.304688 220.980469 159.453125 220.980469 C 144.550781 220.980469 132.464844 209.292969 131.585938 194.613281 C 120.632812 198.410156 112.707031 208.707031 112.707031 220.980469 C 112.707031 236.464844 125.269531 249.027344 140.753906 249.027344 C 148.605469 249.027344 155.691406 245.777344 160.804688 240.554688 C 168.363281 245.847656 177.566406 249.027344 187.5 249.027344 C 196.628906 249.027344 205.101562 246.289062 212.296875 241.757812 C 218.46875 246.289062 225.992188 249.027344 234.246094 249.027344 C 241.695312 249.027344 248.632812 246.800781 254.476562 243 C 259.226562 246.726562 265.140625 249.027344 271.640625 249.027344 C 287.125 249.027344 299.691406 236.464844 299.691406 220.980469 C 299.691406 220.394531 299.542969 219.882812 299.507812 219.300781 C 296.621094 220.320312 293.554688 220.980469 290.339844 220.980469 " fill-opacity="1" fill-rule="nonzero"/></g><g clip-path="url(#clip-7)"><path fill="rgb(56.469727%, 85.099792%, 96.469116%)" d="M 617.558594 538.851562 L 477.324219 538.851562 C 472.175781 538.851562 467.972656 534.648438 467.972656 529.5 C 467.972656 524.351562 472.175781 520.152344 477.324219 520.152344 L 617.558594 520.152344 C 627.859375 520.152344 636.257812 511.753906 636.257812 501.453125 C 636.257812 491.15625 627.859375 482.753906 617.558594 482.753906 C 612.410156 482.753906 608.210938 478.554688 608.210938 473.40625 C 608.210938 468.257812 612.410156 464.058594 617.558594 464.058594 C 638.195312 464.058594 654.957031 480.820312 654.957031 501.453125 C 654.957031 522.085938 638.195312 538.851562 617.558594 538.851562 " fill-opacity="1" fill-rule="nonzero"/></g><path fill="rgb(56.469727%, 85.099792%, 96.469116%)" d="M 514.71875 613.644531 L 449.277344 613.644531 C 444.125 613.644531 439.925781 609.445312 439.925781 604.292969 C 439.925781 599.144531 444.125 594.945312 449.277344 594.945312 L 514.71875 594.945312 C 519.871094 594.945312 524.070312 599.144531 524.070312 604.292969 C 524.070312 609.445312 519.871094 613.644531 514.71875 613.644531 " fill-opacity="1" fill-rule="nonzero"/><path fill="rgb(56.469727%, 85.099792%, 96.469116%)" d="M 552.117188 501.453125 L 486.671875 501.453125 C 481.523438 501.453125 477.324219 497.253906 477.324219 492.105469 C 477.324219 486.957031 481.523438 482.753906 486.671875 482.753906 L 552.117188 482.753906 C 557.265625 482.753906 561.464844 486.957031 561.464844 492.105469 C 561.464844 497.253906 557.265625 501.453125 552.117188 501.453125 " fill-opacity="1" fill-rule="nonzero"/><g clip-path="url(#clip-8)"><path fill="rgb(56.469727%, 85.099792%, 96.469116%)" d="M 570.816406 632.339844 C 565.664062 632.339844 561.464844 628.140625 561.464844 622.992188 C 561.464844 617.84375 565.664062 613.644531 570.816406 613.644531 C 581.113281 613.644531 589.511719 605.242188 589.511719 594.945312 C 589.511719 584.644531 581.113281 576.246094 570.816406 576.246094 L 514.71875 576.246094 C 509.570312 576.246094 505.371094 572.046875 505.371094 566.898438 C 505.371094 561.75 509.570312 557.546875 514.71875 557.546875 L 570.816406 557.546875 C 591.449219 557.546875 608.210938 574.3125 608.210938 594.945312 C 608.210938 615.578125 591.449219 632.339844 570.816406 632.339844 " fill-opacity="1" fill-rule="nonzero"/></g><path fill="rgb(56.469727%, 85.099792%, 96.469116%)" d="M 383.832031 538.851562 L 365.132812 538.851562 C 359.984375 538.851562 355.785156 534.648438 355.785156 529.5 C 355.785156 524.351562 359.984375 520.152344 365.132812 520.152344 L 383.832031 520.152344 C 388.980469 520.152344 393.179688 524.351562 393.179688 529.5 C 393.179688 534.648438 388.980469 538.851562 383.832031 538.851562 " fill-opacity="1" fill-rule="nonzero"/><path fill="rgb(56.469727%, 85.099792%, 96.469116%)" d="M 421.230469 501.453125 L 402.53125 501.453125 C 397.382812 501.453125 393.179688 497.253906 393.179688 492.105469 C 393.179688 486.957031 397.382812 482.753906 402.53125 482.753906 L 421.230469 482.753906 C 426.378906 482.753906 430.578125 486.957031 430.578125 492.105469 C 430.578125 497.253906 426.378906 501.453125 421.230469 501.453125 " fill-opacity="1" fill-rule="nonzero"/><path fill="rgb(56.469727%, 85.099792%, 96.469116%)" d="M 159.453125 305.121094 C 156.019531 305.121094 152.734375 303.222656 151.089844 299.972656 L 141.742188 281.273438 C 139.441406 276.636719 141.300781 271.011719 145.902344 268.710938 C 150.542969 266.375 156.164062 268.273438 158.464844 272.875 L 167.816406 291.574219 C 170.117188 296.210938 168.253906 301.835938 163.652344 304.136719 C 162.300781 304.792969 160.878906 305.121094 159.453125 305.121094 " fill-opacity="1" fill-rule="nonzero"/><path fill="rgb(56.469727%, 85.099792%, 96.469116%)" d="M 196.847656 305.121094 C 193.417969 305.121094 190.128906 303.222656 188.484375 299.972656 L 179.136719 281.273438 C 176.835938 276.636719 178.699219 271.011719 183.300781 268.710938 C 187.9375 266.375 193.5625 268.273438 195.863281 272.875 L 205.210938 291.574219 C 207.511719 296.210938 205.652344 301.835938 201.050781 304.136719 C 199.699219 304.792969 198.273438 305.121094 196.847656 305.121094 " fill-opacity="1" fill-rule="nonzero"/><path fill="rgb(56.469727%, 85.099792%, 96.469116%)" d="M 234.246094 305.121094 C 230.8125 305.121094 227.527344 303.222656 225.882812 299.972656 L 216.535156 281.273438 C 214.234375 276.636719 216.09375 271.011719 220.695312 268.710938 C 225.335938 266.375 230.960938 268.273438 233.257812 272.875 L 242.609375 291.574219 C 244.910156 296.210938 243.046875 301.835938 238.445312 304.136719 C 237.09375 304.792969 235.671875 305.121094 234.246094 305.121094 " fill-opacity="1" fill-rule="nonzero"/><path fill="rgb(56.469727%, 85.099792%, 96.469116%)" d="M 271.640625 305.121094 C 268.210938 305.121094 264.921875 303.222656 263.277344 299.972656 L 253.929688 281.273438 C 251.628906 276.636719 253.492188 271.011719 258.09375 268.710938 C 262.730469 266.375 268.355469 268.273438 270.65625 272.875 L 280.003906 291.574219 C 282.304688 296.210938 280.445312 301.835938 275.84375 304.136719 C 274.492188 304.792969 273.066406 305.121094 271.640625 305.121094 " fill-opacity="1" fill-rule="nonzero"/><path fill="rgb(56.469727%, 85.099792%, 96.469116%)" d="M 178.152344 351.867188 C 174.71875 351.867188 171.429688 349.96875 169.789062 346.71875 L 160.4375 328.019531 C 158.136719 323.382812 160 317.757812 164.601562 315.457031 C 169.238281 313.15625 174.863281 315.019531 177.164062 319.621094 L 186.515625 338.320312 C 188.816406 342.957031 186.953125 348.582031 182.351562 350.882812 C 181 351.539062 179.574219 351.867188 178.152344 351.867188 " fill-opacity="1" fill-rule="nonzero"/><path fill="rgb(56.469727%, 85.099792%, 96.469116%)" d="M 215.546875 351.867188 C 212.113281 351.867188 208.828125 349.96875 207.183594 346.71875 L 197.835938 328.019531 C 195.535156 323.382812 197.398438 317.757812 202 315.457031 C 206.636719 313.15625 212.261719 315.019531 214.5625 319.621094 L 223.910156 338.320312 C 226.210938 342.957031 224.347656 348.582031 219.746094 350.882812 C 218.394531 351.539062 216.972656 351.867188 215.546875 351.867188 " fill-opacity="1" fill-rule="nonzero"/><path fill="rgb(56.469727%, 85.099792%, 96.469116%)" d="M 252.945312 351.867188 C 249.511719 351.867188 246.222656 349.96875 244.582031 346.71875 L 235.230469 328.019531 C 232.929688 323.382812 234.792969 317.757812 239.394531 315.457031 C 244.03125 313.15625 249.65625 315.019531 251.957031 319.621094 L 261.308594 338.320312 C 263.609375 342.957031 261.746094 348.582031 257.144531 350.882812 C 255.792969 351.539062 254.367188 351.867188 252.945312 351.867188 " fill-opacity="1" fill-rule="nonzero"/><path fill="rgb(56.469727%, 85.099792%, 96.469116%)" d="M 290.339844 351.867188 C 286.90625 351.867188 283.621094 349.96875 281.976562 346.71875 L 272.628906 328.019531 C 270.328125 323.382812 272.191406 317.757812 276.792969 315.457031 C 281.429688 313.15625 287.054688 315.019531 289.355469 319.621094 L 298.703125 338.320312 C 301.003906 342.957031 299.140625 348.582031 294.539062 350.882812 C 293.1875 351.539062 291.765625 351.867188 290.339844 351.867188 " fill-opacity="1" fill-rule="nonzero"/><path fill="rgb(56.469727%, 85.099792%, 96.469116%)" d="M 196.847656 407.960938 C 193.417969 407.960938 190.128906 406.0625 188.484375 402.8125 L 179.136719 384.113281 C 176.835938 379.476562 178.699219 373.851562 183.300781 371.550781 C 187.9375 369.25 193.5625 371.113281 195.863281 375.714844 L 205.210938 394.414062 C 207.511719 399.050781 205.652344 404.675781 201.050781 406.976562 C 199.699219 407.632812 198.273438 407.960938 196.847656 407.960938 " fill-opacity="1" fill-rule="nonzero"/><path fill="rgb(56.469727%, 85.099792%, 96.469116%)" d="M 234.246094 407.960938 C 230.8125 407.960938 227.527344 406.0625 225.882812 402.8125 L 216.535156 384.113281 C 214.234375 379.476562 216.09375 373.851562 220.695312 371.550781 C 225.335938 369.25 230.960938 371.113281 233.257812 375.714844 L 242.609375 394.414062 C 244.910156 399.050781 243.046875 404.675781 238.445312 406.976562 C 237.09375 407.632812 235.671875 407.960938 234.246094 407.960938 " fill-opacity="1" fill-rule="nonzero"/><path fill="rgb(56.469727%, 85.099792%, 96.469116%)" d="M 271.640625 407.960938 C 268.210938 407.960938 264.921875 406.0625 263.277344 402.8125 L 253.929688 384.113281 C 251.628906 379.476562 253.492188 373.851562 258.09375 371.550781 C 262.730469 369.25 268.355469 371.113281 270.65625 375.714844 L 280.003906 394.414062 C 282.304688 399.050781 280.445312 404.675781 275.84375 406.976562 C 274.492188 407.632812 273.066406 407.960938 271.640625 407.960938 " fill-opacity="1" fill-rule="nonzero"/><path fill="rgb(56.469727%, 85.099792%, 96.469116%)" d="M 299.691406 398.613281 C 296.257812 398.613281 292.96875 396.714844 291.328125 393.464844 L 281.976562 374.765625 C 279.675781 370.128906 281.539062 364.503906 286.140625 362.203125 C 290.777344 359.867188 296.402344 361.765625 298.703125 366.367188 L 308.054688 385.0625 C 310.355469 389.703125 308.492188 395.328125 303.890625 397.628906 C 302.539062 398.285156 301.113281 398.613281 299.691406 398.613281 " fill-opacity="1" fill-rule="nonzero"/></svg>