<?xml version="1.0" encoding="UTF-8" standalone="no"?>
<!-- Created with Inkscape (http://www.inkscape.org/) -->

<svg
   xmlns:dc="http://purl.org/dc/elements/1.1/"
   xmlns:cc="http://creativecommons.org/ns#"
   xmlns:rdf="http://www.w3.org/1999/02/22-rdf-syntax-ns#"
   xmlns:svg="http://www.w3.org/2000/svg"
   xmlns="http://www.w3.org/2000/svg"
   xmlns:sodipodi="http://sodipodi.sourceforge.net/DTD/sodipodi-0.dtd"
   xmlns:inkscape="http://www.inkscape.org/namespaces/inkscape"
   inkscape:export-ydpi="200"
   inkscape:export-xdpi="200"
   inkscape:export-filename="/home/manu/Bureau/zzz.svg.png"
   sodipodi:docname="2048.svg"
   inkscape:version="0.91 r13725"
   version="1.1"
   id="svg2"
   viewBox="0 0 480.84307 480.97261"
   height="135.74117mm"
   width="135.70461mm">
  <sodipodi:namedview
     fit-margin-bottom="0"
     fit-margin-right="0"
     fit-margin-left="0"
     fit-margin-top="0"
     inkscape:snap-center="true"
     inkscape:snap-intersection-paths="true"
     inkscape:snap-smooth-nodes="true"
     inkscape:snap-object-midpoints="true"
     inkscape:guide-bbox="true"
     showguides="true"
     inkscape:snap-global="false"
     showborder="false"
     inkscape:object-paths="true"
     inkscape:object-nodes="true"
     inkscape:window-maximized="1"
     inkscape:window-y="0"
     inkscape:window-x="0"
     inkscape:window-height="715"
     inkscape:window-width="1366"
     showgrid="true"
     inkscape:current-layer="layer2"
     inkscape:document-units="px"
     inkscape:cy="186.17238"
     inkscape:cx="95.433207"
     inkscape:zoom="0.61092899"
     inkscape:pageshadow="2"
     inkscape:pageopacity="1"
     borderopacity="1.0"
     bordercolor="#666666"
     pagecolor="#ffffff"
     id="base" />
  <defs
     id="defs4">
    <filter
       inkscape:collect="always"
       style="color-interpolation-filters:sRGB"
       id="filter4731"
       x="-0.26160002"
       width="1.5232"
       y="-0.26159999"
       height="1.5232">
      <feGaussianBlur
         inkscape:collect="always"
         stdDeviation="10.899998"
         id="feGaussianBlur4733" />
    </filter>
  </defs>
  <metadata
     id="metadata7">
    <rdf:RDF>
      <cc:Work
         rdf:about="">
        <dc:format>image/svg+xml</dc:format>
        <dc:type
           rdf:resource="http://purl.org/dc/dcmitype/StillImage" />
        <dc:title></dc:title>
      </cc:Work>
    </rdf:RDF>
  </metadata>
  <style
     id="style5913"
     type="text/css">
	.st0{fill:#85BB5F;stroke:#000;stroke-width:0.25;}
	.st1{fill:#3D7B3E;stroke:#000;stroke-linejoin:round;}
	.st2{fill:#94C473;}
</style>
  <style
     type="text/css"
     id="style5913-0">
	.st0{fill:#85BB5F;stroke:#000;stroke-width:0.25;}
	.st1{fill:#3D7B3E;stroke:#000;stroke-linejoin:round;}
	.st2{fill:#94C473;}
</style>
  <g
     inkscape:groupmode="layer"
     id="layer2"
     inkscape:label="dessin"
     style="display:inline;opacity:1"
     transform="translate(-60.563522,-434.97644)">
    <g
       id="g4735">
      <rect
         ry="4.9850359"
         rx="4.9850359"
         y="434.97644"
         x="60.563522"
         height="468.82773"
         width="468.79691"
         id="rect4569"
         style="color:#000000;clip-rule:nonzero;display:inline;overflow:visible;visibility:visible;opacity:1;isolation:auto;mix-blend-mode:normal;color-interpolation:sRGB;color-interpolation-filters:linearRGB;solid-color:#000000;solid-opacity:1;fill:#bbada0;fill-opacity:1;fill-rule:evenodd;stroke:none;stroke-width:1.00000012px;stroke-linecap:butt;stroke-linejoin:miter;stroke-miterlimit:4;stroke-dasharray:none;stroke-dashoffset:0;stroke-opacity:1;color-rendering:auto;image-rendering:auto;shape-rendering:auto;text-rendering:auto;enable-background:accumulate" />
      <path
         style="color:#000000;clip-rule:nonzero;display:inline;overflow:visible;visibility:visible;opacity:1;isolation:auto;mix-blend-mode:normal;color-interpolation:sRGB;color-interpolation-filters:linearRGB;solid-color:#000000;solid-opacity:1;fill:#cdc0b4;fill-opacity:1;fill-rule:evenodd;stroke:none;stroke-width:1.00000012px;stroke-linecap:butt;stroke-linejoin:miter;stroke-miterlimit:4;stroke-dasharray:none;stroke-dashoffset:0;stroke-opacity:1;color-rendering:auto;image-rendering:auto;shape-rendering:auto;text-rendering:auto;enable-background:accumulate"
         d="m 78.324398,448.50552 93.428372,0 c 1.82033,0 3.2858,1.46547 3.2858,3.28581 l 0,93.42837 c 0,1.82034 -1.46547,3.28581 -3.2858,3.28581 l -93.428372,0 c -1.82034,0 -3.28581,-1.46547 -3.28581,-3.28581 l 0,-93.42837 c 0,-1.82034 1.46547,-3.28581 3.28581,-3.28581 z"
         id="rect4218"
         inkscape:connector-curvature="0" />
      <path
         style="color:#000000;clip-rule:nonzero;display:inline;overflow:visible;visibility:visible;opacity:1;isolation:auto;mix-blend-mode:normal;color-interpolation:sRGB;color-interpolation-filters:linearRGB;solid-color:#000000;solid-opacity:1;fill:#cdc0b4;fill-opacity:1;fill-rule:evenodd;stroke:none;stroke-width:1.00000012px;stroke-linecap:butt;stroke-linejoin:miter;stroke-miterlimit:4;stroke-dasharray:none;stroke-dashoffset:0;stroke-opacity:1;color-rendering:auto;image-rendering:auto;shape-rendering:auto;text-rendering:auto;enable-background:accumulate"
         d="m 418.53237,448.50552 93.42837,0 c 1.82033,0 3.2858,1.46547 3.2858,3.28581 l 0,93.42837 c 0,1.82034 -1.46547,3.28581 -3.2858,3.28581 l -93.42837,0 c -1.82034,0 -3.28581,-1.46547 -3.28581,-3.28581 l 0,-93.42837 c 0,-1.82034 1.46547,-3.28581 3.28581,-3.28581 z"
         id="rect4220"
         inkscape:connector-curvature="0" />
      <path
         inkscape:connector-curvature="0"
         id="path4245"
         style="color:#000000;clip-rule:nonzero;display:inline;overflow:visible;visibility:visible;opacity:1;isolation:auto;mix-blend-mode:normal;color-interpolation:sRGB;color-interpolation-filters:linearRGB;solid-color:#000000;solid-opacity:1;fill:#cdc0b4;fill-opacity:1;fill-rule:evenodd;stroke:none;stroke-width:1.00000012;stroke-linecap:butt;stroke-linejoin:miter;stroke-miterlimit:4;stroke-dasharray:none;stroke-dashoffset:0;stroke-opacity:1;color-rendering:auto;image-rendering:auto;shape-rendering:auto;text-rendering:auto;enable-background:accumulate"
         d="m 305.12971,448.50552 c 0,0 93.42837,0 93.42837,0 1.82034,0 3.28581,1.46547 3.28581,3.28581 0,0 0,93.42837 0,93.42837 0,1.82034 -1.46547,3.28581 -3.28581,3.28581 0,0 -93.42837,0 -93.42837,0 -1.82034,0 -3.28581,-1.46547 -3.28581,-3.28581 0,0 0,-93.42837 0,-93.42837 0,-1.82034 1.46547,-3.28581 3.28581,-3.28581 0,0 0,0 0,0" />
      <path
         inkscape:connector-curvature="0"
         id="path4247"
         style="color:#000000;clip-rule:nonzero;display:inline;overflow:visible;visibility:visible;opacity:1;isolation:auto;mix-blend-mode:normal;color-interpolation:sRGB;color-interpolation-filters:linearRGB;solid-color:#000000;solid-opacity:1;fill:#eee4da;fill-opacity:1;fill-rule:evenodd;stroke:none;stroke-width:1.00000012;stroke-linecap:butt;stroke-linejoin:miter;stroke-miterlimit:4;stroke-dasharray:none;stroke-dashoffset:0;stroke-opacity:1;color-rendering:auto;image-rendering:auto;shape-rendering:auto;text-rendering:auto;enable-background:accumulate"
         d="m 191.72706,448.50552 c 0,0 93.42837,0 93.42837,0 1.82033,0 3.2858,1.46547 3.2858,3.28581 0,0 0,93.42837 0,93.42837 0,1.82034 -1.46547,3.28581 -3.2858,3.28581 0,0 -93.42837,0 -93.42837,0 -1.82034,0 -3.28581,-1.46547 -3.28581,-3.28581 0,0 0,-93.42837 0,-93.42837 0,-1.82034 1.46547,-3.28581 3.28581,-3.28581 0,0 0,0 0,0" />
      <path
         inkscape:connector-curvature="0"
         id="path4269"
         d="m 78.324398,789.78901 93.428372,0 c 1.82033,0 3.2858,1.46547 3.2858,3.28581 l 0,93.42837 c 0,1.82034 -1.46547,3.28581 -3.2858,3.28581 l -93.428372,0 c -1.82034,0 -3.28581,-1.46547 -3.28581,-3.28581 l 0,-93.42837 c 0,-1.82034 1.46547,-3.28581 3.28581,-3.28581 z"
         style="color:#000000;clip-rule:nonzero;display:inline;overflow:visible;visibility:visible;opacity:1;isolation:auto;mix-blend-mode:normal;color-interpolation:sRGB;color-interpolation-filters:linearRGB;solid-color:#000000;solid-opacity:1;fill:#eee4da;fill-opacity:1;fill-rule:evenodd;stroke:none;stroke-width:1.00000012px;stroke-linecap:butt;stroke-linejoin:miter;stroke-miterlimit:4;stroke-dasharray:none;stroke-dashoffset:0;stroke-opacity:1;color-rendering:auto;image-rendering:auto;shape-rendering:auto;text-rendering:auto;enable-background:accumulate" />
      <path
         style="color:#000000;clip-rule:nonzero;display:inline;overflow:visible;visibility:visible;opacity:1;isolation:auto;mix-blend-mode:normal;color-interpolation:sRGB;color-interpolation-filters:linearRGB;solid-color:#000000;solid-opacity:1;fill:#ffff00;fill-opacity:1;fill-rule:evenodd;stroke:none;stroke-width:1.00000012px;stroke-linecap:butt;stroke-linejoin:miter;stroke-miterlimit:4;stroke-dasharray:none;stroke-dashoffset:0;stroke-opacity:1;filter:url(#filter4731);color-rendering:auto;image-rendering:auto;shape-rendering:auto;text-rendering:auto;enable-background:accumulate"
         d="m 418.53237,789.78901 93.42837,0 c 1.82033,0 3.2858,1.46547 3.2858,3.28581 l 0,93.42837 c 0,1.82034 -1.46547,3.28581 -3.2858,3.28581 l -93.42837,0 c -1.82034,0 -3.28581,-1.46547 -3.28581,-3.28581 l 0,-93.42837 c 0,-1.82034 1.46547,-3.28581 3.28581,-3.28581 z"
         id="path4701"
         inkscape:connector-curvature="0" />
      <path
         inkscape:connector-curvature="0"
         id="path4271"
         d="m 418.53237,789.78901 93.42837,0 c 1.82033,0 3.2858,1.46547 3.2858,3.28581 l 0,93.42837 c 0,1.82034 -1.46547,3.28581 -3.2858,3.28581 l -93.42837,0 c -1.82034,0 -3.28581,-1.46547 -3.28581,-3.28581 l 0,-93.42837 c 0,-1.82034 1.46547,-3.28581 3.28581,-3.28581 z"
         style="color:#000000;clip-rule:nonzero;display:inline;overflow:visible;visibility:visible;opacity:1;isolation:auto;mix-blend-mode:normal;color-interpolation:sRGB;color-interpolation-filters:linearRGB;solid-color:#000000;solid-opacity:1;fill:#edc22e;fill-opacity:1;fill-rule:evenodd;stroke:none;stroke-width:1.00000012px;stroke-linecap:butt;stroke-linejoin:miter;stroke-miterlimit:4;stroke-dasharray:none;stroke-dashoffset:0;stroke-opacity:1;color-rendering:auto;image-rendering:auto;shape-rendering:auto;text-rendering:auto;enable-background:accumulate" />
      <path
         d="m 305.12971,789.78901 c 0,0 93.42837,0 93.42837,0 1.82034,0 3.28581,1.46547 3.28581,3.28581 0,0 0,93.42837 0,93.42837 0,1.82034 -1.46547,3.28581 -3.28581,3.28581 0,0 -93.42837,0 -93.42837,0 -1.82034,0 -3.28581,-1.46547 -3.28581,-3.28581 0,0 0,-93.42837 0,-93.42837 0,-1.82034 1.46547,-3.28581 3.28581,-3.28581 0,0 0,0 0,0"
         style="color:#000000;clip-rule:nonzero;display:inline;overflow:visible;visibility:visible;opacity:1;isolation:auto;mix-blend-mode:normal;color-interpolation:sRGB;color-interpolation-filters:linearRGB;solid-color:#000000;solid-opacity:1;fill:#eee4da;fill-opacity:1;fill-rule:evenodd;stroke:none;stroke-width:1.00000012;stroke-linecap:butt;stroke-linejoin:miter;stroke-miterlimit:4;stroke-dasharray:none;stroke-dashoffset:0;stroke-opacity:1;color-rendering:auto;image-rendering:auto;shape-rendering:auto;text-rendering:auto;enable-background:accumulate"
         id="path4275"
         inkscape:connector-curvature="0" />
      <path
         d="m 191.72706,789.78901 c 0,0 93.42837,0 93.42837,0 1.82033,0 3.2858,1.46547 3.2858,3.28581 0,0 0,93.42837 0,93.42837 0,1.82034 -1.46547,3.28581 -3.2858,3.28581 0,0 -93.42837,0 -93.42837,0 -1.82034,0 -3.28581,-1.46547 -3.28581,-3.28581 0,0 0,-93.42837 0,-93.42837 0,-1.82034 1.46547,-3.28581 3.28581,-3.28581 0,0 0,0 0,0"
         style="color:#000000;clip-rule:nonzero;display:inline;overflow:visible;visibility:visible;opacity:1;isolation:auto;mix-blend-mode:normal;color-interpolation:sRGB;color-interpolation-filters:linearRGB;solid-color:#000000;solid-opacity:1;fill:#ede0c8;fill-opacity:1;fill-rule:evenodd;stroke:none;stroke-width:1.00000012;stroke-linecap:butt;stroke-linejoin:miter;stroke-miterlimit:4;stroke-dasharray:none;stroke-dashoffset:0;stroke-opacity:1;color-rendering:auto;image-rendering:auto;shape-rendering:auto;text-rendering:auto;enable-background:accumulate"
         id="path4277"
         inkscape:connector-curvature="0" />
      <path
         d="m 78.324398,562.26668 c 0,0 93.428372,0 93.428372,0 1.82033,0 3.2858,1.46547 3.2858,3.28581 0,0 0,93.42837 0,93.42837 0,1.82034 -1.46547,3.28581 -3.2858,3.28581 0,0 -93.428372,0 -93.428372,0 -1.82034,0 -3.28581,-1.46547 -3.28581,-3.28581 0,0 0,-93.42837 0,-93.42837 0,-1.82034 1.46547,-3.28581 3.28581,-3.28581 0,0 0,0 0,0"
         style="color:#000000;clip-rule:nonzero;display:inline;overflow:visible;visibility:visible;opacity:1;isolation:auto;mix-blend-mode:normal;color-interpolation:sRGB;color-interpolation-filters:linearRGB;solid-color:#000000;solid-opacity:1;fill:#cdc0b4;fill-opacity:1;fill-rule:evenodd;stroke:none;stroke-width:1.00000012;stroke-linecap:butt;stroke-linejoin:miter;stroke-miterlimit:4;stroke-dasharray:none;stroke-dashoffset:0;stroke-opacity:1;color-rendering:auto;image-rendering:auto;shape-rendering:auto;text-rendering:auto;enable-background:accumulate"
         id="path4322"
         inkscape:connector-curvature="0" />
      <path
         d="m 78.324398,676.02785 c 0,0 93.428372,0 93.428372,0 1.82033,0 3.2858,1.46547 3.2858,3.28581 0,0 0,93.42837 0,93.42837 0,1.82034 -1.46547,3.28581 -3.2858,3.28581 0,0 -93.428372,0 -93.428372,0 -1.82034,0 -3.28581,-1.46547 -3.28581,-3.28581 0,0 0,-93.42837 0,-93.42837 0,-1.82034 1.46547,-3.28581 3.28581,-3.28581 0,0 0,0 0,0"
         style="color:#000000;clip-rule:nonzero;display:inline;overflow:visible;visibility:visible;opacity:1;isolation:auto;mix-blend-mode:normal;color-interpolation:sRGB;color-interpolation-filters:linearRGB;solid-color:#000000;solid-opacity:1;fill:#cdc0b4;fill-opacity:1;fill-rule:evenodd;stroke:none;stroke-width:1.00000012;stroke-linecap:butt;stroke-linejoin:miter;stroke-miterlimit:4;stroke-dasharray:none;stroke-dashoffset:0;stroke-opacity:1;color-rendering:auto;image-rendering:auto;shape-rendering:auto;text-rendering:auto;enable-background:accumulate"
         id="path4324"
         inkscape:connector-curvature="0" />
      <path
         id="path4382"
         style="color:#000000;clip-rule:nonzero;display:inline;overflow:visible;visibility:visible;opacity:1;isolation:auto;mix-blend-mode:normal;color-interpolation:sRGB;color-interpolation-filters:linearRGB;solid-color:#000000;solid-opacity:1;fill:#ede0c8;fill-opacity:1;fill-rule:evenodd;stroke:none;stroke-width:1.00000012;stroke-linecap:butt;stroke-linejoin:miter;stroke-miterlimit:4;stroke-dasharray:none;stroke-dashoffset:0;stroke-opacity:1;color-rendering:auto;image-rendering:auto;shape-rendering:auto;text-rendering:auto;enable-background:accumulate"
         d="m 191.72706,562.26668 c 0,0 93.42837,0 93.42837,0 1.82033,0 3.2858,1.46547 3.2858,3.28581 0,0 0,93.42837 0,93.42837 0,1.82034 -1.46547,3.28581 -3.2858,3.28581 0,0 -93.42837,0 -93.42837,0 -1.82034,0 -3.28581,-1.46547 -3.28581,-3.28581 0,0 0,-93.42837 0,-93.42837 0,-1.82034 1.46547,-3.28581 3.28581,-3.28581 0,0 0,0 0,0"
         inkscape:connector-curvature="0" />
      <path
         id="path4384"
         style="color:#000000;clip-rule:nonzero;display:inline;overflow:visible;visibility:visible;opacity:1;isolation:auto;mix-blend-mode:normal;color-interpolation:sRGB;color-interpolation-filters:linearRGB;solid-color:#000000;solid-opacity:1;fill:#f2b179;fill-opacity:1;fill-rule:evenodd;stroke:none;stroke-width:1.00000012;stroke-linecap:butt;stroke-linejoin:miter;stroke-miterlimit:4;stroke-dasharray:none;stroke-dashoffset:0;stroke-opacity:1;color-rendering:auto;image-rendering:auto;shape-rendering:auto;text-rendering:auto;enable-background:accumulate"
         d="m 191.72706,676.02785 c 0,0 93.42837,0 93.42837,0 1.82033,0 3.2858,1.46547 3.2858,3.28581 0,0 0,93.42837 0,93.42837 0,1.82034 -1.46547,3.28581 -3.2858,3.28581 0,0 -93.42837,0 -93.42837,0 -1.82034,0 -3.28581,-1.46547 -3.28581,-3.28581 0,0 0,-93.42837 0,-93.42837 0,-1.82034 1.46547,-3.28581 3.28581,-3.28581 0,0 0,0 0,0"
         inkscape:connector-curvature="0" />
      <path
         d="m 305.12971,562.26668 c 0,0 93.42837,0 93.42837,0 1.82034,0 3.28581,1.46547 3.28581,3.28581 0,0 0,93.42837 0,93.42837 0,1.82034 -1.46547,3.28581 -3.28581,3.28581 0,0 -93.42837,0 -93.42837,0 -1.82034,0 -3.28581,-1.46547 -3.28581,-3.28581 0,0 0,-93.42837 0,-93.42837 0,-1.82034 1.46547,-3.28581 3.28581,-3.28581 0,0 0,0 0,0"
         style="color:#000000;clip-rule:nonzero;display:inline;overflow:visible;visibility:visible;opacity:1;isolation:auto;mix-blend-mode:normal;color-interpolation:sRGB;color-interpolation-filters:linearRGB;solid-color:#000000;solid-opacity:1;fill:#f67c5f;fill-opacity:1;fill-rule:evenodd;stroke:none;stroke-width:1.00000012;stroke-linecap:butt;stroke-linejoin:miter;stroke-miterlimit:4;stroke-dasharray:none;stroke-dashoffset:0;stroke-opacity:1;color-rendering:auto;image-rendering:auto;shape-rendering:auto;text-rendering:auto;enable-background:accumulate"
         id="path4448"
         inkscape:connector-curvature="0" />
      <path
         d="m 305.12971,676.02785 c 0,0 93.42837,0 93.42837,0 1.82034,0 3.28581,1.46547 3.28581,3.28581 0,0 0,93.42837 0,93.42837 0,1.82034 -1.46547,3.28581 -3.28581,3.28581 0,0 -93.42837,0 -93.42837,0 -1.82034,0 -3.28581,-1.46547 -3.28581,-3.28581 0,0 0,-93.42837 0,-93.42837 0,-1.82034 1.46547,-3.28581 3.28581,-3.28581 0,0 0,0 0,0"
         style="color:#000000;clip-rule:nonzero;display:inline;overflow:visible;visibility:visible;opacity:1;isolation:auto;mix-blend-mode:normal;color-interpolation:sRGB;color-interpolation-filters:linearRGB;solid-color:#000000;solid-opacity:1;fill:#f65e3b;fill-opacity:1;fill-rule:evenodd;stroke:none;stroke-width:1.00000012;stroke-linecap:butt;stroke-linejoin:miter;stroke-miterlimit:4;stroke-dasharray:none;stroke-dashoffset:0;stroke-opacity:1;color-rendering:auto;image-rendering:auto;shape-rendering:auto;text-rendering:auto;enable-background:accumulate"
         id="path4450"
         inkscape:connector-curvature="0" />
      <path
         id="path4520"
         style="color:#000000;clip-rule:nonzero;display:inline;overflow:visible;visibility:visible;opacity:1;isolation:auto;mix-blend-mode:normal;color-interpolation:sRGB;color-interpolation-filters:linearRGB;solid-color:#000000;solid-opacity:1;fill:#eee4da;fill-opacity:1;fill-rule:evenodd;stroke:none;stroke-width:1.00000012;stroke-linecap:butt;stroke-linejoin:miter;stroke-miterlimit:4;stroke-dasharray:none;stroke-dashoffset:0;stroke-opacity:1;color-rendering:auto;image-rendering:auto;shape-rendering:auto;text-rendering:auto;enable-background:accumulate"
         d="m 418.53237,562.26668 c 0,0 93.42837,0 93.42837,0 1.82033,0 3.2858,1.46547 3.2858,3.28581 0,0 0,93.42837 0,93.42837 0,1.82034 -1.46547,3.28581 -3.2858,3.28581 0,0 -93.42837,0 -93.42837,0 -1.82034,0 -3.28581,-1.46547 -3.28581,-3.28581 0,0 0,-93.42837 0,-93.42837 0,-1.82034 1.46547,-3.28581 3.28581,-3.28581 0,0 0,0 0,0"
         inkscape:connector-curvature="0" />
      <path
         id="path4522"
         style="color:#000000;clip-rule:nonzero;display:inline;overflow:visible;visibility:visible;opacity:1;isolation:auto;mix-blend-mode:normal;color-interpolation:sRGB;color-interpolation-filters:linearRGB;solid-color:#000000;solid-opacity:1;fill:#edcf72;fill-opacity:1;fill-rule:evenodd;stroke:none;stroke-width:1.00000012;stroke-linecap:butt;stroke-linejoin:miter;stroke-miterlimit:4;stroke-dasharray:none;stroke-dashoffset:0;stroke-opacity:1;color-rendering:auto;image-rendering:auto;shape-rendering:auto;text-rendering:auto;enable-background:accumulate"
         d="m 418.53237,676.02785 c 0,0 93.42837,0 93.42837,0 1.82033,0 3.2858,1.46547 3.2858,3.28581 0,0 0,93.42837 0,93.42837 0,1.82034 -1.46547,3.28581 -3.2858,3.28581 0,0 -93.42837,0 -93.42837,0 -1.82034,0 -3.28581,-1.46547 -3.28581,-3.28581 0,0 0,-93.42837 0,-93.42837 0,-1.82034 1.46547,-3.28581 3.28581,-3.28581 0,0 0,0 0,0"
         inkscape:connector-curvature="0" />
      <text
         sodipodi:linespacing="125%"
         id="text4571"
         y="517.06018"
         x="239.12483"
         style="font-style:normal;font-variant:normal;font-weight:bold;font-stretch:normal;font-size:50px;line-height:125%;font-family:sans-serif;-inkscape-font-specification:'sans-serif Bold';text-align:center;letter-spacing:0px;word-spacing:0px;text-anchor:middle;fill:#776e65;fill-opacity:1;stroke:none;stroke-width:1px;stroke-linecap:butt;stroke-linejoin:miter;stroke-opacity:1"
         xml:space="preserve"><tspan
           y="517.06018"
           x="239.12483"
           id="tspan4573"
           sodipodi:role="line">2</tspan></text>
      <text
         xml:space="preserve"
         style="color:#000000;font-style:normal;font-variant:normal;font-weight:bold;font-stretch:normal;font-size:50px;line-height:125%;font-family:sans-serif;-inkscape-font-specification:'sans-serif Bold';text-indent:0;text-align:center;text-decoration:none;text-decoration-line:none;text-decoration-style:solid;text-decoration-color:#000000;letter-spacing:0px;word-spacing:0px;text-transform:none;direction:ltr;block-progression:tb;writing-mode:lr-tb;baseline-shift:baseline;text-anchor:middle;white-space:normal;clip-rule:nonzero;display:inline;overflow:visible;visibility:visible;opacity:1;isolation:auto;mix-blend-mode:normal;color-interpolation:sRGB;color-interpolation-filters:linearRGB;solid-color:#000000;solid-opacity:1;fill:#776e65;fill-opacity:1;fill-rule:nonzero;stroke:none;stroke-width:1px;stroke-linecap:butt;stroke-linejoin:miter;stroke-miterlimit:4;stroke-dasharray:none;stroke-dashoffset:0;stroke-opacity:1;color-rendering:auto;image-rendering:auto;shape-rendering:auto;text-rendering:auto;enable-background:accumulate"
         x="465.93015"
         y="630.82135"
         id="text4575"
         sodipodi:linespacing="125%"><tspan
           sodipodi:role="line"
           id="tspan4577"
           x="465.93015"
           y="630.82135">2</tspan></text>
      <text
         xml:space="preserve"
         style="color:#000000;font-style:normal;font-variant:normal;font-weight:bold;font-stretch:normal;font-size:50px;line-height:125%;font-family:sans-serif;-inkscape-font-specification:'sans-serif Bold';text-indent:0;text-align:center;text-decoration:none;text-decoration-line:none;text-decoration-style:solid;text-decoration-color:#000000;letter-spacing:0px;word-spacing:0px;text-transform:none;direction:ltr;block-progression:tb;writing-mode:lr-tb;baseline-shift:baseline;text-anchor:middle;white-space:normal;clip-rule:nonzero;display:inline;overflow:visible;visibility:visible;opacity:1;isolation:auto;mix-blend-mode:normal;color-interpolation:sRGB;color-interpolation-filters:linearRGB;solid-color:#000000;solid-opacity:1;fill:#776e65;fill-opacity:1;fill-rule:nonzero;stroke:none;stroke-width:1px;stroke-linecap:butt;stroke-linejoin:miter;stroke-miterlimit:4;stroke-dasharray:none;stroke-dashoffset:0;stroke-opacity:1;color-rendering:auto;image-rendering:auto;shape-rendering:auto;text-rendering:auto;enable-background:accumulate"
         x="125.72218"
         y="858.34369"
         id="text4579"
         sodipodi:linespacing="125%"><tspan
           sodipodi:role="line"
           id="tspan4581"
           x="125.72218"
           y="858.34369">2</tspan></text>
      <text
         sodipodi:linespacing="125%"
         id="text4583"
         y="858.34369"
         x="352.5275"
         style="color:#000000;font-style:normal;font-variant:normal;font-weight:bold;font-stretch:normal;font-size:50px;line-height:125%;font-family:sans-serif;-inkscape-font-specification:'sans-serif Bold';text-indent:0;text-align:center;text-decoration:none;text-decoration-line:none;text-decoration-style:solid;text-decoration-color:#000000;letter-spacing:0px;word-spacing:0px;text-transform:none;direction:ltr;block-progression:tb;writing-mode:lr-tb;baseline-shift:baseline;text-anchor:middle;white-space:normal;clip-rule:nonzero;display:inline;overflow:visible;visibility:visible;opacity:1;isolation:auto;mix-blend-mode:normal;color-interpolation:sRGB;color-interpolation-filters:linearRGB;solid-color:#000000;solid-opacity:1;fill:#776e65;fill-opacity:1;fill-rule:nonzero;stroke:none;stroke-width:1px;stroke-linecap:butt;stroke-linejoin:miter;stroke-miterlimit:4;stroke-dasharray:none;stroke-dashoffset:0;stroke-opacity:1;color-rendering:auto;image-rendering:auto;shape-rendering:auto;text-rendering:auto;enable-background:accumulate"
         xml:space="preserve"><tspan
           y="858.34369"
           x="352.5275"
           id="tspan4585"
           sodipodi:role="line">2</tspan></text>
      <text
         xml:space="preserve"
         style="font-style:normal;font-variant:normal;font-weight:bold;font-stretch:normal;font-size:50px;line-height:125%;font-family:sans-serif;-inkscape-font-specification:'sans-serif Bold';text-align:center;letter-spacing:0px;word-spacing:0px;text-anchor:middle;fill:#776e65;fill-opacity:1;stroke:none;stroke-width:1px;stroke-linecap:butt;stroke-linejoin:miter;stroke-opacity:1"
         x="239.12483"
         y="630.82135"
         id="text4587"
         sodipodi:linespacing="125%"><tspan
           sodipodi:role="line"
           id="tspan4589"
           x="239.12483"
           y="630.82135">4</tspan></text>
      <text
         sodipodi:linespacing="125%"
         id="text4591"
         y="858.0141"
         x="239.12483"
         style="color:#000000;font-style:normal;font-variant:normal;font-weight:bold;font-stretch:normal;font-size:50px;line-height:125%;font-family:sans-serif;-inkscape-font-specification:'sans-serif Bold';text-indent:0;text-align:center;text-decoration:none;text-decoration-line:none;text-decoration-style:solid;text-decoration-color:#000000;letter-spacing:0px;word-spacing:0px;text-transform:none;direction:ltr;block-progression:tb;writing-mode:lr-tb;baseline-shift:baseline;text-anchor:middle;white-space:normal;clip-rule:nonzero;display:inline;overflow:visible;visibility:visible;opacity:1;isolation:auto;mix-blend-mode:normal;color-interpolation:sRGB;color-interpolation-filters:linearRGB;solid-color:#000000;solid-opacity:1;fill:#776e65;fill-opacity:1;fill-rule:nonzero;stroke:none;stroke-width:1px;stroke-linecap:butt;stroke-linejoin:miter;stroke-miterlimit:4;stroke-dasharray:none;stroke-dashoffset:0;stroke-opacity:1;color-rendering:auto;image-rendering:auto;shape-rendering:auto;text-rendering:auto;enable-background:accumulate"
         xml:space="preserve"><tspan
           y="858.0141"
           x="239.12483"
           id="tspan4593"
           sodipodi:role="line">4</tspan></text>
      <text
         xml:space="preserve"
         style="font-style:normal;font-variant:normal;font-weight:bold;font-stretch:normal;font-size:50px;line-height:125%;font-family:sans-serif;-inkscape-font-specification:'sans-serif Bold';text-align:center;letter-spacing:0px;word-spacing:0px;text-anchor:middle;fill:#f9f6f2;fill-opacity:1;stroke:none;stroke-width:1px;stroke-linecap:butt;stroke-linejoin:miter;stroke-opacity:1"
         x="239.12483"
         y="744.25293"
         id="text4595"
         sodipodi:linespacing="125%"><tspan
           sodipodi:role="line"
           id="tspan4597"
           x="239.12483"
           y="744.25293">8</tspan></text>
      <text
         sodipodi:linespacing="125%"
         id="text4601"
         y="744.22852"
         x="351.86832"
         style="color:#000000;font-style:normal;font-variant:normal;font-weight:bold;font-stretch:normal;font-size:50px;line-height:125%;font-family:sans-serif;-inkscape-font-specification:'sans-serif Bold';text-indent:0;text-align:center;text-decoration:none;text-decoration-line:none;text-decoration-style:solid;text-decoration-color:#000000;letter-spacing:0px;word-spacing:0px;text-transform:none;direction:ltr;block-progression:tb;writing-mode:lr-tb;baseline-shift:baseline;text-anchor:middle;white-space:normal;clip-rule:nonzero;display:inline;overflow:visible;visibility:visible;opacity:1;isolation:auto;mix-blend-mode:normal;color-interpolation:sRGB;color-interpolation-filters:linearRGB;solid-color:#000000;solid-opacity:1;fill:#f9f6f2;fill-opacity:1;fill-rule:nonzero;stroke:none;stroke-width:1px;stroke-linecap:butt;stroke-linejoin:miter;stroke-miterlimit:4;stroke-dasharray:none;stroke-dashoffset:0;stroke-opacity:1;color-rendering:auto;image-rendering:auto;shape-rendering:auto;text-rendering:auto;enable-background:accumulate"
         xml:space="preserve"><tspan
           y="744.22852"
           x="351.86832"
           id="tspan4603"
           sodipodi:role="line">64</tspan></text>
      <text
         xml:space="preserve"
         style="font-style:normal;font-variant:normal;font-weight:bold;font-stretch:normal;font-size:50px;line-height:125%;font-family:sans-serif;-inkscape-font-specification:'sans-serif Bold';text-align:center;letter-spacing:0px;word-spacing:0px;text-anchor:middle;fill:#f9f6f2;fill-opacity:1;stroke:none;stroke-width:1px;stroke-linecap:butt;stroke-linejoin:miter;stroke-opacity:1"
         x="351.86832"
         y="630.46735"
         id="text4605"
         sodipodi:linespacing="125%"><tspan
           sodipodi:role="line"
           id="tspan4607"
           x="351.86832"
           y="630.46735">32</tspan></text>
      <text
         transform="scale(0.95480097,1.0473387)"
         sodipodi:linespacing="125%"
         id="text4609"
         y="708.20142"
         x="486.21512"
         style="color:#000000;font-style:normal;font-variant:normal;font-weight:bold;font-stretch:normal;font-size:41.17794037px;line-height:125%;font-family:sans-serif;-inkscape-font-specification:'sans-serif Bold';text-indent:0;text-align:center;text-decoration:none;text-decoration-line:none;text-decoration-style:solid;text-decoration-color:#000000;letter-spacing:0px;word-spacing:0px;text-transform:none;direction:ltr;block-progression:tb;writing-mode:lr-tb;baseline-shift:baseline;text-anchor:middle;white-space:normal;clip-rule:nonzero;display:inline;overflow:visible;visibility:visible;opacity:1;isolation:auto;mix-blend-mode:normal;color-interpolation:sRGB;color-interpolation-filters:linearRGB;solid-color:#000000;solid-opacity:1;fill:#f9f6f2;fill-opacity:1;fill-rule:nonzero;stroke:none;stroke-width:1px;stroke-linecap:butt;stroke-linejoin:miter;stroke-miterlimit:4;stroke-dasharray:none;stroke-dashoffset:0;stroke-opacity:1;color-rendering:auto;image-rendering:auto;shape-rendering:auto;text-rendering:auto;enable-background:accumulate"
         xml:space="preserve"><tspan
           y="708.20142"
           x="486.21512"
           id="tspan4611"
           sodipodi:role="line">128</tspan></text>
      <text
         xml:space="preserve"
         style="color:#000000;font-style:normal;font-variant:normal;font-weight:bold;font-stretch:normal;font-size:31.90615463px;line-height:125%;font-family:sans-serif;-inkscape-font-specification:'sans-serif Bold';text-indent:0;text-align:center;text-decoration:none;text-decoration-line:none;text-decoration-style:solid;text-decoration-color:#000000;letter-spacing:0px;word-spacing:0px;text-transform:none;direction:ltr;block-progression:tb;writing-mode:lr-tb;baseline-shift:baseline;text-anchor:middle;white-space:normal;clip-rule:nonzero;display:inline;overflow:visible;visibility:visible;opacity:1;isolation:auto;mix-blend-mode:normal;color-interpolation:sRGB;color-interpolation-filters:linearRGB;solid-color:#000000;solid-opacity:1;fill:#f9f6f2;fill-opacity:1;fill-rule:nonzero;stroke:none;stroke-width:1px;stroke-linecap:butt;stroke-linejoin:miter;stroke-miterlimit:4;stroke-dasharray:none;stroke-dashoffset:0;stroke-opacity:1;color-rendering:auto;image-rendering:auto;shape-rendering:auto;text-rendering:auto;enable-background:accumulate"
         x="466.05627"
         y="851.40332"
         id="text4613"
         sodipodi:linespacing="125%"><tspan
           sodipodi:role="line"
           id="tspan4615"
           x="466.05627"
           y="851.40332">2048</tspan></text>
    </g>
  </g>
</svg>
