<svg xmlns="http://www.w3.org/2000/svg" xmlns:xlink="http://www.w3.org/1999/xlink" width="128" zoomAndPan="magnify" viewBox="0 0 96 95.999999" height="128" preserveAspectRatio="xMidYMid meet" version="1.0"><defs><clipPath id="5c7b012bba"><path d="M 0 1 L 93 1 L 93 95.738281 L 0 95.738281 Z M 0 1 " clip-rule="nonzero"/></clipPath></defs><rect x="-9.6" width="115.2" fill="#ffffff" y="-9.6" height="115.199999" fill-opacity="1"/><rect x="-9.6" width="115.2" fill="#ffffff" y="-9.6" height="115.199999" fill-opacity="1"/><rect x="-9.6" width="115.2" fill="#000000" y="-9.6" height="115.199999" fill-opacity="1"/><path fill="#ff914d" d="M 42.351562 49.609375 C 39.285156 43.902344 35.613281 38.105469 34.066406 31.734375 C 33.519531 29.4375 29.964844 30.40625 30.511719 32.699219 C 31.121094 35.175781 32.03125 37.589844 33.09375 39.945312 C 32.820312 39.886719 32.515625 39.886719 32.152344 39.976562 C 30.207031 40.519531 28.296875 41.09375 26.503906 41.96875 C 25.835938 40.308594 25.261719 38.617188 24.714844 36.925781 C 24.925781 36.472656 24.957031 35.902344 24.652344 35.328125 C 24.46875 35.023438 24.320312 34.691406 24.199219 34.390625 C 23.679688 33.214844 22.132812 33.363281 21.3125 34.027344 C 21.222656 34.089844 21.132812 34.179688 21.039062 34.238281 C 20.554688 34.632812 20.402344 35.449219 20.554688 36.019531 C 21.402344 38.679688 22.285156 41.367188 23.378906 43.960938 C 22.375 45.019531 23.347656 46.46875 24.621094 46.742188 C 25.988281 49.519531 27.6875 52.144531 29.84375 54.410156 C 31.484375 56.128906 34.066406 53.535156 32.457031 51.8125 C 30.601562 49.851562 29.175781 47.617188 27.960938 45.261719 C 29.570312 44.476562 31.394531 44.023438 33.09375 43.539062 C 33.699219 43.359375 34.09375 42.964844 34.246094 42.511719 C 35.796875 45.5625 37.527344 48.523438 39.105469 51.480469 C 40.289062 53.535156 43.476562 51.691406 42.351562 49.609375 Z M 42.351562 49.609375 " fill-opacity="1" fill-rule="nonzero"/><path fill="#ff914d" d="M 40.441406 43.328125 C 40.5625 43.933594 40.683594 44.535156 40.804688 45.171875 C 41.199219 47.191406 44.660156 46.742188 44.417969 44.6875 C 44.417969 44.566406 44.386719 44.386719 44.355469 44.203125 L 44.355469 44.171875 C 44.175781 43.085938 43.808594 41.035156 43.476562 38.679688 C 45.8125 38.015625 48.152344 37.351562 50.519531 36.6875 C 51.25 38.800781 51.886719 40.914062 52.613281 42.996094 C 53.402344 45.199219 56.957031 44.265625 56.167969 42.03125 C 54.710938 37.894531 53.496094 33.695312 51.703125 29.679688 C 50.367188 26.722656 48.03125 22.34375 44.175781 22.613281 C 36.765625 23.097656 39.40625 36.414062 40.46875 42.664062 C 40.410156 42.84375 40.410156 43.085938 40.441406 43.328125 Z M 44.601562 26.238281 C 46.511719 26.117188 48.394531 30.949219 49.246094 33.214844 C 47.179688 33.816406 45.085938 34.390625 43.019531 34.996094 C 42.597656 30.554688 42.65625 26.359375 44.601562 26.238281 Z M 44.601562 26.238281 " fill-opacity="1" fill-rule="nonzero"/><path fill="#ff914d" d="M 53.585938 53.351562 C 52.675781 51.210938 49.125 52.144531 50.035156 54.320312 C 51.003906 56.675781 52.21875 58.910156 53.375 61.203125 C 53.101562 61.144531 52.796875 61.144531 52.433594 61.234375 C 50.214844 61.867188 48.03125 62.5625 45.8125 63.195312 C 44.84375 61.050781 44.023438 58.847656 43.265625 56.644531 C 42.503906 54.410156 38.953125 55.375 39.710938 57.609375 C 41.777344 63.710938 44.328125 69.65625 48.667969 74.519531 C 50.246094 76.300781 52.828125 73.703125 51.277344 71.921875 C 49.792969 70.261719 48.546875 68.417969 47.484375 66.488281 C 49.457031 65.914062 51.429688 65.28125 53.402344 64.707031 C 54.042969 64.523438 54.40625 64.132812 54.589844 63.648438 C 55.4375 65.460938 56.167969 67.332031 56.683594 69.265625 C 57.261719 71.558594 60.8125 70.59375 60.234375 68.300781 C 58.839844 63.015625 55.710938 58.394531 53.585938 53.351562 Z M 53.585938 53.351562 " fill-opacity="1" fill-rule="nonzero"/><path fill="#ff914d" d="M 65.183594 34.542969 C 59.71875 34.480469 58.078125 41.789062 57.746094 45.835938 C 57.5625 48.191406 57.65625 50.726562 57.957031 53.230469 C 57.410156 54.015625 57.683594 54.953125 58.324219 55.527344 C 58.929688 58.636719 59.902344 61.65625 61.238281 64.3125 C 62.300781 66.425781 65.488281 64.554688 64.425781 62.472656 C 63.179688 60.027344 62.421875 57.308594 61.964844 54.5625 C 64.273438 52.75 66.976562 51.542969 69.648438 50.332031 C 69.769531 50.273438 69.859375 50.210938 69.949219 50.152344 C 70.316406 52.476562 70.527344 54.832031 70.558594 57.1875 C 70.589844 59.542969 74.261719 59.542969 74.230469 57.1875 C 74.199219 52.660156 73.503906 48.007812 72.378906 43.601562 C 71.5 39.976562 69.675781 34.570312 65.183594 34.542969 Z M 67.824219 47.132812 C 65.640625 48.097656 63.484375 49.09375 61.511719 50.394531 C 61.480469 50.0625 61.449219 49.730469 61.449219 49.367188 C 61.328125 47.253906 61.359375 37.5 65.519531 38.195312 C 68.128906 38.617188 69.101562 45.050781 69.496094 47.164062 C 68.980469 46.921875 68.402344 46.859375 67.824219 47.132812 Z M 67.824219 47.132812 " fill-opacity="1" fill-rule="nonzero"/><g clip-path="url(#5c7b012bba)"><path fill="#ff914d" d="M 81.488281 19.203125 C 71.347656 7.15625 55.074219 -0.210938 39.285156 2.324219 C 25.109375 4.621094 13.296875 15.550781 7.652344 28.351562 C 1.425781 42.421875 3.398438 58.273438 11.960938 70.867188 C 7.832031 78.082031 5.464844 86.203125 0.425781 92.9375 L 0.457031 92.9375 C 0 93.78125 0.0898438 94.929688 1.0625 95.445312 C 1.214844 95.535156 1.398438 95.59375 1.546875 95.625 L 1.519531 95.625 C 1.546875 95.625 1.609375 95.625 1.640625 95.625 C 1.914062 95.683594 2.15625 95.65625 2.429688 95.59375 C 2.460938 95.59375 2.488281 95.59375 2.519531 95.5625 C 3.671875 95.261719 4.707031 93.996094 5.496094 93.210938 C 10.199219 88.527344 14.542969 83.425781 18.824219 78.355469 C 20.371094 83.394531 24.835938 87.230469 29.449219 89.949219 C 36.160156 93.933594 44.023438 95.625 51.765625 94.71875 C 68.796875 92.757812 82.398438 78.472656 89.109375 63.617188 C 96 48.21875 92.175781 31.886719 81.488281 19.203125 Z M 3.25 95.171875 L 3.277344 95.140625 L 3.277344 95.171875 C 3.277344 95.140625 3.25 95.140625 3.25 95.171875 Z M 62.632812 87.53125 C 54.921875 91.640625 45.996094 92.394531 37.738281 89.738281 C 30.9375 87.53125 21.617188 82.21875 21.890625 74.066406 C 21.949219 72.554688 19.796875 71.53125 18.734375 72.769531 C 15.96875 76.027344 13.207031 79.257812 10.382812 82.460938 C 12.023438 78.835938 13.632812 75.214844 15.695312 71.800781 C 16.152344 71.289062 16.273438 70.5625 15.757812 69.839844 C 5.800781 55.890625 5.132812 38.46875 14.179688 23.882812 C 22.558594 10.386719 38.285156 2.898438 54.011719 6.339844 C 71.226562 10.113281 85.828125 25.242188 88.742188 42.511719 C 91.75 60.417969 77.84375 79.472656 62.632812 87.53125 Z M 62.632812 87.53125 " fill-opacity="1" fill-rule="nonzero"/></g></svg>