<?xml version="1.0" encoding="UTF-8"?><svg xmlns="http://www.w3.org/2000/svg" xmlns:xlink="http://www.w3.org/1999/xlink" contentScriptType="text/ecmascript" width="768" zoomAndPan="magnify" contentStyleType="text/css" viewBox="0 0 768 767.999994" height="767.999994" preserveAspectRatio="xMidYMid meet" version="1.0"><defs><clipPath id="clip-0"><path d="M 135.464844 106 L 220 106 L 220 662 L 135.464844 662 Z M 135.464844 106 " clip-rule="nonzero"/></clipPath><clipPath id="clip-1"><path d="M 527 98.328125 L 632.421875 98.328125 L 632.421875 669.828125 L 527 669.828125 Z M 527 98.328125 " clip-rule="nonzero"/></clipPath></defs><rect x="-76.8" width="921.6" fill="rgb(100%, 100%, 100%)" y="-76.799999" height="921.599993" fill-opacity="1"/><rect x="-76.8" width="921.6" fill="rgb(100%, 100%, 100%)" y="-76.799999" height="921.599993" fill-opacity="1"/><rect x="-76.8" width="921.6" fill="rgb(0%, 0%, 0%)" y="-76.799999" height="921.599993" fill-opacity="1"/><path fill="rgb(92.549133%, 10.5896%, 14.118958%)" d="M 219.019531 106.304688 L 624.441406 106.304688 L 624.441406 661.855469 L 219.019531 661.855469 L 219.015625 106.304688 " fill-opacity="1" fill-rule="evenodd"/><path fill="rgb(80.389404%, 12.159729%, 14.898682%)" d="M 624.445312 551.578125 L 624.445312 661.851562 L 514.164062 661.851562 C 518.316406 602.898438 565.488281 555.730469 624.445312 551.578125 Z M 514.164062 106.304688 L 624.445312 106.304688 L 624.445312 216.582031 C 565.488281 212.417969 518.316406 165.253906 514.164062 106.304688 " fill-opacity="1" fill-rule="evenodd"/><g clip-path="url(#clip-0)"><path fill="rgb(80.389404%, 12.159729%, 14.898682%)" d="M 219.019531 106.304688 L 163.179688 106.304688 C 148.269531 106.304688 135.785156 118.785156 135.785156 133.699219 L 135.785156 634.460938 C 135.785156 649.371094 148.269531 661.855469 163.179688 661.855469 L 219.019531 661.855469 L 219.019531 106.308594 " fill-opacity="1" fill-rule="evenodd"/></g><g clip-path="url(#clip-1)"><path fill="rgb(98.429871%, 78.039551%, 2.749634%)" d="M 527.691406 98.328125 L 632.421875 98.328125 L 632.421875 203.058594 C 574.507812 203.058594 527.691406 156.242188 527.691406 98.328125 Z M 527.691406 669.828125 L 632.421875 669.828125 L 632.421875 565.105469 C 574.507812 565.105469 527.691406 611.917969 527.691406 669.828125 " fill-opacity="1" fill-rule="evenodd"/></g><path fill="rgb(38.038635%, 18.429565%, 12.939453%)" d="M 591.15625 605.324219 C 599.820312 605.324219 606.753906 612.257812 606.753906 620.933594 C 606.753906 629.59375 599.820312 636.542969 591.15625 636.542969 C 582.484375 636.542969 575.546875 629.59375 575.546875 620.933594 C 575.546875 612.257812 582.484375 605.324219 591.15625 605.324219 Z M 591.15625 131.613281 C 599.820312 131.613281 606.753906 138.550781 606.753906 147.21875 C 606.753906 155.890625 599.820312 162.824219 591.15625 162.824219 C 582.484375 162.824219 575.546875 155.890625 575.546875 147.21875 C 575.546875 138.550781 582.484375 131.613281 591.15625 131.613281 " fill-opacity="1" fill-rule="evenodd"/><path fill="rgb(98.429871%, 78.039551%, 2.749634%)" d="M 285.261719 329.632812 L 558.210938 329.632812 C 558.210938 343.84375 569.996094 355.644531 584.222656 355.644531 L 584.222656 412.515625 C 569.996094 412.515625 558.210938 424.3125 558.210938 438.523438 L 285.261719 438.523438 C 285.261719 424.3125 273.464844 412.515625 259.253906 412.515625 L 259.253906 355.644531 C 273.464844 355.644531 285.261719 343.84375 285.261719 329.632812 " fill-opacity="1" fill-rule="evenodd"/><path fill="rgb(38.038635%, 18.429565%, 12.939453%)" d="M 520.054688 406.964844 L 527.335938 406.964844 L 527.335938 391.710938 L 536.351562 361.191406 L 529.773438 361.191406 L 524.210938 381.996094 L 518.671875 361.191406 L 511.039062 361.191406 L 520.054688 391.710938 Z M 498.554688 367.773438 C 500.980469 367.773438 502.019531 369.167969 502.019531 372.28125 L 502.019531 376.800781 C 502.019531 380.613281 500.28125 381.652344 497.855469 381.652344 L 495.085938 381.652344 L 495.085938 367.773438 Z M 509.996094 406.964844 C 509.3125 405.238281 509.3125 403.496094 509.3125 401.414062 L 509.3125 394.480469 C 509.3125 389.628906 508.269531 386.160156 504.445312 384.777344 C 507.914062 383.035156 509.3125 379.914062 509.3125 375.40625 L 509.3125 371.59375 C 509.3125 364.660156 506.1875 361.191406 498.554688 361.191406 L 487.808594 361.191406 L 487.808594 406.964844 L 495.085938 406.964844 L 495.085938 388.242188 L 497.511719 388.242188 C 500.636719 388.242188 502.019531 389.972656 502.019531 394.136719 L 502.019531 401.414062 C 502.019531 405.238281 502.363281 405.921875 502.707031 406.964844 Z M 471.5 369.167969 L 474.96875 392.398438 L 468.03125 392.398438 Z M 477.050781 361.191406 L 466.648438 361.191406 L 459.015625 406.964844 L 465.949219 406.964844 L 466.992188 398.644531 L 476.007812 398.644531 L 477.050781 406.964844 L 484.339844 406.964844 Z M 448.613281 406.964844 L 455.890625 406.964844 L 455.890625 361.191406 L 449.296875 361.191406 L 449.296875 388.585938 L 442.019531 361.191406 L 433.003906 361.191406 L 433.003906 406.964844 L 439.59375 406.964844 L 439.59375 373.675781 Z M 406.648438 395.875 C 406.648438 403.496094 410.457031 407.664062 417.394531 407.664062 C 424.683594 407.664062 428.492188 403.496094 428.492188 395.875 L 428.492188 372.28125 C 428.492188 364.660156 424.683594 360.496094 417.394531 360.496094 C 410.457031 360.496094 406.648438 364.660156 406.648438 372.28125 Z M 413.925781 371.59375 C 413.925781 368.46875 415.324219 367.085938 417.394531 367.085938 C 419.832031 367.085938 421.214844 368.46875 421.214844 371.59375 L 421.214844 396.5625 C 421.214844 399.6875 419.832031 401.070312 417.394531 401.070312 C 415.324219 401.070312 413.925781 399.6875 413.925781 396.5625 Z M 394.863281 406.964844 L 401.796875 406.964844 L 401.796875 361.191406 L 394.863281 361.191406 Z M 369.191406 367.773438 L 376.824219 367.773438 L 376.824219 406.964844 L 384.101562 406.964844 L 384.101562 367.773438 L 391.382812 367.773438 L 391.382812 361.191406 L 369.191406 361.191406 Z M 360.175781 389.972656 L 360.175781 396.5625 C 360.175781 399.6875 358.789062 401.070312 356.351562 401.070312 C 354.28125 401.070312 352.542969 399.6875 352.542969 396.5625 L 352.542969 371.59375 C 352.542969 368.46875 354.28125 367.085938 356.351562 367.085938 C 358.789062 367.085938 360.175781 368.46875 360.175781 371.59375 L 360.175781 376.445312 L 367.109375 376.445312 L 367.109375 372.28125 C 367.109375 364.660156 363.285156 360.496094 356.351562 360.496094 C 349.074219 360.496094 345.605469 364.660156 345.605469 372.28125 L 345.605469 395.875 C 345.605469 403.496094 349.074219 407.664062 356.351562 407.664062 C 363.285156 407.664062 367.109375 403.496094 367.109375 395.875 L 367.109375 389.972656 Z M 333.820312 406.964844 L 340.753906 406.964844 L 340.753906 361.191406 L 333.820312 361.191406 Z M 318.210938 367.773438 C 320.636719 367.773438 321.675781 368.8125 321.675781 372.28125 L 321.675781 395.875 C 321.675781 399.34375 320.636719 400.386719 318.210938 400.386719 L 314.042969 400.386719 L 314.042969 367.773438 Z M 306.765625 406.964844 L 318.210938 406.964844 C 325.488281 406.964844 328.957031 403.152344 328.957031 395.519531 L 328.957031 372.636719 C 328.957031 365.003906 325.488281 361.191406 318.210938 361.191406 L 306.765625 361.191406 L 306.765625 406.964844 " fill-opacity="1" fill-rule="nonzero"/></svg>